<?xml version="1.0" standalone="no"?>
<!DOCTYPE svg PUBLIC "-//W3C//DTD SVG 1.1//EN" "http://www.w3.org/Graphics/SVG/1.1/DTD/svg11.dtd" >
<svg xmlns="http://www.w3.org/2000/svg" xmlns:xlink="http://www.w3.org/1999/xlink" version="1.1">
<metadata>
Created by FontForge 20170731 at Wed May 31 15:36:12 2023
 By Aleksey,,,
Krisjanis Mezulis RIT CREATIVE
</metadata>
<defs>
<font id="Etna" horiz-adv-x="409" >
  <font-face 
    font-family="Etna"
    font-weight="400"
    font-stretch="normal"
    units-per-em="2048"
    panose-1="0 0 0 0 0 0 0 0 0 0"
    ascent="1536"
    descent="-512"
    x-height="1055"
    cap-height="1331"
    bbox="-205 -565 2546 2114"
    underline-thickness="102"
    underline-position="-307"
    unicode-range="U+000D-2122"
  />
<missing-glyph horiz-adv-x="661" 
 />
    <glyph glyph-name=".notdef" horiz-adv-x="661" 
 />
    <glyph glyph-name=".null" horiz-adv-x="0" 
 />
    <glyph glyph-name="nonmarkingreturn" horiz-adv-x="682" 
 />
    <glyph glyph-name="NULL" horiz-adv-x="0" 
 />
    <glyph glyph-name="NULL" horiz-adv-x="0" 
 />
    <glyph glyph-name="CR" unicode="&#xd;" horiz-adv-x="532" 
 />
    <glyph glyph-name="space" unicode=" " horiz-adv-x="532" 
 />
    <glyph glyph-name="exclam" unicode="!" horiz-adv-x="442" 
d="M61 1542h320v-1065h-320v1065zM61 0v319h320v-319h-320z" />
    <glyph glyph-name="quotedbl" unicode="&#x22;" horiz-adv-x="792" 
d="M61 1278h287v-584h-287v584zM444 1278h287v-584h-287v584z" />
    <glyph glyph-name="numbersign" unicode="#" horiz-adv-x="1005" 
d="M733 664v-99h211v-164h-211v-225h-164v225h-139v-225h-164v225h-205v164h205v99h-205v163h205v230h164v-230h139v230h164v-230h211v-163h-211zM430 565h139v99h-139v-99z" />
    <glyph glyph-name="dollar" unicode="$" horiz-adv-x="1009" 
d="M721 729v2v-2zM518 666q242 -27 356 -156q74 -87 74 -193q0 -123 -71 -202q-51 -60 -146 -92q-53 -18 -92 -23v-145h-266v149q-35 6 -64 19q-70 26 -135 88q-18 17 -33.5 35.5t-26.5 36t-20 37t-14 36t-9 34t-5.5 30.5t-2.5 27t-1 21.5v15.5l1 9l228 -2q-1 -61 26 -100
q48 -76 185 -76q106 0 159.5 27t53.5 75q0 97 -221 123q-122 11 -218 52q-87 38 -137 94q-76 79 -76 190q0 117 74 209q83 92 236 119v121h266v-123q165 -36 250 -166q25 -39 39.5 -88.5t17 -74.5t2.5 -42h-227q0 50 -25 84q-54 74 -190 74q-53 0 -97 -8.5t-77 -31.5
t-33 -58q0 -101 219 -125z" />
    <glyph glyph-name="percent" unicode="%" horiz-adv-x="1261" 
d="M834 1372h366l-770 -1372h-369zM174 1372h320v-319h-320v319zM768 319h319v-319h-319v319z" />
    <glyph glyph-name="ampersand" unicode="&#x26;" horiz-adv-x="1398" 
d="M1337 580l-229 -228l172 -174l-158 -160l-174 177l-39 -37q-6 -9 -14 -17q-71 -67 -154 -104q-90 -37 -190 -37q-104 0 -191 37q-83 35 -155 104q-65 65 -105 156q-39 95 -39 190q0 96 39 191q40 91 105 156q41 37 61 51q-34 46 -53 88q-29 76 -29 145q0 72 29 144
q28 63 80 118q54 51 119 80q72 29 143 29q69 0 145 -29q69 -32 117 -80q55 -55 80 -118q29 -73 29 -144q0 -69 -29 -145q-29 -69 -80 -117q-48 -51 -117 -80q-2 -1 -6 -2t-6 -2l260 -260l230 227zM555 1262q-60 0 -101.5 -42t-41.5 -102q0 -55 36 -95t89 -48h18
q60 0 101.5 41.5t41.5 101.5t-41.5 102t-101.5 42zM289 487q0 -107 76.5 -183.5t185.5 -76.5q73 0 134 36.5t95 98.5l-354 355q-62 -33 -99.5 -94.5t-37.5 -135.5z" />
    <glyph glyph-name="quotesingle" unicode="'" 
d="M61 1282h287v-584h-287v584z" />
    <glyph glyph-name="parenleft" unicode="(" horiz-adv-x="485" 
d="M270 -289q-7 7 -20 23t-40 62t-50 100q-99 234 -99 557q0 325 99 571q22 57 48 105.5t39 67t19 24.5l158 -131q-41 -50 -78 -152q-80 -208 -80 -485q0 -274 76 -465q11 -26 23 -49t21 -38t16.5 -26t11.5 -17l4 -5v2z" />
    <glyph glyph-name="parenright" unicode=")" horiz-adv-x="485" 
d="M215 1194l8 -9q8 -9 18.5 -24t24 -35.5t30 -51t30.5 -64.5q98 -232 98 -557q0 -328 -98 -572q-22 -57 -48 -105t-39.5 -66.5t-19.5 -24.5l-158 131q39 49 78 151q80 208 80 486q0 270 -78 462q-10 26 -21.5 50t-20.5 39t-16 26.5t-11 17.5l-4 5v-2z" />
    <glyph glyph-name="asterisk" unicode="*" horiz-adv-x="706" 
d="M645 877h-168l119 -119l-72 -72l-118 119v-168h-103v168l-119 -119l-73 72l118 119h-168v102h168l-118 119l73 73l119 -118v168h103v-168l118 118l72 -73l-119 -119h168v-102z" />
    <glyph glyph-name="plus" unicode="+" horiz-adv-x="1177" 
d="M1116 786v-286h-385v-383h-287v383h-383v286h383v385h287v-385h385z" />
    <glyph glyph-name="comma" unicode="," 
d="M61 287h287v-287l-78 -174h-147l80 174h-142v287z" />
    <glyph glyph-name="hyphen" unicode="-" horiz-adv-x="825" 
d="M61 457v286h703v-286h-703z" />
    <glyph glyph-name="period" unicode="." 
d="M348 0h-287v287h287v-287z" />
    <glyph glyph-name="slash" unicode="/" horiz-adv-x="851" 
d="M791 1372l-431 -1372h-299l431 1372h299z" />
    <glyph glyph-name="zero" unicode="0" horiz-adv-x="1005" 
d="M944 987v-547v0q0 -88 -35 -172q-35 -79 -94 -139q-61 -61 -141 -96q-76 -33 -172 -33q-94 0 -170 33q-81 35 -142 96q-57 55 -94 139q-35 84 -35 172v0v547q0 88 35 172q37 82 94 139q59 59 142 95q78 34 170 34q94 0 172 -34q81 -35 141 -95q60 -63 94 -139
q35 -84 35 -172zM657 440v547v0q0 63 -45.5 108.5t-109.5 45.5q-63 0 -108.5 -45.5t-45.5 -108.5v0v-547q0 -64 45.5 -108.5t108.5 -44.5q65 0 110 44.5t45 108.5z" />
    <glyph glyph-name="one" unicode="1" horiz-adv-x="716" 
d="M614 1427h41v-1427h-286v1141h-308v286h553z" />
    <glyph glyph-name="two" unicode="2" horiz-adv-x="1067" 
d="M924 731l-316 -444h391v-287h-637h-301l639 918q19 32 19 71q0 63 -44.5 107.5t-107.5 44.5t-107 -44.5t-44 -107.5h-287q0 94 33 170q35 79 94 139q59 59 139 95q81 34 172 34q92 0 170 -34q85 -37 140 -95q57 -55 94 -139q35 -81 35 -170q0 -88 -35 -172
q-14 -37 -47 -86z" />
    <glyph glyph-name="three" unicode="3" horiz-adv-x="999" 
d="M842 713q42 -52 61 -105q35 -74 35 -170q0 -95 -35 -172q-29 -74 -94 -139q-59 -59 -139 -94q-76 -33 -170 -33q-93 0 -172 33q-78 35 -140 94q-64 67 -92 139q-35 77 -35 172h287q0 -63 44.5 -107t107.5 -44t107 44t44 107q0 42 -18 72l-133 225l133 183q18 30 18 71
q0 63 -44 107.5t-107 44.5t-107.5 -44.5t-44.5 -107.5h-287q0 96 35 170q28 75 92 139q58 58 140 95q81 34 172 34q92 0 170 -34q83 -36 139 -95q65 -62 94 -139q35 -74 35 -170q0 -95 -35 -172q-18 -47 -61 -104z" />
    <glyph glyph-name="four" unicode="4" horiz-adv-x="1128" 
d="M780 969h287v-969h-287v510h-719l467 917h367l-336 -630h221v172z" />
    <glyph glyph-name="five" unicode="5" horiz-adv-x="1001" 
d="M905 608q35 -81 35 -170q0 -88 -35 -172q-37 -82 -94 -139q-59 -59 -139 -94q-76 -33 -170 -33q-40 0 -56 2q-56 8 -116 31q-81 35 -140 94q-57 57 -94 139q-35 84 -35 172h287q0 -42 22 -78t58 -57q17 -8 51 -16h21q63 0 108 44t45 107q0 36 -18 72v2q-21 36 -56 57
t-77 21h-430v837h712v-286h-426v-264h146q87 0 168 -35q84 -37 139 -94q57 -54 94 -140z" />
    <glyph glyph-name="six" unicode="6" horiz-adv-x="1003" 
d="M907 612q35 -77 35 -172t-35 -172q-29 -77 -94 -139q-58 -61 -139 -96q-79 -33 -172 -33t-172 33q-80 36 -140 96q-57 55 -94 139q-32 70 -35 160v12v0v547v0v14q3 76 35 158q37 82 94 139q58 58 140 95q81 34 172 34t172 -34q83 -36 139 -95q65 -65 94 -139
q32 -71 35 -158h-287q-6 59 -49.5 99.5t-103.5 40.5t-104 -40.5t-50 -99.5v-63v-84q74 27 154 27q88 0 172 -35q84 -37 139 -94q64 -64 94 -140zM502 287q64 0 108.5 44.5t44.5 108.5q0 63 -44.5 108.5t-108.5 45.5q-63 0 -108.5 -45.5t-45.5 -108.5q0 -64 45.5 -108.5
t108.5 -44.5z" />
    <glyph glyph-name="seven" unicode="7" horiz-adv-x="929" 
d="M61 1427h807l-413 -1427h-299l331 1141h-426v286z" />
    <glyph glyph-name="eight" unicode="8" horiz-adv-x="1005" 
d="M850 713q33 -41 59 -101q35 -84 35 -172t-35 -172q-37 -84 -94 -139q-61 -61 -139 -96q-79 -33 -172 -33q-96 0 -172 33q-81 35 -142 96q-60 59 -94 139q-35 84 -35 172t35 172q22 52 62 101q-39 48 -62 102q-35 81 -35 172q0 88 35 172q34 76 94 139q59 59 142 95
q78 34 172 34q91 0 172 -34q80 -36 139 -95q57 -57 94 -139q35 -84 35 -172q0 -91 -35 -172q-27 -62 -59 -102zM504 1141q-64 0 -110 -45.5t-46 -108.5q0 -65 46 -110.5t110 -45.5q63 0 108 46t45 110q0 63 -45 108.5t-108 45.5zM504 287q63 0 108 44.5t45 108.5
q0 63 -45 108.5t-108 45.5q-64 0 -110 -45.5t-46 -108.5q0 -64 45.5 -108.5t110.5 -44.5z" />
    <glyph glyph-name="nine" unicode="9" horiz-adv-x="1005" 
d="M944 999l-2 -575q0 -75 -33 -156q-35 -79 -94 -139q-61 -61 -141 -96q-76 -33 -172 -33q-93 0 -172 33q-80 36 -140 96q-57 55 -94 139q-32 79 -35 156h287q6 -59 50 -98t104 -39t103.5 39t49.5 98l2 16v133q-76 -28 -155 -28q-88 0 -172 35q-78 35 -140 94
q-58 58 -94 141q-35 81 -35 172q0 88 35 172q37 82 94 139q58 58 140 95q81 34 172 34q94 0 172 -34q81 -35 141 -95q60 -63 94 -139q32 -82 35 -160zM502 831q64 0 109.5 45.5t45.5 110.5q0 63 -45.5 108.5t-109.5 45.5q-63 0 -108.5 -45.5t-45.5 -108.5q0 -64 45.5 -110
t108.5 -46z" />
    <glyph glyph-name="colon" unicode=":" 
d="M61 938h287v-287h-287v287zM61 567h287v-286h-287v286z" />
    <glyph glyph-name="semicolon" unicode=";" 
d="M61 764h287v-287h-287v287zM61 393h287v-184l-287 -207v391z" />
    <glyph glyph-name="less" unicode="&#x3c;" horiz-adv-x="903" 
d="M653 23l-592 591l590 596l191 -188l-406 -406l406 -405z" />
    <glyph glyph-name="equal" unicode="=" horiz-adv-x="864" 
d="M61 741v287h742v-287h-742zM61 328v286h742v-286h-742z" />
    <glyph glyph-name="greater" unicode="&#x3e;" horiz-adv-x="903" 
d="M250 20l-189 187l404 407l-404 404l189 188l592 -592z" />
    <glyph glyph-name="question" unicode="?" horiz-adv-x="1110" 
d="M406 0v319h319v-319h-319zM1049 1087q0 -84 -39 -172q-39 -89 -105 -155l-180 -180v-103h-319v180l221 207q137 140 137 223q0 74 -57.5 121t-151.5 47q-91 0 -149 -50t-58 -118h-287q0 17 1.5 31.5t2.5 23.5t6.5 24.5t7 20.5t10 25.5t11.5 26.5q38 89 107 158
q62 62 155 106q95 39 193 39t193 -39q94 -43 157 -106q66 -66 105 -158q18 -40 23.5 -54t10.5 -39.5t5 -58.5z" />
    <glyph glyph-name="at" unicode="@" horiz-adv-x="1900" 
d="M1839 602q0 -173 -70 -346q-38 -84 -71 -127q-8 -15 -43 -65t-47 -62q-36 -36 -86 -57q-58 -23 -107 -23q-52 0 -106 23t-88 57q-43 46 -58 88q-22 52 -22 107v20l2 98q-115 -105 -273 -102q-167 0 -284 118.5t-117 286.5q2 166 120.5 283.5t284.5 116.5q156 0 271 -105
v113h223l-2 -559l2 -266v-4q0 -20 13.5 -33.5t33.5 -13.5q19 0 33 14q166 190 166 438q0 181 -89 333.5t-241.5 241.5t-333.5 89q-180 0 -333 -89t-241.5 -241.5t-88.5 -333.5q0 -135 52.5 -258t141 -211.5t211.5 -141t258 -52.5v-226q-184 0 -346 70q-160 68 -282 190
q-123 123 -191 283q-70 165 -70 346t70 346q68 160 191 283q122 122 282 190q170 70 346 70q173 0 346 -70q164 -71 283 -190q124 -127 190 -283q70 -173 70 -346zM1014 473q57 60 57 141q3 82 -57 142q-56 56 -140 59q-81 0 -141 -57q-59 -62 -59 -142q0 -81 57 -141
q59 -56 141 -59q82 0 142 57z" />
    <glyph glyph-name="A" unicode="A" horiz-adv-x="1472" 
d="M1083 0l-96 186h-502l-96 -186h-369l717 1331v0v0l715 -1331h-369zM614 436h244l-121 234z" />
    <glyph glyph-name="B" unicode="B" horiz-adv-x="1290" 
d="M1065 745q7 -3 18 -9.5t39 -35t50 -65t39.5 -104t17.5 -148.5q0 -72 -21 -132t-55 -98.5t-74.5 -68t-81.5 -45t-75 -25t-55 -12.5l-21 -2h-723v1331h616q6 0 17 -0.5t44 -5.5t64.5 -14t72 -28.5t73.5 -46t62.5 -69.5t45.5 -96q15 -52 15.5 -105t-10.5 -91t-23.5 -68.5
t-23.5 -46.5zM442 1083v-297h285q62 0 106 43.5t44 104.5q0 63 -44 106t-106 43h-285zM979 393q0 62 -43.5 106t-104.5 44h-389v-297h389q62 0 105 43t43 104z" />
    <glyph glyph-name="C" unicode="C" horiz-adv-x="1312" 
d="M985 373l205 -205q-196 -162 -445 -162q-139 0 -265.5 54.5t-218 146t-146 218t-54.5 265.5q0 186 91.5 344t249.5 250t343 92q250 0 445 -164l-205 -202q-107 80 -240 80q-163 0 -280 -117t-117 -283q0 -163 117 -280t280 -117q133 0 240 80z" />
    <glyph glyph-name="D" unicode="D" horiz-adv-x="1294" 
d="M567 1323q181 0 334 -89t242.5 -242.5t89.5 -334.5q0 -180 -89.5 -333.5t-242.5 -242.5t-334 -89h-489h-17v1331h5h501zM821 403q105 105 105 254q0 148 -105 256q-105 105 -256 105h-184v-719h186q150 0 254 104z" />
    <glyph glyph-name="E" unicode="E" horiz-adv-x="1052" 
d="M381 522v-235h610v-287h-930v1331h930v-287h-610v-235h518v-287h-518z" />
    <glyph glyph-name="F" unicode="F" horiz-adv-x="946" 
d="M885 1044h-504v-235h375v-287h-375v-522h-320v1331h160h160h504v-287z" />
    <glyph glyph-name="G" unicode="G" horiz-adv-x="1474" 
d="M1147 772h266v-772h-266v106q-178 -126 -399 -126q-186 0 -344.5 92t-250.5 250t-92 344t92 344t250.5 250t344.5 92q251 0 446 -164l-205 -203q-110 80 -241 80q-167 0 -281 -117q-119 -119 -119 -282q0 -164 119 -283q117 -117 281 -117q162 0 282 117q73 73 92 123
h-307v266h332zM1145 506l2 -2v2h-2z" />
    <glyph glyph-name="H" unicode="H" horiz-adv-x="1163" 
d="M782 1331h320v-1331h-320v522h-401v-522h-320v1331h320v-522h401v522z" />
    <glyph glyph-name="I" unicode="I" horiz-adv-x="380" 
d="M31 1331h319v-1331h-319v1331z" />
    <glyph glyph-name="J" unicode="J" horiz-adv-x="608" 
d="M227 0v1331h320v-1331q0 -82 -8.5 -144.5t-28.5 -119t-55.5 -96t-89 -68.5t-129.5 -43t-175 -14v319q75 0 120.5 41.5t45.5 124.5z" />
    <glyph glyph-name="K" unicode="K" horiz-adv-x="1466" 
d="M993 0l-467 496l-145 -148v-348h-320v1331h320v-530l530 530h453l-610 -608l692 -723h-453z" />
    <glyph glyph-name="L" unicode="L" horiz-adv-x="1046" 
d="M381 287h641v-287h-641h-2h-318v1331h320v-1044z" />
    <glyph glyph-name="M" unicode="M" horiz-adv-x="1540" 
d="M768 874l711 457v-1331h-320v745l-395 -251l-383 249v-743h-320v1331z" />
    <glyph glyph-name="N" unicode="N" horiz-adv-x="1300" 
d="M932 1331h319v-1331l-882 649v-649h-320v1331l883 -680v680z" />
    <glyph glyph-name="O" unicode="O" horiz-adv-x="1433" 
d="M717 1325q186 0 344 -92t250 -250t92 -344t-92 -344t-250 -250t-344 -92t-344 92t-250 250t-92 344t92 344t250 250t344 92zM999 356q117 117 117 283t-117 283q-116 116 -282 116q-167 0 -283 -116q-117 -117 -117 -283t117 -283q119 -116 283 -116q163 0 282 116z" />
    <glyph glyph-name="P" unicode="P" horiz-adv-x="1236" 
d="M700 1331q95 0 175 -27.5t134.5 -73t93 -105t56 -122.5t17.5 -126q0 -59 -15.5 -119.5t-52.5 -121t-90.5 -107.5t-137 -76t-184.5 -29h-315v-424h-320v424v907v0h320h319zM850 764q39 47 39 113q0 65 -43 114q-47 53 -146 53h-319v-333h315q64 0 107 18q27 15 47 35z" />
    <glyph glyph-name="Q" unicode="Q" horiz-adv-x="1517" 
d="M1456 131l-227 -227l-146 145q-157 -88 -335 -88q-186 0 -344.5 92t-250.5 250t-92 344t92 344t250.5 250t344.5 92t344 -92t250 -250t92 -344q0 -204 -115 -381zM748 248q63 0 118 18l-121 121l226 227l137 -137q39 77 39 170q0 166 -117 283t-282 117q-166 0 -283 -117
t-117 -283q0 -165 117 -282q120 -117 283 -117z" />
    <glyph glyph-name="R" unicode="R" horiz-adv-x="1234" 
d="M1174 877q0 -81 -27.5 -160t-95.5 -153t-168 -109l286 -455h-358l-279 424h-151v-424h-320v1331h320h317q95 0 175 -27.5t134.5 -73t93 -105t56 -122.5t17.5 -126zM381 1044v-333h315q64 0 105 18q32 18 47 35q39 47 39 113q0 68 -43 114q-44 53 -146 53h-317z" />
    <glyph glyph-name="S" unicode="S" horiz-adv-x="1220" 
d="M604 -2q-136 0 -237 39q-84 34 -168 108q-23 21 -42 44.5t-32 45.5t-24 46t-17.5 44.5t-11 43t-6.5 39t-3 33.5t-1 27v20l1 10l281 -4v2q0 -76 33 -125q62 -92 227 -92q266 0 266 124q0 60 -72 99t-202 53q-155 18 -270 66q-106 44 -170 114q-93 104 -93 238
q0 152 93 258q144 162 454 162q328 0 475 -222q31 -49 49.5 -110.5t21.5 -91.5t3 -51h-280v-3q2 62 -31 105q-66 92 -238 92q-47 0 -90.5 -6.5t-81.5 -20t-61 -38t-23 -56.5q0 -127 273 -157q307 -35 442 -191q90 -107 90 -240q0 -151 -88 -249q-67 -76 -182 -117
q-113 -39 -285 -39z" />
    <glyph glyph-name="T" unicode="T" horiz-adv-x="1116" 
d="M1073 1012h-346v-1012h-319v1012h-347v319h1012v-319z" />
    <glyph glyph-name="U" unicode="U" horiz-adv-x="1261" 
d="M903 1331h297v-768q0 -128 -52.5 -237t-136.5 -178.5t-184 -108.5t-198 -39q-73 0 -150.5 22t-152.5 69.5t-134 112.5t-95 159.5t-36 203.5v764h297v-764q0 -123 88 -196q41 -36 92.5 -55t90.5 -19q36 0 92 18q59 23 96 58q46 43 64 82q22 45 22 108v768z" />
    <glyph glyph-name="V" unicode="V" horiz-adv-x="1554" 
d="M778 2v-2v2l-2 -2v2l-715 1329h369l348 -663l346 663h369z" />
    <glyph glyph-name="W" unicode="W" horiz-adv-x="2019" 
d="M1589 1331h369l-717 -1331v0v0l-231 430l-232 -430v0v0l-717 1331h369l348 -665l51 98l-305 567h369l348 -665z" />
    <glyph glyph-name="X" unicode="X" horiz-adv-x="1456" 
d="M1395 1110l-441 -440l441 -441l-228 -225l-440 440l-440 -440l-226 225l441 441l-441 440l228 225l438 -438l440 438z" />
    <glyph glyph-name="Y" unicode="Y" horiz-adv-x="1513" 
d="M1452 1331l-537 -643v-688h-319v688l-535 643h420l277 -334l274 334h420z" />
    <glyph glyph-name="Z" unicode="Z" horiz-adv-x="1247" 
d="M1186 1343v-286l-729 -770h729v-289l-1125 2v285v2l730 770h-730v286h1125z" />
    <glyph glyph-name="bracketleft" unicode="[" horiz-adv-x="595" 
d="M535 0v-205h-474v1372h474v-204h-248v-963h248z" />
    <glyph glyph-name="backslash" unicode="\" horiz-adv-x="849" 
d="M788 0h-296l-431 1372h299z" />
    <glyph glyph-name="bracketright" unicode="]" horiz-adv-x="595" 
d="M535 -205h-474v205h248v963h-248v204h474v-1372z" />
    <glyph glyph-name="asciicircum" unicode="^" horiz-adv-x="1134" 
d="M1073 1032l-190 -188l-318 317l-315 -315l-189 186l506 506z" />
    <glyph glyph-name="underscore" unicode="_" horiz-adv-x="1275" 
d="M61 -516v184h1153v-184h-1153z" />
    <glyph glyph-name="grave" unicode="`" horiz-adv-x="1705" 
d="M997 1432l-151 -150l-248 246l152 149z" />
    <glyph glyph-name="a" unicode="a" horiz-adv-x="1167" 
d="M819 1059h287v-1059h-287v119q-45 -58 -116.5 -86.5t-149.5 -28.5q-218 -1 -373 152.5t-157 371.5q-1 218 152.5 373.5t371.5 157.5q79 0 153 -30t119 -87v117zM733 348q76 76 76 184q0 110 -78 185q-77 77 -182 74q-108 0 -184 -76t-76 -185q0 -106 78 -184
q76 -76 184 -76q110 3 182 78z" />
    <glyph glyph-name="b" unicode="b" horiz-adv-x="1247" 
d="M690 1055q218 -2 371.5 -157.5t152.5 -373.5q-2 -218 -157 -371.5t-373 -152.5q-187 0 -334 121v-121h-287l-2 1430h287v-500q147 125 342 125zM870 342q75 75 78 184q0 106 -76 185q-75 75 -184 75q-108 0 -184 -73q-76 -76 -76 -185q-3 -107 74 -184q75 -75 184 -78
q108 0 184 76z" />
    <glyph glyph-name="c" unicode="c" horiz-adv-x="937" 
d="M715 317l190 -190q-149 -127 -348 -127q-218 2 -371.5 157t-152.5 373q2 218 157 372t373 153q197 -3 344 -131l-190 -189q-70 51 -156 51q-108 0 -184 -73q-76 -76 -76 -185q-3 -107 74 -184q75 -75 184 -78q86 0 156 51z" />
    <glyph glyph-name="d" unicode="d" horiz-adv-x="1234" 
d="M1174 0h-287v121q-147 -121 -334 -121q-218 -1 -373 152.5t-157 371.5q-1 218 152.5 373.5t371.5 157.5q192 0 338 -121v496h286zM735 344q76 76 76 184q-3 110 -78 185q-76 73 -184 73q-109 0 -184 -75q-77 -83 -74 -185q0 -108 76 -184t184 -76q109 3 184 78z" />
    <glyph glyph-name="e" unicode="e" horiz-adv-x="1099" 
d="M1077 530v-100l-770 2q10 -29 22.5 -47t37.5 -43q79 -76 184 -76q109 3 184 78l8 8l267 -84q-89 -137 -191.5 -202t-265.5 -66q-218 -1 -373 152.5t-157 371.5q-1 218 152.5 373.5t371.5 157.5q218 1 373 -153t157 -372zM549 786q-109 0 -184 -75q-41 -44 -56 -86h482
q-15 42 -58 88q-76 73 -184 73z" />
    <glyph glyph-name="f" unicode="f" horiz-adv-x="804" 
d="M645 1143q-46 0 -79.5 -34t-33.5 -81v-113h211v-286h-211v-131v-498h-286v498v133h-185v284h185v228q0 119 83 201.5t203 82.5h211v-284h-98z" />
    <glyph glyph-name="g" unicode="g" horiz-adv-x="1177" 
d="M848 1057h268v-1055q0 -106 -41 -203.5t-111 -167.5t-167 -112t-203 -43q-100 -1 -192 34.5t-161.5 97.5t-115.5 148t-57 183h270q15 -66 70 -121q76 -76 184 -76q107 0 182 78q76 76 76 182l-2 104q-47 -47 -116 -75.5t-138 -28.5q-144 -1 -266.5 69t-193.5 191t-71 264
q-1 143 68.5 265t191 193.5t265.5 72.5q174 0 260 -109v109zM848 498v61q-9 89 -76 156q-76 73 -184 73q-107 0 -182 -75q-76 -79 -76 -185t78 -184q76 -76 184 -76q110 3 182 78q65 65 74 152z" />
    <glyph glyph-name="h" unicode="h" horiz-adv-x="1198" 
d="M1137 526v-24v-502h-267v66v454h-2v6q0 108 -75 183t-185 75q-107 0 -184 -77t-74 -185v-2h-2v-520h-287v1331h287v-409q59 70 118 96t140 33q146 13 265.5 -43t192.5 -181.5t73 -300.5z" />
    <glyph glyph-name="i" unicode="i" 
d="M346 1427v-241h-285v241h285zM348 1053v-1053h-287v1053h287z" />
    <glyph glyph-name="j" unicode="j" horiz-adv-x="538" 
d="M477 1427v-241h-287v241h287zM477 0v0q0 -170 -119.5 -290t-289.5 -120h-7v287h7q47 0 88 35q34 40 34 88v0v1053h287v-1053z" />
    <glyph glyph-name="k" unicode="k" horiz-adv-x="1230" 
d="M788 0l-342 410l-98 -97v-313h-287v1423h287v-704l336 336l406 -2l-443 -441l522 -612h-381z" />
    <glyph glyph-name="l" unicode="l" 
d="M348 1423v-1423h-287v1423h287z" />
    <glyph glyph-name="m" unicode="m" horiz-adv-x="1902" 
d="M1352 1057q103 1 191.5 -31.5t155 -94.5t104.5 -159.5t38 -220.5v-551h-266v0v526v6q-1 24 -7 53.5t-23 67t-42.5 67.5t-70 50.5t-99.5 20.5q-59 0 -104.5 -21t-69.5 -51t-39.5 -69t-19.5 -67.5t-4 -54.5v-2v-526h-2h-267v0v526v6q0 24 -6 53.5t-23 67t-42.5 67.5
t-69 50.5t-98.5 20.5q-60 0 -105.5 -21t-70.5 -51t-40 -69t-19.5 -67.5t-4.5 -54.5v-2v-526h-287v1059h287v-111q101 109 258 109q112 1 210 -46t165 -132l86 79q122 99 285 99z" />
    <glyph glyph-name="n" unicode="n" horiz-adv-x="1157" 
d="M586 1051q109 9 205 -21.5t168.5 -95.5t114.5 -170.5t42 -237.5v-24v-502h-266v66v454h-2v4q0 109 -76 185q-75 75 -184 75q-111 -3 -185 -77q-76 -76 -73 -185v-2h-2v-520h-287v1059h287v-137q59 70 118 96t140 33z" />
    <glyph glyph-name="o" unicode="o" horiz-adv-x="1097" 
d="M547 1055q143 1 264.5 -69t192.5 -191.5t71 -264.5q1 -143 -68.5 -265t-190 -193t-263.5 -72q-144 -1 -266 69t-193 191t-71 264q-1 143 68.5 265t190.5 193.5t265 72.5zM733 344q76 76 76 184q0 107 -78 185q-76 73 -184 73q-107 0 -182 -75q-76 -79 -76 -185t78 -184
q76 -76 184 -76q110 3 182 78z" />
    <glyph glyph-name="p" unicode="p" horiz-adv-x="1173" 
d="M610 1055q218 1 373.5 -153t157.5 -372q1 -218 -153 -373t-372 -157q-177 0 -268 113v-506h-287v1446h287v-111q40 52 113 81.5t149 31.5zM799 344q76 76 73 184q0 110 -75 185q-76 73 -185 73t-184 -75q-76 -79 -76 -185q3 -109 78 -184q76 -76 184 -76q110 3 185 78z
" />
    <glyph glyph-name="q" unicode="q" horiz-adv-x="1202" 
d="M63 530q0 107 42 204.5t113 168t169.5 112t206.5 40.5q75 -2 148 -31.5t112 -81.5v111h287v-1446h-287v506q-91 -113 -266 -113q-108 1 -205.5 43t-168 113t-111.5 169t-40 205zM330 528q0 -108 76 -184q75 -75 182 -78q108 0 184 76q78 78 78 184t-76 185
q-75 75 -182 75q-108 0 -184 -73q-78 -78 -78 -185z" />
    <glyph glyph-name="r" unicode="r" horiz-adv-x="735" 
d="M348 897q35 98 115.5 137t241.5 39v-293q-79 0 -148.5 -30t-113.5 -76t-69.5 -101t-25.5 -106v-467h-287v467v588h287v-158z" />
    <glyph glyph-name="s" unicode="s" horiz-adv-x="980" 
d="M487 0q-107 0 -186 33q-64 23 -131 84q-116 110 -107 274v2v21l230 -4h18v-17q3 -51 23 -84q36 -59 153 -59q99 0 142 22q37 18 37 50q0 74 -189 96q-125 12 -205 49q-82 35 -135 90q-74 83 -74 193q0 122 74 204q112 127 355 127q259 0 370 -174q58 -90 58 -200v-19
h-248v17v2q0 38 -19 65q-46 62 -161 62q-71 0 -122 -18.5t-51 -53.5q0 -37 41 -60q44 -26 146 -38q234 -24 342 -150q72 -84 72 -192q0 -119 -70 -199q-52 -61 -143 -92q-95 -31 -220 -31z" />
    <glyph glyph-name="t" unicode="t" horiz-adv-x="882" 
d="M821 1055v-287h-235v-768h-287v768h-238v287h238v368h287v-368h235z" />
    <glyph glyph-name="u" unicode="u" horiz-adv-x="1155" 
d="M61 506v553h267v0v-529v-4q0 -24 6 -54t23 -67t42.5 -66.5t69 -50t98.5 -20.5q60 0 105.5 21t70.5 50t40 67.5t19.5 67t4.5 54.5v2v529h287v-1059h-287v111q-101 -111 -258 -111q-133 -1 -245 65t-177.5 183t-65.5 258z" />
    <glyph glyph-name="v" unicode="v" horiz-adv-x="1341" 
d="M948 1055h332l-489 -1055h-218l-512 1055h334l287 -590z" />
    <glyph glyph-name="w" unicode="w" horiz-adv-x="1540" 
d="M1235 1069h295l-574 -1069v0l-2 2l-184 344l-186 -346v0v2l-574 1067h295l279 -534l41 79l-244 455h295l280 -534z" />
    <glyph glyph-name="x" unicode="x" horiz-adv-x="1185" 
d="M1124 203l-202 -203l-330 328l-328 -328l-203 203l328 327l-328 330l203 203l328 -330l330 330l202 -203l-329 -330z" />
    <glyph glyph-name="y" unicode="y" horiz-adv-x="1118" 
d="M1055 1057l-416 -1104q-67 -164 -215 -259.5t-322 -92.5v286q62 -3 127 27q92 42 136 129l57 158l-361 856h316l190 -461l170 461h318z" />
    <glyph glyph-name="z" unicode="z" horiz-adv-x="1013" 
d="M467 287h485v-287h-891v287v0v0l482 481h-482v287h887v-287z" />
    <glyph glyph-name="braceleft" unicode="{" horiz-adv-x="485" 
d="M270 -276q-56 56 -110 184q-99 234 -99 557q0 325 99 571q22 57 48 105.5t39 67t19 24.5l158 -131q-41 -50 -78 -152q-80 -208 -80 -485q0 -274 76 -465q11 -26 23 -49t21 -38t16.5 -26t11.5 -17l4 -5v2z" />
    <glyph glyph-name="bar" unicode="|" 
d="M348 1178v-1424h-287v1424h287z" />
    <glyph glyph-name="braceright" unicode="}" horiz-adv-x="485" 
d="M215 1227l8 -9q8 -10 18.5 -24.5t24 -35.5t30 -51.5t30.5 -64.5q98 -232 98 -557q0 -327 -98 -571q-22 -57 -48 -105.5t-39.5 -67t-19.5 -24.5l-158 131q39 50 78 152q80 208 80 485q0 271 -78 463q-10 26 -21.5 50t-20.5 39t-16 26t-11 17l-4 5v-2z" />
    <glyph glyph-name="asciitilde" unicode="~" horiz-adv-x="1288" 
d="M1227 426l-379 -178l-399 141l-299 -141l-89 184l377 178l400 -141l301 141z" />
    <glyph glyph-name="cent" unicode="&#xa2;" horiz-adv-x="966" 
d="M713 309l190 -188q-108 -94 -250 -121v-145h-245v159q-166 50 -271 190t-104 318q0 177 105 315.5t270 186.5v162h245v-148q141 -24 252 -120l-190 -191q-31 24 -62 35v-486q26 10 60 33zM375 336q15 -15 33 -27v422q-28 -23 -31 -26q-78 -78 -78 -185q0 -105 76 -184z
" />
    <glyph glyph-name="sterling" unicode="&#xa3;" horiz-adv-x="1005" 
d="M524 287h420v-287h-868h-15v268q103 0 177 74q65 65 77 147v103h-254v246h254v43q-5 110 35 213.5t121 183.5q142 139 336 152v-269q-87 -13 -148 -74q-74 -74 -77 -176v-73h211v-246h-211v-103q-9 -109 -58 -202z" />
    <glyph glyph-name="currency" unicode="&#xa4;" horiz-adv-x="1492" 
d="M1260 766q0 -138 -70 -256l242 -242l-203 -202l-252 251q-104 -49 -215 -49q-122 0 -236 60l-262 -262l-203 202l263 264q-60 114 -60 234q0 111 49 215l-252 252l203 203l244 -244q118 72 254 72q121 0 235 -60l232 232l203 -203l-232 -232q60 -114 60 -235zM557 561
q84 -84 205 -84t205 84q86 86 86 205t-86 205q-84 84 -205 84t-205 -84q-84 -87 -84 -205t84 -205z" />
    <glyph glyph-name="yen" unicode="&#xa5;" horiz-adv-x="1452" 
d="M885 686v-84h311v-246h-311v-49h311v-246h-311v-61h-320v61h-309v246h309v49h-309v246h309v86l-534 643h420l274 -336l276 336h420z" />
    <glyph glyph-name="dieresis" unicode="&#xa8;" horiz-adv-x="976" 
d="M123 1612h287v-287h-287v287zM567 1612h287v-287h-287v287z" />
    <glyph glyph-name="copyright" unicode="&#xa9;" horiz-adv-x="1839" 
d="M963 895q-93 0 -164 -68q-68 -68 -68 -163q-3 -92 66 -164q68 -68 164 -68q79 0 139 45l168 -170q-131 -115 -310 -112q-127 0 -234 63.5t-169 172t-61 235.5q0 128 63 236t171.5 170t236.5 61q172 0 305 -117l-168 -168q-62 47 -139 47zM1739 1010q69 -163 69 -346
q0 -187 -69 -347q-67 -158 -191 -282t-282 -191q-163 -69 -346 -69q-184 0 -347 69q-158 67 -282 191t-191 282q-69 167 -69 347q0 176 69 346q69 160 191 282q129 126 282 191q170 69 347 69q176 0 346 -69q153 -65 282 -191q122 -122 191 -282zM920 0q180 0 333 89
t241.5 241.5t88.5 333.5q0 135 -52.5 258t-141 211.5t-211.5 141t-258 52.5q-181 0 -333.5 -88.5t-241.5 -241.5t-89 -333q0 -181 89 -333.5t241.5 -241.5t333.5 -89z" />
    <glyph glyph-name="guillemotleft" unicode="&#xab;" horiz-adv-x="1542" 
d="M811 999l-405 -405l405 -406l-188 -188l-592 592l592 596zM1481 999l-406 -405l404 -406l-187 -188l-592 592l590 596z" />
    <glyph glyph-name="registered" unicode="&#xae;" horiz-adv-x="1859" 
d="M1262 803q0 -76 -39 -150t-119 -112l194 -310h-206l-181 277h-100v-277h-209v869h168h25h16h141q76 0 137.5 -27.5t98 -71.5t55.5 -95t19 -103zM811 940v-272h139q43 0 80 16q22 8 39 29q33 38 33 90q0 54 -35 92q-20 23 -41 31q-35 14 -74 14h-141zM1749 1010
q70 -165 70 -346q0 -185 -70 -347q-68 -160 -190 -282q-123 -123 -283 -191q-160 -69 -346 -69q-183 0 -346 69q-162 70 -283 191q-124 128 -190 282q-70 170 -70 347q0 173 70 346q68 157 190 282q126 123 283 191q170 69 346 69q179 0 346 -69q154 -66 283 -191
q120 -120 190 -282zM930 0q180 0 333 89t241.5 241.5t88.5 333.5q0 135 -52.5 258t-141 211.5t-211.5 141t-258 52.5q-181 0 -333.5 -88.5t-241.5 -241.5t-89 -333q0 -181 89 -333.5t241.5 -241.5t333.5 -89z" />
    <glyph glyph-name="acute" unicode="&#xb4;" horiz-adv-x="507" 
d="M61 1341l236 236l149 -150l-235 -235z" />
    <glyph glyph-name="mu" unicode="&#xb5;" horiz-adv-x="1265" 
d="M907 1331h297q-1 -119 -2 -392t-2 -384q0 -103 -35 -194t-92.5 -155.5t-132 -112t-155 -70.5t-158.5 -23q-130 0 -267 70v-324h-299v1585h2h297v-815q16 -93 86 -149q41 -36 91.5 -55t89.5 -19q45 0 94 18q47 16 94 56q43 37 66 82q22 52 22 108z" />
    <glyph glyph-name="paragraph" unicode="&#xb6;" horiz-adv-x="1318" 
d="M391 1331h866v-1331h-286v1044h-297v-1044h-287v618h-2q-148 2 -250.5 106.5t-101.5 252.5q0 148 104 251t252 103h2z" />
    <glyph glyph-name="periodcentered" unicode="&#xb7;" 
d="M61 967h287v-584h-287v584z" />
    <glyph glyph-name="guillemotright" unicode="&#xbb;" horiz-adv-x="1540" 
d="M920 1186l589 -592l-589 -594l-191 186l406 408l-404 403zM250 1186l592 -592l-592 -594l-189 186l404 408l-404 403z" />
    <glyph glyph-name="Agrave" unicode="&#xc0;" horiz-adv-x="1554" 
d="M1124 0l-96 186h-502l-96 -186h-369l717 1331v0v0l715 -1331h-369zM655 436h244l-121 234zM975 1677l-152 -149l-248 246l152 149z" />
    <glyph glyph-name="Aacute" unicode="&#xc1;" horiz-adv-x="1554" 
d="M1124 0l-96 186h-502l-96 -186h-369l717 1331v0v0l715 -1331h-369zM655 436h244l-121 234zM584 1587l235 236l150 -150l-236 -235z" />
    <glyph glyph-name="Acircumflex" unicode="&#xc2;" horiz-adv-x="1554" 
d="M580 1812l149 -149l-233 -236l-150 152zM1212 1577l-149 -150l-234 236l150 149zM1124 0l-96 186h-502l-96 -186h-369l717 1331v0v0l715 -1331h-369zM655 436h244l-121 234z" />
    <glyph glyph-name="Atilde" unicode="&#xc3;" horiz-adv-x="1554" 
d="M1124 0l-96 186h-502l-96 -186h-369l717 1331v0v0l715 -1331h-369zM655 436h244l-121 234zM1151 1681l-242 -114l-258 92l-192 -92l-58 119l244 114l256 -92l195 92z" />
    <glyph glyph-name="Adieresis" unicode="&#xc4;" horiz-adv-x="1554" 
d="M412 1716h286v-286h-286v286zM856 1716h287v-286h-287v286zM1124 0l-96 186h-502l-96 -186h-369l717 1331v0v0l715 -1331h-369zM655 436h244l-121 234z" />
    <glyph glyph-name="Aring" unicode="&#xc5;" horiz-adv-x="1554" 
d="M983 948l510 -948h-369l-96 184h-502l-96 -184h-369l510 948q-46 31 -75 62q-56 56 -86 127q-31 76 -31 155q0 80 31 156q30 71 86 127t127 86q76 31 155 31q80 0 156 -31q71 -30 127 -86t86 -127q31 -76 31 -156q0 -79 -31 -155q-30 -71 -86 -127q-29 -32 -78 -62z
M778 1446q-64 0 -108.5 -44.5t-44.5 -109.5q0 -64 44.5 -108.5t108.5 -44.5q65 0 109.5 44.5t44.5 108.5t-45 109t-109 45zM655 430h244l-121 236z" />
    <glyph glyph-name="AE" unicode="&#xc6;" horiz-adv-x="2607" 
d="M1124 0l-96 186h-502l-96 -186h-369l717 1331v0v0l715 -1331h-369zM655 436h244l-121 234zM1935 522v-235h611v-287h-930v1331h930v-287h-611v-235h519v-287h-519z" />
    <glyph glyph-name="Ccedilla" unicode="&#xc7;" horiz-adv-x="1312" 
d="M985 373l205 -205q-196 -162 -445 -162q-139 0 -265.5 54.5t-218 146t-146 218t-54.5 265.5q0 186 91.5 344t249.5 250t343 92q250 0 445 -164l-205 -202q-107 80 -240 80q-163 0 -280 -117t-117 -283q0 -163 117 -280t280 -117q133 0 240 80z" />
    <glyph glyph-name="Egrave" unicode="&#xc8;" horiz-adv-x="1052" 
d="M381 522v-235h610v-287h-930v1331h930v-287h-610v-235h518v-287h-518zM831 1677l-151 -149l-248 246l152 149z" />
    <glyph glyph-name="Eacute" unicode="&#xc9;" horiz-adv-x="1052" 
d="M412 1581l235 236l150 -150l-236 -235zM381 522v-235h610v-287h-930v1331h930v-287h-610v-235h518v-287h-518z" />
    <glyph glyph-name="Ecircumflex" unicode="&#xca;" horiz-adv-x="1052" 
d="M381 522v-235h610v-287h-930v1331h930v-287h-610v-235h518v-287h-518zM817 1636l-149 -147l-144 143l-141 -141l-147 147l288 289z" />
    <glyph glyph-name="Edieresis" unicode="&#xcb;" horiz-adv-x="1052" 
d="M176 1430v286h287v-286h-287zM621 1430v286h286v-286h-286zM381 522v-235h610v-287h-930v1331h930v-287h-610v-235h518v-287h-518z" />
    <glyph glyph-name="Igrave" unicode="&#xcc;" horiz-adv-x="442" 
d="M61 1331h320v-1331h-320v1331zM420 1677l-152 -149l-248 246l152 149z" />
    <glyph glyph-name="Iacute" unicode="&#xcd;" horiz-adv-x="442" 
d="M61 1331h320v-1331h-320v1331zM29 1587l235 236l150 -150l-236 -235z" />
    <glyph glyph-name="Icircumflex" unicode="&#xce;" horiz-adv-x="442" 
d="M-205 1579l234 233l149 -149l-233 -236zM428 1812l234 -235l-150 -150l-233 236zM61 1331h320v-1331h-320v1331z" />
    <glyph glyph-name="Idieresis" unicode="&#xcf;" horiz-adv-x="442" 
d="M61 1331h320v-1331h-320v1331zM-143 1858h286v-287h-286v287zM301 1858h287v-287h-287v287z" />
    <glyph glyph-name="Eth" unicode="&#xd0;" horiz-adv-x="1503" 
d="M807 1331q181 0 334 -88.5t242.5 -242t89.5 -334.5q0 -180 -89.5 -333.5t-243 -243t-333.5 -89.5h-490h-16v563h-270v205h270v563h4h502zM1071 416q105 105 105 254q0 151 -105 256q-104 104 -254 104h-186v-258h229v-205h-229v-256h186q149 0 254 105z" />
    <glyph glyph-name="Ntilde" unicode="&#xd1;" horiz-adv-x="1161" 
d="M946 1331h320v-1331l-883 649v-649h-320v1331l883 -680v680zM954 1681l-241 -114l-258 92l-193 -92l-57 119l244 114l256 -92l194 92z" />
    <glyph glyph-name="Ograve" unicode="&#xd2;" horiz-adv-x="1433" 
d="M717 1325q186 0 344 -92t250 -250t92 -344t-92 -344t-250 -250t-344 -92t-344 92t-250 250t-92 344t92 344t250 250t344 92zM999 356q117 117 117 283t-117 283q-116 116 -282 116q-167 0 -283 -116q-117 -117 -117 -283t117 -283q119 -116 283 -116q163 0 282 116z
M918 1677l-152 -149l-248 246l152 149z" />
    <glyph glyph-name="Oacute" unicode="&#xd3;" horiz-adv-x="1433" 
d="M498 1581l235 236l150 -150l-236 -235zM717 1325q186 0 344 -92t250 -250t92 -344t-92 -344t-250 -250t-344 -92t-344 92t-250 250t-92 344t92 344t250 250t344 92zM999 356q117 117 117 283t-117 283q-116 116 -282 116q-167 0 -283 -116q-117 -117 -117 -283t117 -283
q119 -116 283 -116q163 0 282 116z" />
    <glyph glyph-name="Ocircumflex" unicode="&#xd4;" horiz-adv-x="1495" 
d="M346 1579l234 233l149 -149l-233 -236zM979 1812l233 -235l-149 -150l-234 236zM748 1325q186 0 344 -92t250 -250t92 -344t-92 -344t-250 -250t-344 -92t-344.5 92t-250.5 250t-92 344t92 344t250.5 250t344.5 92zM1030 356q117 117 117 283t-117 283q-116 116 -282 116
q-167 0 -283 -116q-117 -117 -117 -283t117 -283q119 -116 283 -116q163 0 282 116z" />
    <glyph glyph-name="Otilde" unicode="&#xd5;" horiz-adv-x="1495" 
d="M1118 1544l-241 -114l-259 92l-192 -92l-57 118l243 115l256 -90l195 90zM748 1325q186 0 344 -92t250 -250t92 -344t-92 -344t-250 -250t-344 -92t-344.5 92t-250.5 250t-92 344t92 344t250.5 250t344.5 92zM1030 356q117 117 117 283t-117 283q-116 116 -282 116
q-167 0 -283 -116q-117 -117 -117 -283t117 -283q119 -116 283 -116q163 0 282 116z" />
    <glyph glyph-name="Odieresis" unicode="&#xd6;" horiz-adv-x="1495" 
d="M406 1430v286h286v-286h-286zM850 1430v286h287v-286h-287zM748 1325q186 0 344 -92t250 -250t92 -344t-92 -344t-250 -250t-344 -92t-344.5 92t-250.5 250t-92 344t92 344t250.5 250t344.5 92zM1030 356q117 117 117 283t-117 283q-116 116 -282 116q-167 0 -283 -116
q-117 -117 -117 -283t117 -283q119 -116 283 -116q163 0 282 116z" />
    <glyph glyph-name="multiply" unicode="&#xd7;" horiz-adv-x="1071" 
d="M1010 342l-203 -203l-272 273l-271 -273l-203 203l271 272l-271 271l203 202l271 -270l272 270l203 -202l-273 -271z" />
    <glyph glyph-name="Oslash" unicode="&#xd8;" horiz-adv-x="1138" 
d="M856 1130q110 -72 175 -188.5t65 -251.5q1 -143 -69 -264.5t-191.5 -192.5t-264.5 -71h-18l-49 -160h-299l76 244q-109 72 -174 188t-66 252q0 143 70 264.5t190.5 192.5t263.5 71h21l49 160h299zM309 686q0 -92 60 -164l129 416q-67 -19 -113 -68q-76 -76 -76 -184z
M754 506q75 75 75 184q0 93 -59 164l-129 -416q64 19 113 68z" />
    <glyph glyph-name="Ugrave" unicode="&#xd9;" horiz-adv-x="1261" 
d="M903 1331h297v-768q0 -128 -52.5 -237t-136.5 -178.5t-184 -108.5t-198 -39q-73 0 -150.5 22t-152.5 69.5t-134 112.5t-95 159.5t-36 203.5v764h297v-764q0 -123 88 -196q41 -36 92.5 -55t90.5 -19q36 0 92 18q59 23 96 58q46 43 64 82q22 45 22 108v768zM831 1677
l-151 -149l-248 246l152 149z" />
    <glyph glyph-name="Uacute" unicode="&#xda;" horiz-adv-x="1261" 
d="M903 1331h297v-768q0 -128 -52.5 -237t-136.5 -178.5t-184 -108.5t-198 -39q-73 0 -150.5 22t-152.5 69.5t-134 112.5t-95 159.5t-36 203.5v764h297v-764q0 -123 88 -196q41 -36 92.5 -55t90.5 -19q36 0 92 18q59 23 96 58q46 43 64 82q22 45 22 108v768zM438 1587
l236 236l149 -150l-235 -235z" />
    <glyph glyph-name="Ucircumflex" unicode="&#xdb;" horiz-adv-x="1261" 
d="M903 1331h297v-768q0 -128 -52.5 -237t-136.5 -178.5t-184 -108.5t-198 -39q-73 0 -150.5 22t-152.5 69.5t-134 112.5t-95 159.5t-36 203.5v764h297v-764q0 -123 88 -196q41 -36 92.5 -55t90.5 -19q36 0 92 18q59 23 96 58q46 43 64 82q22 45 22 108v768zM922 1587
l-150 -147l-143 143l-142 -141l-147 147l289 289z" />
    <glyph glyph-name="Udieresis" unicode="&#xdc;" horiz-adv-x="1261" 
d="M283 1430v286h286v-286h-286zM727 1430v286h287v-286h-287zM903 1331h297v-768q0 -128 -52.5 -237t-136.5 -178.5t-184 -108.5t-198 -39q-73 0 -150.5 22t-152.5 69.5t-134 112.5t-95 159.5t-36 203.5v764h297v-764q0 -123 88 -196q41 -36 92.5 -55t90.5 -19q36 0 92 18
q59 23 96 58q46 43 64 82q22 45 22 108v768z" />
    <glyph glyph-name="Yacute" unicode="&#xdd;" horiz-adv-x="1513" 
d="M1452 1331l-537 -643v-688h-319v688l-535 643h420l277 -334l274 334h420zM563 1587l236 236l149 -150l-235 -235z" />
    <glyph glyph-name="germandbls" unicode="&#xdf;" horiz-adv-x="1228" 
d="M1004 745q7 -3 18 -9.5t39 -35t49.5 -65t39 -104t17.5 -148.5q0 -72 -21 -132t-55 -98.5t-74.5 -68t-81.5 -45t-75 -25t-55 -12.5l-21 -2h-227v244h213q61 0 104.5 43.5t43.5 105.5q0 61 -43 104.5t-105 43.5h-213v245h109q62 0 105.5 43.5t43.5 104.5q0 62 -43.5 105.5
t-105.5 43.5h-285v-297v-245v-297v-244h-320v1331h617q6 0 17 -0.5t44 -5.5t64.5 -14t72 -28.5t73.5 -46t62.5 -69.5t45.5 -96q15 -52 15.5 -105t-10.5 -91t-23.5 -68.5t-23.5 -46.5z" />
    <glyph glyph-name="agrave" unicode="&#xe0;" horiz-adv-x="1167" 
d="M819 1059h287v-1059h-287v119q-45 -58 -116.5 -86.5t-149.5 -28.5q-218 -1 -373 152.5t-157 371.5q-1 218 152.5 373.5t371.5 157.5q79 0 153 -30t119 -87v117zM733 348q76 76 76 184q0 110 -78 185q-77 77 -182 74q-108 0 -184 -76t-76 -185q0 -106 78 -184
q76 -76 184 -76q110 3 182 78zM784 1432l-151 -150l-248 246l152 149z" />
    <glyph glyph-name="aacute" unicode="&#xe1;" horiz-adv-x="1167" 
d="M819 1059h287v-1059h-287v119q-45 -58 -116.5 -86.5t-149.5 -28.5q-218 -1 -373 152.5t-157 371.5q-1 218 152.5 373.5t371.5 157.5q79 0 153 -30t119 -87v117zM733 348q76 76 76 184q0 110 -78 185q-77 77 -182 74q-108 0 -184 -76t-76 -185q0 -106 78 -184
q76 -76 184 -76q110 3 182 78zM391 1341l236 236l149 -150l-235 -235z" />
    <glyph glyph-name="acircumflex" unicode="&#xe2;" horiz-adv-x="1167" 
d="M881 1333l-150 -147l-143 141l-139 -139l-150 147l289 289zM819 1059h287v-1059h-287v119q-45 -58 -116.5 -86.5t-149.5 -28.5q-218 -1 -373 152.5t-157 371.5q-1 218 152.5 373.5t371.5 157.5q79 0 153 -30t119 -87v117zM733 348q76 76 76 184q0 110 -78 185
q-77 77 -182 74q-108 0 -184 -76t-76 -185q0 -106 78 -184q76 -76 184 -76q110 3 182 78z" />
    <glyph glyph-name="atilde" unicode="&#xe3;" horiz-adv-x="1167" 
d="M819 1059h287v-1059h-287v119q-45 -58 -116.5 -86.5t-149.5 -28.5q-218 -1 -373 152.5t-157 371.5q-1 218 152.5 373.5t371.5 157.5q79 0 153 -30t119 -87v117zM733 348q76 76 76 184q0 110 -78 185q-77 77 -182 74q-108 0 -184 -76t-76 -185q0 -106 78 -184
q76 -76 184 -76q110 3 182 78zM958 1436l-241 -115l-258 92l-193 -92l-57 119l244 114l256 -92l194 92z" />
    <glyph glyph-name="adieresis" unicode="&#xe4;" horiz-adv-x="1167" 
d="M289 1182v286h286v-286h-286zM733 1182v286h287v-286h-287zM819 1059h287v-1059h-287v119q-45 -58 -116.5 -86.5t-149.5 -28.5q-218 -1 -373 152.5t-157 371.5q-1 218 152.5 373.5t371.5 157.5q79 0 153 -30t119 -87v117zM733 348q76 76 76 184q0 110 -78 185
q-77 77 -182 74q-108 0 -184 -76t-76 -185q0 -106 78 -184q76 -76 184 -76q110 3 182 78z" />
    <glyph glyph-name="ccedilla" unicode="&#xe7;" horiz-adv-x="999" 
d="M745 313l191 -190q-124 -103 -270 -123l77 -170h-145l-78 170q-195 25 -326.5 174.5t-130.5 349.5q2 218 157.5 372t373.5 153q196 0 344 -129l-190 -191q-68 53 -156 53q-109 0 -184 -75q-76 -76 -76 -183q-3 -107 74 -184q75 -78 184 -78q89 0 155 51z" />
    <glyph glyph-name="egrave" unicode="&#xe8;" horiz-adv-x="1120" 
d="M1087 530q0 -3 0.5 -27.5t0.5 -45.5t-1 -27l-770 2q10 -29 22.5 -47t37.5 -43q79 -76 184 -76q109 3 184 78q1 1 4.5 4t4.5 4l266 -84q-89 -137 -191.5 -202t-265.5 -66q-218 -1 -373 152.5t-157 371.5q-1 218 152.5 373.5t371.5 157.5q218 1 373 -153t157 -372zM559 786
q-109 0 -184 -75q-41 -44 -56 -86h482q-15 42 -58 88q-76 73 -184 73zM760 1432l-152 -150l-248 246l152 149z" />
    <glyph glyph-name="eacute" unicode="&#xe9;" horiz-adv-x="1120" 
d="M352 1341l236 236l149 -150l-235 -235zM1087 530q0 -3 0.5 -27.5t0.5 -45.5t-1 -27l-770 2q10 -29 22.5 -47t37.5 -43q79 -76 184 -76q109 3 184 78q1 1 4.5 4t4.5 4l266 -84q-89 -137 -191.5 -202t-265.5 -66q-218 -1 -373 152.5t-157 371.5q-1 218 152.5 373.5
t371.5 157.5q218 1 373 -153t157 -372zM559 786q-109 0 -184 -75q-41 -44 -56 -86h482q-15 42 -58 88q-76 73 -184 73z" />
    <glyph glyph-name="ecircumflex" unicode="&#xea;" horiz-adv-x="1120" 
d="M1087 530q0 -3 0.5 -27.5t0.5 -45.5t-1 -27l-770 2q10 -29 22.5 -47t37.5 -43q79 -76 184 -76q109 3 184 78q1 1 4.5 4t4.5 4l266 -84q-89 -137 -191.5 -202t-265.5 -66q-218 -1 -373 152.5t-157 371.5q-1 218 152.5 373.5t371.5 157.5q218 1 373 -153t157 -372zM559 786
q-109 0 -184 -75q-41 -44 -56 -86h482q-15 42 -58 88q-76 73 -184 73zM850 1288l-150 -147l-143 143l-141 -141l-148 147l289 289z" />
    <glyph glyph-name="edieresis" unicode="&#xeb;" horiz-adv-x="1120" 
d="M201 1182v286h286v-286h-286zM645 1182v286h287v-286h-287zM1087 530q0 -3 0.5 -27.5t0.5 -45.5t-1 -27l-770 2q10 -29 22.5 -47t37.5 -43q79 -76 184 -76q109 3 184 78q1 1 4.5 4t4.5 4l266 -84q-89 -137 -191.5 -202t-265.5 -66q-218 -1 -373 152.5t-157 371.5
q-1 218 152.5 373.5t371.5 157.5q218 1 373 -153t157 -372zM559 786q-109 0 -184 -75q-41 -44 -56 -86h482q-15 42 -58 88q-76 73 -184 73z" />
    <glyph glyph-name="igrave" unicode="&#xec;" 
d="M348 1053v-1053h-287v1053h287zM406 1323l-152 -149l-248 245l152 150z" />
    <glyph glyph-name="iacute" unicode="&#xed;" 
d="M348 1055v-1055h-287v1055h287zM16 1341l236 236l149 -150l-235 -235z" />
    <glyph glyph-name="icircumflex" unicode="&#xee;" horiz-adv-x="704" 
d="M487 1055v-1055h-286v1055h286zM643 1333l-149 -147l-144 141l-139 -139l-150 147l289 289z" />
    <glyph glyph-name="idieresis" unicode="&#xef;" horiz-adv-x="792" 
d="M539 1053v-1053h-287v1053h287zM31 1456h286v-287h-286v287zM475 1456h287v-287h-287v287z" />
    <glyph glyph-name="eth" unicode="&#xf0;" horiz-adv-x="1005" 
 />
    <glyph glyph-name="ntilde" unicode="&#xf1;" horiz-adv-x="1157" 
d="M596 1051q109 9 205 -21.5t168.5 -95.5t114.5 -170.5t42 -237.5v-24v-502h-266v66v454h-2v4q0 109 -76 185q-75 75 -184 75q-110 -3 -184 -77q-77 -77 -74 -185v-2h-2v-520h-287v1059h287v-137q59 70 118 96t140 33zM952 1436l-241 -115l-258 92l-193 -92l-57 119
l243 114l256 -92l195 92z" />
    <glyph glyph-name="ograve" unicode="&#xf2;" horiz-adv-x="1179" 
d="M588 1055q143 1 264.5 -69t192.5 -191.5t71 -264.5q1 -143 -68.5 -265t-190 -193t-263.5 -72q-144 -1 -266.5 69t-193.5 191t-71 264q-1 143 68.5 265t191 193.5t265.5 72.5zM774 344q76 76 76 184q0 107 -78 185q-76 73 -184 73q-107 0 -182 -75q-76 -79 -76 -185
t78 -184q76 -76 184 -76q110 3 182 78zM791 1432l-152 -150l-248 246l152 149z" />
    <glyph glyph-name="oacute" unicode="&#xf3;" horiz-adv-x="1179" 
d="M381 1341l235 236l150 -150l-236 -235zM588 1055q143 1 264.5 -69t192.5 -191.5t71 -264.5q1 -143 -68.5 -265t-190 -193t-263.5 -72q-144 -1 -266.5 69t-193.5 191t-71 264q-1 143 68.5 265t191 193.5t265.5 72.5zM774 344q76 76 76 184q0 107 -78 185q-76 73 -184 73
q-107 0 -182 -75q-76 -79 -76 -185t78 -184q76 -76 184 -76q110 3 182 78z" />
    <glyph glyph-name="ocircumflex" unicode="&#xf4;" horiz-adv-x="1179" 
d="M889 1333l-150 -147l-143 141l-139 -139l-150 147l289 289zM588 1055q143 1 264.5 -69t192.5 -191.5t71 -264.5q1 -143 -68.5 -265t-190 -193t-263.5 -72q-144 -1 -266.5 69t-193.5 191t-71 264q-1 143 68.5 265t191 193.5t265.5 72.5zM774 344q76 76 76 184
q0 107 -78 185q-76 73 -184 73q-107 0 -182 -75q-76 -79 -76 -185t78 -184q76 -76 184 -76q110 3 182 78z" />
    <glyph glyph-name="otilde" unicode="&#xf5;" horiz-adv-x="1179" 
d="M264 1430h647v-246h-647v246zM588 1055q143 1 264.5 -69t192.5 -191.5t71 -264.5q1 -143 -68.5 -265t-190 -193t-263.5 -72q-144 -1 -266.5 69t-193.5 191t-71 264q-1 143 68.5 265t191 193.5t265.5 72.5zM774 344q76 76 76 184q0 107 -78 185q-76 73 -184 73
q-107 0 -182 -75q-76 -79 -76 -185t78 -184q76 -76 184 -76q110 3 182 78z" />
    <glyph glyph-name="odieresis" unicode="&#xf6;" horiz-adv-x="1179" 
d="M244 1182v286h286v-286h-286zM688 1182v286h287v-286h-287zM588 1055q143 1 264.5 -69t192.5 -191.5t71 -264.5q1 -143 -68.5 -265t-190 -193t-263.5 -72q-144 -1 -266.5 69t-193.5 191t-71 264q-1 143 68.5 265t191 193.5t265.5 72.5zM774 344q76 76 76 184
q0 107 -78 185q-76 73 -184 73q-107 0 -182 -75q-76 -79 -76 -185t78 -184q76 -76 184 -76q110 3 182 78z" />
    <glyph glyph-name="divide" unicode="&#xf7;" horiz-adv-x="931" 
d="M870 700v-180h-809v180h809zM322 377h286v-287h-286v287zM322 1133h286v-287h-286v287z" />
    <glyph glyph-name="oslash" unicode="&#xf8;" horiz-adv-x="1138" 
d="M856 1130q110 -72 175 -188.5t65 -251.5q1 -143 -69 -264.5t-191.5 -192.5t-264.5 -71h-18l-49 -160h-299l76 244q-109 72 -174 188t-66 252q0 143 70 264.5t190.5 192.5t263.5 71h21l49 160h299zM309 686q0 -92 60 -164l129 416q-67 -19 -113 -68q-76 -76 -76 -184z
M754 506q75 75 75 184q0 93 -59 164l-129 -416q64 19 113 68z" />
    <glyph glyph-name="ugrave" unicode="&#xf9;" horiz-adv-x="1155" 
d="M61 506v553h267v0v-529v-4q0 -24 6 -54t23 -67t42.5 -66.5t69 -50t98.5 -20.5q60 0 105.5 21t70.5 50t40 67.5t19.5 67t4.5 54.5v2v529h287v-1059h-287v111q-101 -111 -258 -111q-133 -1 -245 65t-177.5 183t-65.5 258zM778 1432l-151 -150l-248 246l151 149z" />
    <glyph glyph-name="uacute" unicode="&#xfa;" horiz-adv-x="1155" 
d="M61 506v553h267v0v-529v-4q0 -24 6 -54t23 -67t42.5 -66.5t69 -50t98.5 -20.5q60 0 105.5 21t70.5 50t40 67.5t19.5 67t4.5 54.5v2v529h287v-1059h-287v111q-101 -111 -258 -111q-133 -1 -245 65t-177.5 183t-65.5 258zM385 1341l236 236l149 -150l-235 -235z" />
    <glyph glyph-name="ucircumflex" unicode="&#xfb;" horiz-adv-x="1155" 
d="M61 506v553h267v0v-529v-4q0 -24 6 -54t23 -67t42.5 -66.5t69 -50t98.5 -20.5q60 0 105.5 21t70.5 50t40 67.5t19.5 67t4.5 54.5v2v529h287v-1059h-287v111q-101 -111 -258 -111q-133 -1 -245 65t-177.5 183t-65.5 258z" />
    <glyph glyph-name="udieresis" unicode="&#xfc;" horiz-adv-x="1155" 
d="M215 1182v286h287v-286h-287zM659 1182v286h287v-286h-287zM61 506v553h267v0v-529v-4q0 -24 6 -54t23 -67t42.5 -66.5t69 -50t98.5 -20.5q60 0 105.5 21t70.5 50t40 67.5t19.5 67t4.5 54.5v2v529h287v-1059h-287v111q-101 -111 -258 -111q-133 -1 -245 65t-177.5 183
t-65.5 258z" />
    <glyph glyph-name="yacute" unicode="&#xfd;" horiz-adv-x="1116" 
d="M1055 1057l-416 -1104q-67 -164 -215 -259.5t-322 -92.5v286q62 -3 127 27q92 42 136 129l57 158l-361 856h316l190 -461l170 461h318zM365 1341l235 236l150 -150l-236 -235z" />
    <glyph glyph-name="ydieresis" unicode="&#xff;" horiz-adv-x="1116" 
d="M1055 1057l-416 -1104q-67 -164 -215 -259.5t-322 -92.5v286q62 -3 127 27q92 42 136 129l57 158l-361 856h316l190 -461l170 461h318zM193 1612h286v-287h-286v287zM637 1612h287v-287h-287v287z" />
    <glyph glyph-name="Amacron" unicode="&#x100;" horiz-adv-x="1554" 
d="M1094 1675v-245h-648v245h648zM1124 0l-96 186h-502l-96 -186h-369l717 1331v0v0l715 -1331h-369zM655 436h244l-121 234z" />
    <glyph glyph-name="amacron" unicode="&#x101;" horiz-adv-x="1167" 
d="M459 1432h647v-246h-647v246zM819 1059h287v-1059h-287v119q-45 -58 -116.5 -86.5t-149.5 -28.5q-218 -1 -373 152.5t-157 371.5q-1 218 152.5 373.5t371.5 157.5q79 0 153 -30t119 -87v117zM733 348q76 76 76 184q0 110 -78 185q-77 77 -182 74q-108 0 -184 -76
t-76 -185q0 -106 78 -184q76 -76 184 -76q110 3 182 78z" />
    <glyph glyph-name="Abreve" unicode="&#x102;" horiz-adv-x="1554" 
d="M1124 0l-96 186h-502l-96 -186h-369l717 1331v0v0l715 -1331h-369zM655 436h244l-121 234zM770 1511q-186 0 -305 97q-67 56 -88 108l149 66l-2 2q3 -5 8.5 -13t25 -26.5t45 -32.5t70 -25.5t97.5 -11.5q128 0 211 62q15 11 27 24t17 20l5 7l146 -78l-6 -9q-6 -9 -13 -18
t-18 -22t-26.5 -27.5t-33.5 -27.5q-126 -95 -309 -95z" />
    <glyph glyph-name="abreve" unicode="&#x103;" horiz-adv-x="1167" 
d="M819 1059h287v-1059h-287v119q-45 -58 -116.5 -86.5t-149.5 -28.5q-218 -1 -373 152.5t-157 371.5q-1 218 152.5 373.5t371.5 157.5q79 0 153 -30t119 -87v117zM733 348q76 76 76 184q0 110 -78 185q-77 77 -182 74q-108 0 -184 -76t-76 -185q0 -106 78 -184
q76 -76 184 -76q110 3 182 78zM578 1266q-189 0 -306 96q-67 56 -88 108l150 66l-2 2q2 -5 8 -13t25.5 -26t45 -32.5t70 -25.5t97.5 -11q128 0 210 61q15 11 27.5 24t17.5 20l5 7l145 -78l-5 -9q-6 -9 -13.5 -18t-18 -22t-26 -27.5t-33.5 -27.5q-125 -94 -309 -94z" />
    <glyph glyph-name="Aogonek" unicode="&#x104;" horiz-adv-x="1554" 
d="M1266 0h-140l78 -174h-145l-80 174v184h-453l-96 -184h-369l717 1331v0v-2l715 -1329h-227zM655 430h244l-121 236z" />
    <glyph glyph-name="aogonek" unicode="&#x105;" horiz-adv-x="1208" 
d="M860 1053h287v-770v-287v-2h-139l77 -172h-145l-80 172v2v119q-44 -59 -115.5 -87t-150.5 -28q-143 -1 -265 68.5t-193.5 190t-72.5 263.5q-1 108 40.5 206.5t112 169.5t168 113t204.5 42q78 2 152 -28t120 -87v115zM774 344q76 76 76 184t-78 183q-75 75 -182 75
t-184 -77q-76 -76 -76 -185q0 -107 78 -182q76 -76 184 -76q107 0 182 78z" />
    <glyph glyph-name="Cacute" unicode="&#x106;" horiz-adv-x="1312" 
d="M719 1817l149 -150l-235 -235l-150 149zM985 373l205 -205q-196 -162 -445 -162q-139 0 -265.5 54.5t-218 146t-146 218t-54.5 265.5q0 186 91.5 344t249.5 250t343 92q250 0 445 -164l-205 -202q-107 80 -240 80q-163 0 -280 -117t-117 -283q0 -163 117 -280t280 -117
q133 0 240 80z" />
    <glyph glyph-name="cacute" unicode="&#x107;" horiz-adv-x="937" 
d="M352 1341l236 236l149 -150l-235 -235zM715 317l190 -190q-149 -127 -348 -127q-218 2 -371.5 157t-152.5 373q2 218 157 372t373 153q197 -3 344 -131l-190 -189q-70 51 -156 51q-108 0 -184 -73q-76 -76 -76 -185q-3 -107 74 -184q75 -75 184 -78q86 0 156 51z" />
    <glyph glyph-name="Ccircumflex" unicode="&#x108;" horiz-adv-x="1312" 
d="M985 373l205 -205q-196 -162 -445 -162q-139 0 -265.5 54.5t-218 146t-146 218t-54.5 265.5q0 186 91.5 344t249.5 250t343 92q250 0 445 -164l-205 -202q-107 80 -240 80q-163 0 -280 -117t-117 -283q0 -163 117 -280t280 -117q133 0 240 80zM946 1589l-149 -147
l-144 143l-141 -141l-147 147l288 289z" />
    <glyph glyph-name="ccircumflex" unicode="&#x109;" horiz-adv-x="937" 
d="M715 317l190 -190q-149 -127 -348 -127q-218 2 -371.5 157t-152.5 373q2 218 157 372t373 153q197 -3 344 -131l-190 -189q-70 51 -156 51q-108 0 -184 -73q-76 -76 -76 -185q-3 -107 74 -184q75 -75 184 -78q86 0 156 51zM760 1284l-150 -147l-143 143l-141 -141
l-148 147l289 289z" />
    <glyph glyph-name="Cdotaccent" unicode="&#x10a;" horiz-adv-x="1312" 
d="M985 373l205 -205q-196 -162 -445 -162q-139 0 -265.5 54.5t-218 146t-146 218t-54.5 265.5q0 186 91.5 344t249.5 250t343 92q250 0 445 -164l-205 -202q-107 80 -240 80q-163 0 -280 -117t-117 -283q0 -163 117 -280t280 -117q133 0 240 80zM799 1755v-287h-287v287
h287z" />
    <glyph glyph-name="cdotaccent" unicode="&#x10b;" horiz-adv-x="937" 
d="M715 317l190 -190q-149 -127 -348 -127q-218 2 -371.5 157t-152.5 373q2 218 157 372t373 153q197 -3 344 -131l-190 -189q-70 51 -156 51q-108 0 -184 -73q-76 -76 -76 -185q-3 -107 74 -184q75 -75 184 -78q86 0 156 51zM612 1376v-286h-286v286h286z" />
    <glyph glyph-name="Ccaron" unicode="&#x10c;" horiz-adv-x="1312" 
d="M985 373l205 -205q-196 -162 -445 -162q-139 0 -265.5 54.5t-218 146t-146 218t-54.5 265.5q0 186 91.5 344t249.5 250t343 92q250 0 445 -164l-205 -202q-107 80 -240 80q-163 0 -280 -117t-117 -283q0 -163 117 -280t280 -117q133 0 240 80zM440 1722l150 148l143 -144
l141 142l148 -148l-289 -288z" />
    <glyph glyph-name="ccaron" unicode="&#x10d;" horiz-adv-x="937" 
d="M715 317l190 -190q-149 -127 -348 -127q-218 2 -371.5 157t-152.5 373q2 218 157 372t373 153q197 -3 344 -131l-190 -189q-70 51 -156 51q-108 0 -184 -73q-76 -76 -76 -185q-3 -107 74 -184q75 -75 184 -78q86 0 156 51zM178 1407l150 147l143 -143l141 141l148 -147
l-289 -289z" />
    <glyph glyph-name="Dcaron" unicode="&#x10e;" horiz-adv-x="1294" 
d="M567 1323q181 0 334 -89t242.5 -242.5t89.5 -334.5q0 -180 -89.5 -333.5t-242.5 -242.5t-334 -89h-489h-17v1331h5h501zM821 403q105 105 105 254q0 148 -105 256q-105 105 -256 105h-184v-719h186q150 0 254 104zM356 1868l150 147l143 -143l142 141l147 -147l-289 -289
z" />
    <glyph glyph-name="dcaron" unicode="&#x10f;" horiz-adv-x="1644" 
d="M1174 0h-287v121q-147 -121 -334 -121q-218 -1 -373 152.5t-157 371.5q-1 218 152.5 373.5t371.5 157.5q192 0 338 -121v496h286zM735 344q76 76 76 184q-3 110 -78 185q-76 73 -184 73q-109 0 -184 -75q-77 -83 -74 -185q0 -108 76 -184t184 -76q109 3 184 78z
M1296 1143v287h287v-287l-80 -174h-145l78 174h-140z" />
    <glyph glyph-name="Dcroat" unicode="&#x110;" horiz-adv-x="1529" 
d="M803 1333q135 0 258 -52.5t212.5 -142t142 -212.5t52.5 -258q0 -181 -89 -334.5t-242 -243t-334 -90.5h-490h-16v592h-236v192h236v547h4v2h502zM1057 412q104 104 104 256q0 150 -104 254t-254 104h-187v-242h213v-192h-213v-285h187q149 0 254 105z" />
    <glyph glyph-name="dcroat" unicode="&#x111;" horiz-adv-x="1234" 
d="M1174 0h-287v121q-147 -121 -334 -121q-218 -1 -373 152.5t-157 371.5q-1 218 152.5 373.5t371.5 157.5q192 0 338 -121v496h286zM735 344q76 76 76 184q-3 110 -78 185q-76 73 -184 73q-109 0 -184 -75q-77 -83 -74 -185q0 -108 76 -184t184 -76q109 3 184 78z" />
    <glyph glyph-name="Emacron" unicode="&#x112;" horiz-adv-x="1052" 
d="M858 1677v-245h-647v245h647zM381 522v-235h610v-287h-930v1331h930v-287h-610v-235h518v-287h-518z" />
    <glyph glyph-name="emacron" unicode="&#x113;" horiz-adv-x="1120" 
d="M238 1430h647v-246h-647v246zM1087 530q0 -3 0.5 -27.5t0.5 -45.5t-1 -27l-770 2q10 -29 22.5 -47t37.5 -43q79 -76 184 -76q109 3 184 78q1 1 4.5 4t4.5 4l266 -84q-89 -137 -191.5 -202t-265.5 -66q-218 -1 -373 152.5t-157 371.5q-1 218 152.5 373.5t371.5 157.5
q218 1 373 -153t157 -372zM559 786q-109 0 -184 -75q-41 -44 -56 -86h482q-15 42 -58 88q-76 73 -184 73z" />
    <glyph glyph-name="Ebreve" unicode="&#x114;" horiz-adv-x="1052" 
d="M381 522v-235h610v-287h-930v1331h930v-287h-610v-235h518v-287h-518zM520 1511q-186 0 -305 97q-67 56 -88 108l149 66l-2 2q3 -5 8.5 -13t25 -26.5t45 -32.5t70 -25.5t97.5 -11.5q128 0 211 62q15 11 27 24t17 20l5 7l146 -78l-6 -9q-6 -9 -13 -18t-18 -22t-26.5 -27.5
t-33.5 -27.5q-126 -95 -309 -95z" />
    <glyph glyph-name="ebreve" unicode="&#x115;" horiz-adv-x="1120" 
d="M1087 530q0 -3 0.5 -27.5t0.5 -45.5t-1 -27l-770 2q10 -29 22.5 -47t37.5 -43q79 -76 184 -76q109 3 184 78q1 1 4.5 4t4.5 4l266 -84q-89 -137 -191.5 -202t-265.5 -66q-218 -1 -373 152.5t-157 371.5q-1 218 152.5 373.5t371.5 157.5q218 1 373 -153t157 -372zM559 786
q-109 0 -184 -75q-41 -44 -56 -86h482q-15 42 -58 88q-76 73 -184 73zM553 1266q-188 0 -305 96q-67 56 -88 108l149 66l-2 2q2 -5 8 -13t25.5 -26t45 -32.5t70 -25.5t97.5 -11q129 0 211 61q15 11 27 24t17 20l5 7l145 -78l-6 -9q-5 -9 -12.5 -18t-18 -22t-26 -27.5
t-33.5 -27.5q-125 -94 -309 -94z" />
    <glyph glyph-name="Edotaccent" unicode="&#x116;" horiz-adv-x="1052" 
d="M674 1430h-287v286h287v-286zM381 522v-235h610v-287h-930v1331h930v-287h-610v-235h518v-287h-518z" />
    <glyph glyph-name="edotaccent" unicode="&#x117;" horiz-adv-x="1120" 
d="M352 1341l236 236l149 -150l-235 -235zM1087 530q0 -3 0.5 -27.5t0.5 -45.5t-1 -27l-770 2q10 -29 22.5 -47t37.5 -43q79 -76 184 -76q109 3 184 78q1 1 4.5 4t4.5 4l266 -84q-89 -137 -191.5 -202t-265.5 -66q-218 -1 -373 152.5t-157 371.5q-1 218 152.5 373.5
t371.5 157.5q218 1 373 -153t157 -372zM559 786q-109 0 -184 -75q-41 -44 -56 -86h482q-15 42 -58 88q-76 73 -184 73z" />
    <glyph glyph-name="eogonek" unicode="&#x119;" horiz-adv-x="1181" 
d="M1118 526q0 -2 0.5 -26t0.5 -45t-1 -27h-770q10 -28 22 -45t38 -43q79 -76 184 -76q109 0 184 78l8 8l267 -84q-79 -122 -166.5 -187t-216.5 -79l75 -164h-145l-76 166q-128 16 -232.5 88.5t-165 185.5t-61.5 244q-1 219 152.5 374t372.5 157q218 1 373 -153t157 -372z
M350 623h481q-18 47 -57 86q-75 75 -184 75q-107 0 -184 -77q-41 -44 -56 -84z" />
    <glyph glyph-name="Ecaron" unicode="&#x11a;" horiz-adv-x="1052" 
d="M381 522v-235h610v-287h-930v1331h930v-287h-610v-235h518v-287h-518zM256 1722l150 148l143 -144l141 142l148 -148l-289 -288z" />
    <glyph glyph-name="ecaron" unicode="&#x11b;" horiz-adv-x="1120" 
d="M1087 530q0 -3 0.5 -27.5t0.5 -45.5t-1 -27l-770 2q10 -29 22.5 -47t37.5 -43q79 -76 184 -76q109 3 184 78q1 1 4.5 4t4.5 4l266 -84q-89 -137 -191.5 -202t-265.5 -66q-218 -1 -373 152.5t-157 371.5q-1 218 152.5 373.5t371.5 157.5q218 1 373 -153t157 -372zM559 786
q-109 0 -184 -75q-41 -44 -56 -86h482q-15 42 -58 88q-76 73 -184 73zM299 1407l150 147l143 -143l141 141l148 -147l-289 -289z" />
    <glyph glyph-name="Gcircumflex" unicode="&#x11c;" horiz-adv-x="1474" 
d="M1147 772h266v-772h-266v106q-178 -126 -399 -126q-186 0 -344.5 92t-250.5 250t-92 344t92 344t250.5 250t344.5 92q251 0 446 -164l-205 -203q-110 80 -241 80q-167 0 -281 -117q-119 -119 -119 -282q0 -164 119 -283q117 -117 281 -117q162 0 282 117q73 73 92 123
h-307v266h332zM1145 506l2 -2v2h-2zM1028 1585l-149 -147l-144 143l-141 -141l-148 147l289 289z" />
    <glyph glyph-name="gcircumflex" unicode="&#x11d;" horiz-adv-x="1177" 
d="M848 1057h268v-1055q0 -106 -41 -203.5t-111 -167.5t-167 -112t-203 -43q-100 -1 -192 34.5t-161.5 97.5t-115.5 148t-57 183h270q15 -66 70 -121q76 -76 184 -76q107 0 182 78q76 76 76 182l-2 104q-47 -47 -116 -75.5t-138 -28.5q-144 -1 -266.5 69t-193.5 191t-71 264
q-1 143 68.5 265t191 193.5t265.5 72.5q174 0 260 -109v109zM848 498v61q-9 89 -76 156q-76 73 -184 73q-107 0 -182 -75q-76 -79 -76 -185t78 -184q76 -76 184 -76q110 3 182 78q65 65 74 152zM879 1262l-150 -148l-143 143l-142 -141l-147 148l289 288z" />
    <glyph glyph-name="Gbreve" unicode="&#x11e;" horiz-adv-x="1474" 
d="M1147 772h266v-772h-266v106q-178 -126 -399 -126q-186 0 -344.5 92t-250.5 250t-92 344t92 344t250.5 250t344.5 92q251 0 446 -164l-205 -203q-110 80 -241 80q-167 0 -281 -117q-119 -119 -119 -282q0 -164 119 -283q117 -117 281 -117q162 0 282 117q73 73 92 123
h-307v266h332zM1145 506l2 -2v2h-2zM731 1511q-186 0 -305 97q-67 56 -88 108l149 66l-2 2q3 -5 8.5 -13t25 -26.5t45 -32.5t70 -25.5t97.5 -11.5q128 0 211 62q15 11 27 24t17 20l5 7l146 -78l-6 -9q-6 -9 -13 -18t-18 -22t-26.5 -27.5t-33.5 -27.5q-126 -95 -309 -95z" />
    <glyph glyph-name="gbreve" unicode="&#x11f;" horiz-adv-x="1177" 
d="M848 1057h268v-1055q0 -106 -41 -203.5t-111 -167.5t-167 -112t-203 -43q-100 -1 -192 34.5t-161.5 97.5t-115.5 148t-57 183h270q15 -66 70 -121q76 -76 184 -76q107 0 182 78q76 76 76 182l-2 104q-47 -47 -116 -75.5t-138 -28.5q-144 -1 -266.5 69t-193.5 191t-71 264
q-1 143 68.5 265t191 193.5t265.5 72.5q174 0 260 -109v109zM848 498v61q-9 89 -76 156q-76 73 -184 73q-107 0 -182 -75q-76 -79 -76 -185t78 -184q76 -76 184 -76q110 3 182 78q65 65 74 152zM582 1266q-189 0 -306 96q-67 56 -88 108l150 66l-2 2q2 -5 8 -13t25.5 -26
t45 -32.5t70 -25.5t97.5 -11q129 0 211 61q15 11 27 24t17 20l5 7l145 -78l-5 -9q-6 -9 -13.5 -18t-18 -22t-26 -27.5t-33.5 -27.5q-125 -94 -309 -94z" />
    <glyph glyph-name="Gdotaccent" unicode="&#x120;" horiz-adv-x="1474" 
d="M872 1716v-286h-286v286h286zM1147 772h266v-772h-266v106q-178 -126 -399 -126q-186 0 -344.5 92t-250.5 250t-92 344t92 344t250.5 250t344.5 92q251 0 446 -164l-205 -203q-110 80 -241 80q-167 0 -281 -117q-119 -119 -119 -282q0 -164 119 -283q117 -117 281 -117
q162 0 282 117q73 73 92 123h-307v266h332zM1145 506l2 -2v2h-2z" />
    <glyph glyph-name="gdotaccent" unicode="&#x121;" horiz-adv-x="1177" 
d="M848 1057h268v-1055q0 -106 -41 -203.5t-111 -167.5t-167 -112t-203 -43q-100 -1 -192 34.5t-161.5 97.5t-115.5 148t-57 183h270q15 -66 70 -121q76 -76 184 -76q107 0 182 78q76 76 76 182l-2 104q-47 -47 -116 -75.5t-138 -28.5q-144 -1 -266.5 69t-193.5 191t-71 264
q-1 143 68.5 265t191 193.5t265.5 72.5q174 0 260 -109v109zM848 498v61q-9 89 -76 156q-76 73 -184 73q-107 0 -182 -75q-76 -79 -76 -185t78 -184q76 -76 184 -76q110 3 182 78q65 65 74 152zM731 1448v-287h-287v287h287z" />
    <glyph glyph-name="uni0122" unicode="&#x122;" horiz-adv-x="1441" 
d="M1114 772h266v-772h-266v109q-178 -129 -399 -129q-186 0 -343.5 92t-249 249.5t-91.5 344.5t91.5 344.5t249 249.5t343.5 92q251 0 446 -164l-205 -203q-106 80 -241 80q-167 0 -281 -117q-117 -117 -117 -282q0 -167 117 -281q116 -119 281 -119q166 0 282 119
q17 15 49 53.5t44 67.5h-308v266h332zM1112 506l2 -2v2h-2zM561 -391v287h287v-287l-80 -174h-145l79 174h-141z" />
    <glyph glyph-name="uni0123" unicode="&#x123;" horiz-adv-x="1177" 
d="M418 1341l235 236l150 -150l-236 -235zM848 1057h268v-1055q0 -106 -41 -203.5t-111 -167.5t-167 -112t-203 -43q-100 -1 -192 34.5t-161.5 97.5t-115.5 148t-57 183h270q15 -66 70 -121q76 -76 184 -76q107 0 182 78q76 76 76 182l-2 104q-47 -47 -116 -75.5t-138 -28.5
q-144 -1 -266.5 69t-193.5 191t-71 264q-1 143 68.5 265t191 193.5t265.5 72.5q174 0 260 -109v109zM848 498v61q-9 89 -76 156q-76 73 -184 73q-107 0 -182 -75q-76 -79 -76 -185t78 -184q76 -76 184 -76q110 3 182 78q65 65 74 152z" />
    <glyph glyph-name="Hcircumflex" unicode="&#x124;" horiz-adv-x="1163" 
d="M782 1331h320v-1331h-320v522h-401v-522h-320v1331h320v-522h401v522zM872 1616l-149 -148l-143 144l-142 -142l-147 148l289 289z" />
    <glyph glyph-name="hcircumflex" unicode="&#x125;" horiz-adv-x="1198" 
d="M1071 526v-24v-502h-266v66v454h-2v6q0 107 -76 183q-75 75 -184 75q-108 0 -185 -77q-76 -76 -73 -185v-2h-2v-520h-287v1331h287v-409q59 70 118 96t140 33q109 9 205 -21.5t168.5 -95.5t114.5 -170.5t42 -237.5zM889 1577l-150 -147l-143 143l-141 -141l-148 147
l289 289z" />
    <glyph glyph-name="hbar" unicode="&#x127;" horiz-adv-x="1320" 
d="M750 1051q143 1 264.5 -69t192.5 -191.5t71 -264.5v-24v-502h-266v66v454v4q0 107 -78 185q-75 75 -184 75q-106 0 -183 -77q-75 -75 -75 -185v-2v-520h-287v1085h-174v246h174h287h153v-246h-153v-163q61 73 122 101t136 28z" />
    <glyph glyph-name="Itilde" unicode="&#x128;" horiz-adv-x="442" 
d="M61 1331h320v-1331h-320v1331zM596 1681l-242 -114l-258 92l-192 -92l-58 119l244 114l256 -92l195 92z" />
    <glyph glyph-name="itilde" unicode="&#x129;" horiz-adv-x="790" 
d="M539 1053v-1053h-287v1053h287zM770 1303l-242 -115l-258 92l-192 -92l-58 119l244 114l256 -92l195 92z" />
    <glyph glyph-name="Imacron" unicode="&#x12a;" horiz-adv-x="442" 
d="M-102 1675h647v-245h-647v245zM61 1331h320v-1331h-320v1331z" />
    <glyph glyph-name="imacron" unicode="&#x12b;" horiz-adv-x="688" 
d="M487 1053v-1053h-286v1053h286zM20 1430h648v-246h-648v246z" />
    <glyph glyph-name="Iogonek" unicode="&#x12e;" horiz-adv-x="442" 
d="M381 1331v-1331h-174l80 -174h-148l-78 174v0v287v1044h320z" />
    <glyph glyph-name="iogonek" unicode="&#x12f;" 
d="M348 289v-287v-2h-141l80 -172h-148l-78 172v2v287v766h287v-766zM346 1430v-287h-285v287h285z" />
    <glyph glyph-name="Idotaccent" unicode="&#x130;" horiz-adv-x="442" 
d="M61 1331h320v-1331h-320v1331zM365 1622v-287h-287v287h287z" />
    <glyph glyph-name="dotlessi" unicode="&#x131;" 
d="M346 1427v-284h-285v284h285zM348 1053v-1053h-287v1053h287z" />
    <glyph glyph-name="IJ" unicode="&#x132;" horiz-adv-x="1050" 
d="M61 1331h320v-1331h-320v1331zM670 0v1331h319v-1331q0 -99 -12 -170.5t-43.5 -134t-85.5 -100t-139.5 -59t-204.5 -21.5v319q75 0 120.5 41.5t45.5 124.5z" />
    <glyph glyph-name="ij" unicode="&#x133;" horiz-adv-x="948" 
d="M346 1427v-241h-285v241h285zM348 1053v-1053h-287v1053h287zM887 1427v-241h-287v241h287zM887 0v0q0 -170 -120 -290t-290 -120h-6v287h6q47 0 88 35q35 41 35 88v0v1053h287v-1053z" />
    <glyph glyph-name="Jcircumflex" unicode="&#x134;" horiz-adv-x="737" 
d="M227 0v1331h320v-1331q0 -82 -8.5 -144.5t-28.5 -119t-55.5 -96t-89 -68.5t-129.5 -43t-175 -14v319q75 0 120.5 41.5t45.5 124.5zM676 1823l-150 -148l-143 144l-141 -142l-148 148l289 289z" />
    <glyph glyph-name="jcircumflex" unicode="&#x135;" horiz-adv-x="663" 
d="M479 0v0q0 -170 -119.5 -290t-289.5 -120h-7v287h7q47 0 88 35q35 41 35 88v0v1053h286v-1053zM623 1315l-150 -148l-143 144l-142 -142l-147 148l289 289z" />
    <glyph glyph-name="uni0136" unicode="&#x136;" horiz-adv-x="1466" 
d="M993 0l-465 496l-147 -148v-348h-320v1331h320v-530l530 530h453l-608 -608l690 -723h-453zM504 -391v287h287v-287l-80 -174h-146l80 174h-141z" />
    <glyph glyph-name="uni0137" unicode="&#x137;" horiz-adv-x="1230" 
d="M788 0l-342 410l-98 -97v-313h-287v1423h287v-704l336 336l406 -2l-443 -441l522 -612h-381zM500 -391v287h286v-287l-79 -174h-146l80 174h-141z" />
    <glyph glyph-name="kgreenlandic" unicode="&#x138;" horiz-adv-x="1230" 
d="M788 0l-342 410l-98 -97v-313h-287v1423h287v-704l336 336l406 -2l-443 -441l522 -612h-381z" />
    <glyph glyph-name="Lacute" unicode="&#x139;" horiz-adv-x="1083" 
d="M381 287h641v-287h-641h-2h-318v1331h320v-1044zM348 1587l236 236l149 -150l-235 -235z" />
    <glyph glyph-name="lacute" unicode="&#x13a;" 
d="M348 1423v-1423h-287v1423h287zM12 1665l236 236l149 -150l-235 -235z" />
    <glyph glyph-name="uni013B" unicode="&#x13b;" horiz-adv-x="1062" 
d="M381 287h641v-287h-641h-2h-318v1331h320v-1044zM403 -391v287h287v-287l-80 -174h-145l80 174h-142z" />
    <glyph glyph-name="uni013C" unicode="&#x13c;" 
d="M348 1423v-1423h-287v1423h287zM63 -391v287h287v-287l-80 -174h-145l80 174h-142z" />
    <glyph glyph-name="Lcaron" unicode="&#x13d;" horiz-adv-x="1083" 
d="M215 1751l119 119l201 -201l200 201l119 -121l-319 -319zM381 287h641v-287h-641h-2h-318v1331h320v-1044z" />
    <glyph glyph-name="lcaron" unicode="&#x13e;" horiz-adv-x="819" 
d="M348 1423v-1423h-287v1423h287zM459 1128v287h286v-287l-79 -174h-146l78 174h-139z" />
    <glyph glyph-name="Ldot" unicode="&#x13f;" horiz-adv-x="1083" 
d="M381 287h641v-287h-641h-2h-318v1331h320v-1044zM711 1079v-583h286v583h-286z" />
    <glyph glyph-name="ldot" unicode="&#x140;" horiz-adv-x="819" 
d="M348 1423v-1423h-287v1423h287zM471 967v-285h272v285h-272z" />
    <glyph glyph-name="Lslash" unicode="&#x141;" horiz-adv-x="1339" 
d="M637 287h641v-287h-641h-2h-318v383l-106 -107l-150 150l256 256v649h320v-330l156 156l149 -149l-305 -306v-417v2z" />
    <glyph glyph-name="lslash" unicode="&#x142;" horiz-adv-x="1005" 
d="M606 0h-287v383l-108 -107l-150 150l258 256v743h287v-462l189 196l149 -149l-338 -340v-189v-182v-299z" />
    <glyph glyph-name="Nacute" unicode="&#x143;" horiz-adv-x="1161" 
d="M412 1581l235 236l150 -150l-236 -235zM946 1331h320v-1331l-883 649v-649h-320v1331l883 -680v680z" />
    <glyph glyph-name="nacute" unicode="&#x144;" horiz-adv-x="1157" 
d="M436 1341l236 236l149 -150l-235 -235zM596 1051q109 9 205 -21.5t168.5 -95.5t114.5 -170.5t42 -237.5v-24v-502h-266v66v454h-2v4q0 109 -76 185q-75 75 -184 75q-110 -3 -184 -77q-77 -77 -74 -185v-2h-2v-520h-287v1059h287v-137q59 70 118 96t140 33z" />
    <glyph glyph-name="uni0145" unicode="&#x145;" horiz-adv-x="1327" 
d="M500 -391v287h286v-287l-79 -174h-146l80 174h-141zM946 1331h320v-1331l-883 649v-649h-320v1331l883 -680v680z" />
    <glyph glyph-name="uni0146" unicode="&#x146;" horiz-adv-x="1157" 
d="M467 -391v287h287v-287l-80 -174h-146l80 174h-141zM596 1051q109 9 205 -21.5t168.5 -95.5t114.5 -170.5t42 -237.5v-24v-502h-266v66v454h-2v4q0 109 -76 185q-75 75 -184 75q-110 -3 -184 -77q-77 -77 -74 -185v-2h-2v-520h-287v1059h287v-137q59 70 118 96t140 33z
" />
    <glyph glyph-name="Ncaron" unicode="&#x147;" horiz-adv-x="1161" 
d="M946 1331h320v-1331l-883 649v-649h-320v1331l883 -680v680zM580 1511q-187 0 -306 97q-67 56 -88 108l150 66l-2 2q3 -5 8.5 -13t25 -26.5t45 -32.5t70 -25.5t97.5 -11.5q128 0 211 62q15 11 27 24t17 20l5 7l145 -78l-5 -9q-6 -9 -13.5 -18t-18 -22t-26 -27.5
t-33.5 -27.5q-126 -95 -309 -95z" />
    <glyph glyph-name="ncaron" unicode="&#x148;" horiz-adv-x="1157" 
d="M596 1051q109 9 205 -21.5t168.5 -95.5t114.5 -170.5t42 -237.5v-24v-502h-266v66v454h-2v4q0 109 -76 185q-75 75 -184 75q-110 -3 -184 -77q-77 -77 -74 -185v-2h-2v-520h-287v1059h287v-137q59 70 118 96t140 33zM299 1407l150 147l143 -143l141 141l148 -147
l-289 -289z" />
    <glyph glyph-name="Omacron" unicode="&#x14c;" horiz-adv-x="1495" 
d="M424 1675h647v-245h-647v245zM748 1325q186 0 344 -92t250 -250t92 -344t-92 -344t-250 -250t-344 -92t-344.5 92t-250.5 250t-92 344t92 344t250.5 250t344.5 92zM1030 356q117 117 117 283t-117 283q-116 116 -282 116q-167 0 -283 -116q-117 -117 -117 -283t117 -283
q119 -116 283 -116q163 0 282 116z" />
    <glyph glyph-name="omacron" unicode="&#x14d;" horiz-adv-x="1179" 
d="M588 1055q143 1 264.5 -69t192.5 -191.5t71 -264.5q1 -143 -68.5 -265t-190 -193t-263.5 -72q-144 -1 -266.5 69t-193.5 191t-71 264q-1 143 68.5 265t191 193.5t265.5 72.5zM774 344q76 76 76 184q0 107 -78 185q-76 73 -184 73q-107 0 -182 -75q-76 -79 -76 -185
t78 -184q76 -76 184 -76q110 3 182 78z" />
    <glyph glyph-name="Obreve" unicode="&#x14e;" horiz-adv-x="1433" 
d="M717 1325q186 0 344 -92t250 -250t92 -344t-92 -344t-250 -250t-344 -92t-344 92t-250 250t-92 344t92 344t250 250t344 92zM999 356q117 117 117 283t-117 283q-116 116 -282 116q-167 0 -283 -116q-117 -117 -117 -283t117 -283q119 -116 283 -116q163 0 282 116z
M711 1511q-186 0 -305 97q-27 22 -48 47.5t-29.5 39t-11.5 21.5l150 66l-2 2q3 -5 8.5 -13t25 -26.5t45 -32.5t70 -25.5t97.5 -11.5q128 0 211 62q15 11 27 24t17 20l5 7l145 -78l-6 -9q-5 -9 -12.5 -18t-18 -22t-26 -27.5t-33.5 -27.5q-126 -95 -309 -95z" />
    <glyph glyph-name="obreve" unicode="&#x14f;" horiz-adv-x="1179" 
d="M588 1055q143 1 264.5 -69t192.5 -191.5t71 -264.5q1 -143 -68.5 -265t-190 -193t-263.5 -72q-144 -1 -266.5 69t-193.5 191t-71 264q-1 143 68.5 265t191 193.5t265.5 72.5zM774 344q76 76 76 184q0 107 -78 185q-76 73 -184 73q-107 0 -182 -75q-76 -79 -76 -185
t78 -184q76 -76 184 -76q110 3 182 78zM584 1266q-188 0 -305 96q-27 22 -48 47.5t-29.5 39t-11.5 21.5l150 66l-2 2q2 -5 8 -13t25.5 -26t45 -32.5t70 -25.5t97.5 -11q129 0 211 61q15 11 27 24t17 20l5 7l145 -78l-5 -9q-6 -9 -13.5 -18t-18 -22t-26 -27.5t-33.5 -27.5
q-125 -94 -309 -94z" />
    <glyph glyph-name="Ohungarumlaut" unicode="&#x150;" horiz-adv-x="1495" 
d="M748 1325q186 0 344 -92t250 -250t92 -344t-92 -344t-250 -250t-344 -92t-344.5 92t-250.5 250t-92 344t92 344t250.5 250t344.5 92zM1030 356q117 117 117 283t-117 283q-116 116 -282 116q-167 0 -283 -116q-117 -117 -117 -283t117 -283q119 -116 283 -116
q163 0 282 116zM301 1616l236 235l149 -149l-235 -236zM809 1616l235 235l150 -149l-236 -236z" />
    <glyph glyph-name="ohungarumlaut" unicode="&#x151;" horiz-adv-x="1179" 
d="M588 1055q143 1 264.5 -69t192.5 -191.5t71 -264.5q1 -143 -68.5 -265t-190 -193t-263.5 -72q-144 -1 -266.5 69t-193.5 191t-71 264q-1 143 68.5 265t191 193.5t265.5 72.5zM774 344q76 76 76 184q0 107 -78 185q-76 73 -184 73q-107 0 -182 -75q-76 -79 -76 -185
t78 -184q76 -76 184 -76q110 3 182 78zM143 1370l236 236l149 -150l-235 -235zM651 1370l236 236l149 -150l-235 -235z" />
    <glyph glyph-name="Racute" unicode="&#x154;" horiz-adv-x="1234" 
d="M1174 877q0 -81 -27.5 -160t-95.5 -153t-168 -109l286 -455h-358l-279 424h-151v-424h-320v1331h320h317q95 0 175 -27.5t134.5 -73t93 -105t56 -122.5t17.5 -126zM381 1044v-333h315q64 0 105 18q32 18 47 35q39 47 39 113q0 68 -43 114q-44 53 -146 53h-317zM424 1587
l235 236l150 -150l-236 -235z" />
    <glyph glyph-name="racute" unicode="&#x155;" horiz-adv-x="765" 
d="M348 897q35 98 115.5 137t241.5 39v-293q-79 0 -148.5 -30t-113.5 -76t-69.5 -101t-25.5 -106v-467h-287v467v588h287v-158zM190 1341l236 236l149 -150l-235 -235z" />
    <glyph glyph-name="uni0156" unicode="&#x156;" horiz-adv-x="1204" 
d="M1174 877q0 -81 -27.5 -160t-95.5 -153t-168 -109l286 -455h-358l-279 424h-151v-424h-320v1331h320h317q95 0 175 -27.5t134.5 -73t93 -105t56 -122.5t17.5 -126zM381 1044v-333h315q64 0 105 18q32 18 47 35q39 47 39 113q0 68 -43 114q-44 53 -146 53h-317z" />
    <glyph glyph-name="uni0157" unicode="&#x157;" horiz-adv-x="735" 
d="M348 897q35 98 115.5 137t241.5 39v-293q-79 0 -148.5 -30t-113.5 -76t-69.5 -101t-25.5 -106v-467h-287v467v588h287v-158zM61 -391v287h287v-287l-80 -174h-145l80 174h-142z" />
    <glyph glyph-name="Rcaron" unicode="&#x158;" horiz-adv-x="1234" 
d="M1174 877q0 -81 -27.5 -160t-95.5 -153t-168 -109l286 -455h-358l-279 424h-151v-424h-320v1331h320h317q95 0 175 -27.5t134.5 -73t93 -105t56 -122.5t17.5 -126zM381 1044v-333h315q64 0 105 18q32 18 47 35q39 47 39 113q0 68 -43 114q-44 53 -146 53h-317zM326 1868
l149 147l143 -143l142 141l147 -147l-289 -289z" />
    <glyph glyph-name="rcaron" unicode="&#x159;" horiz-adv-x="765" 
d="M348 897q35 98 115.5 137t241.5 39v-293q-79 0 -148.5 -30t-113.5 -76t-69.5 -101t-25.5 -106v-467h-287v467v588h287v-158zM92 1622l150 147l143 -143l141 141l148 -147l-289 -289z" />
    <glyph glyph-name="Sacute" unicode="&#x15a;" horiz-adv-x="1220" 
d="M475 1581l236 236l149 -150l-235 -235zM604 -2q-136 0 -237 39q-84 34 -168 108q-23 21 -42 44.5t-32 45.5t-24 46t-17.5 44.5t-11 43t-6.5 39t-3 33.5t-1 27v20l1 10l281 -4v2q0 -76 33 -125q62 -92 227 -92q266 0 266 124q0 60 -72 99t-202 53q-155 18 -270 66
q-106 44 -170 114q-93 104 -93 238q0 152 93 258q144 162 454 162q328 0 475 -222q31 -49 49.5 -110.5t21.5 -91.5t3 -51h-280v-3q2 62 -31 105q-66 92 -238 92q-47 0 -90.5 -6.5t-81.5 -20t-61 -38t-23 -56.5q0 -127 273 -157q307 -35 442 -191q90 -107 90 -240
q0 -151 -88 -249q-67 -76 -182 -117q-113 -39 -285 -39z" />
    <glyph glyph-name="sacute" unicode="&#x15b;" horiz-adv-x="980" 
d="M340 1341l235 236l150 -150l-236 -235zM487 0q-107 0 -186 33q-64 23 -131 84q-116 110 -107 274v2v21l230 -4h18v-17q3 -51 23 -84q36 -59 153 -59q99 0 142 22q37 18 37 50q0 74 -189 96q-125 12 -205 49q-82 35 -135 90q-74 83 -74 193q0 122 74 204q112 127 355 127
q259 0 370 -174q58 -90 58 -200v-19h-248v17v2q0 38 -19 65q-46 62 -161 62q-71 0 -122 -18.5t-51 -53.5q0 -37 41 -60q44 -26 146 -38q234 -24 342 -150q72 -84 72 -192q0 -119 -70 -199q-52 -61 -143 -92q-95 -31 -220 -31z" />
    <glyph glyph-name="Scircumflex" unicode="&#x15c;" horiz-adv-x="1220" 
d="M604 -2q172 0 285 39q115 41 182 117q88 98 88 249q0 133 -90 240q-135 156 -442 191q-273 30 -273 157q0 32 23 56.5t61 38t81.5 20t90.5 6.5q172 0 238 -92q15 -19 22.5 -45.5t7.5 -42.5l1 -17v3h280q0 21 -3 51t-21.5 91.5t-49.5 110.5q-147 222 -475 222
q-310 0 -454 -162q-93 -106 -93 -258q0 -134 93 -238q64 -70 170 -114q115 -48 270 -66q130 -14 202 -53t72 -99q0 -124 -266 -124q-165 0 -227 92q-15 22 -23 53t-9 52l-1 20v-2l-281 4l-1 -10v-20t1 -27t3 -33.5t6.5 -39t11 -43t17.5 -44.5t24 -46t32 -45.5t42 -44.5
q84 -74 168 -108q101 -39 237 -39zM901 1589l-149 -147l-144 143l-141 -141l-148 147l289 289z" />
    <glyph glyph-name="scircumflex" unicode="&#x15d;" horiz-adv-x="980" 
d="M487 0q125 0 220 31q91 31 143 92q70 80 70 199q0 108 -72 192q-108 126 -342 150q-102 12 -146 38q-41 23 -41 60q0 35 51 53.5t122 18.5q115 0 161 -62q19 -27 19 -65v-2v-17h248v19q0 110 -58 200q-111 174 -370 174q-243 0 -355 -127q-74 -82 -74 -204
q0 -110 74 -193q53 -55 135 -90q80 -37 205 -49q189 -22 189 -96q0 -32 -37 -50q-43 -22 -142 -22q-117 0 -153 59q-9 15 -14.5 36t-7.5 35l-1 13v17h-18l-230 4v-21v-2q-9 -164 107 -274q67 -61 131 -84q79 -33 186 -33zM782 1300l-149 -147l-144 143l-141 -141l-147 148
l288 288z" />
    <glyph glyph-name="Scedilla" unicode="&#x15e;" horiz-adv-x="1220" 
d="M434 -391v287h287v-287l-80 -174h-145l79 174h-141zM604 -2q-136 0 -237 39q-84 34 -168 108q-23 21 -42 44.5t-32 45.5t-24 46t-17.5 44.5t-11 43t-6.5 39t-3 33.5t-1 27v20l1 10l281 -4v2q0 -76 33 -125q62 -92 227 -92q266 0 266 124q0 60 -72 99t-202 53
q-155 18 -270 66q-106 44 -170 114q-93 104 -93 238q0 152 93 258q144 162 454 162q328 0 475 -222q31 -49 49.5 -110.5t21.5 -91.5t3 -51h-280v-3q2 62 -31 105q-66 92 -238 92q-47 0 -90.5 -6.5t-81.5 -20t-61 -38t-23 -56.5q0 -127 273 -157q307 -35 442 -191
q90 -107 90 -240q0 -151 -88 -249q-67 -76 -182 -117q-113 -39 -285 -39z" />
    <glyph glyph-name="scedilla" unicode="&#x15f;" horiz-adv-x="980" 
d="M352 -391v287h287v-287l-80 -174h-145l80 174h-142zM487 0q-107 0 -186 33q-64 23 -131 84q-116 110 -107 274v2v21l230 -4h18v-17q3 -51 23 -84q36 -59 153 -59q99 0 142 22q37 18 37 50q0 74 -189 96q-125 12 -205 49q-82 35 -135 90q-74 83 -74 193q0 122 74 204
q112 127 355 127q259 0 370 -174q58 -90 58 -200v-19h-248v17v2q0 38 -19 65q-46 62 -161 62q-71 0 -122 -18.5t-51 -53.5q0 -37 41 -60q44 -26 146 -38q234 -24 342 -150q72 -84 72 -192q0 -119 -70 -199q-52 -61 -143 -92q-95 -31 -220 -31z" />
    <glyph glyph-name="Scaron" unicode="&#x160;" horiz-adv-x="1220" 
d="M604 -2q172 0 285 39q115 41 182 117q88 98 88 249q0 133 -90 240q-135 156 -442 191q-273 30 -273 157q0 32 23 56.5t61 38t81.5 20t90.5 6.5q172 0 238 -92q15 -19 22.5 -45.5t7.5 -42.5l1 -17v3h280q0 21 -3 51t-21.5 91.5t-49.5 110.5q-147 222 -475 222
q-310 0 -454 -162q-93 -106 -93 -258q0 -134 93 -238q64 -70 170 -114q115 -48 270 -66q130 -14 202 -53t72 -99q0 -124 -266 -124q-165 0 -227 92q-15 22 -23 53t-9 52l-1 20v-2l-281 4l-1 -10v-20t1 -27t3 -33.5t6.5 -39t11 -43t17.5 -44.5t24 -46t32 -45.5t42 -44.5
q84 -74 168 -108q101 -39 237 -39zM319 1720l150 148l143 -144l142 142l147 -148l-289 -288z" />
    <glyph glyph-name="scaron" unicode="&#x161;" horiz-adv-x="980" 
d="M487 0q125 0 220 31q91 31 143 92q70 80 70 199q0 108 -72 192q-108 126 -342 150q-102 12 -146 38q-41 23 -41 60q0 35 51 53.5t122 18.5q115 0 161 -62q19 -27 19 -65v-2v-17h248v19q0 110 -58 200q-111 174 -370 174q-243 0 -355 -127q-74 -82 -74 -204
q0 -110 74 -193q53 -55 135 -90q80 -37 205 -49q189 -22 189 -96q0 -32 -37 -50q-43 -22 -142 -22q-117 0 -153 59q-9 15 -14.5 36t-7.5 35l-1 13v17h-18l-230 4v-21v-2q-9 -164 107 -274q67 -61 131 -84q79 -33 186 -33zM178 1407l150 147l143 -143l141 141l148 -147
l-289 -289z" />
    <glyph glyph-name="uni0162" unicode="&#x162;" horiz-adv-x="1134" 
d="M1073 1012h-346v-1012h-319v1012h-347v319h1012v-319zM434 -391v287h287v-287l-80 -174h-145l79 174h-141z" />
    <glyph glyph-name="uni0163" unicode="&#x163;" horiz-adv-x="882" 
d="M821 1055v-287h-235v-768h-287v768h-238v287h238v368h287v-368h235zM297 -391v287h287v-287l-80 -174h-146l80 174h-141z" />
    <glyph glyph-name="Tcaron" unicode="&#x164;" horiz-adv-x="1116" 
d="M1073 1012h-346v-1012h-319v1012h-347v319h1012v-319zM268 1868l150 147l143 -143l141 141l148 -147l-289 -289z" />
    <glyph glyph-name="Utilde" unicode="&#x168;" horiz-adv-x="1261" 
d="M903 1331h297v-768q0 -128 -52.5 -237t-136.5 -178.5t-184 -108.5t-198 -39q-73 0 -150.5 22t-152.5 69.5t-134 112.5t-95 159.5t-36 203.5v764h297v-764q0 -123 88 -196q41 -36 92.5 -55t90.5 -19q36 0 92 18q59 23 96 58q46 43 64 82q22 45 22 108v768zM1006 1681
l-242 -114l-258 92l-193 -92l-57 119l244 114l256 -92l194 92z" />
    <glyph glyph-name="utilde" unicode="&#x169;" horiz-adv-x="1155" 
d="M61 506v553h267v0v-529v-4q0 -24 6 -54t23 -67t42.5 -66.5t69 -50t98.5 -20.5q60 0 105.5 21t70.5 50t40 67.5t19.5 67t4.5 54.5v2v529h287v-1059h-287v111q-101 -111 -258 -111q-133 -1 -245 65t-177.5 183t-65.5 258zM952 1436l-241 -115l-258 92l-193 -92l-57 119
l243 114l256 -92l195 92z" />
    <glyph glyph-name="Umacron" unicode="&#x16a;" horiz-adv-x="1261" 
d="M317 1675h648v-245h-648v245zM903 1331h297v-768q0 -128 -52.5 -237t-136.5 -178.5t-184 -108.5t-198 -39q-73 0 -150.5 22t-152.5 69.5t-134 112.5t-95 159.5t-36 203.5v764h297v-764q0 -123 88 -196q41 -36 92.5 -55t90.5 -19q36 0 92 18q59 23 96 58q46 43 64 82
q22 45 22 108v768z" />
    <glyph glyph-name="umacron" unicode="&#x16b;" horiz-adv-x="1155" 
d="M264 1430h647v-246h-647v246zM61 506v553h267v0v-529v-4q0 -24 6 -54t23 -67t42.5 -66.5t69 -50t98.5 -20.5q60 0 105.5 21t70.5 50t40 67.5t19.5 67t4.5 54.5v2v529h287v-1059h-287v111q-101 -111 -258 -111q-133 -1 -245 65t-177.5 183t-65.5 258z" />
    <glyph glyph-name="Ubreve" unicode="&#x16c;" horiz-adv-x="1261" 
d="M903 1331h297v-768q0 -128 -52.5 -237t-136.5 -178.5t-184 -108.5t-198 -39q-73 0 -150.5 22t-152.5 69.5t-134 112.5t-95 159.5t-36 203.5v764h297v-764q0 -123 88 -196q41 -36 92.5 -55t90.5 -19q36 0 92 18q59 23 96 58q46 43 64 82q22 45 22 108v768zM625 1511
q-187 0 -306 97q-67 56 -88 108l150 66l-2 2q3 -5 8.5 -13t25 -26.5t45 -32.5t70 -25.5t97.5 -11.5q128 0 211 62q15 11 27 24t17 20l5 7l145 -78l-6 -9q-5 -9 -12.5 -18t-18 -22t-26 -27.5t-33.5 -27.5q-126 -95 -309 -95z" />
    <glyph glyph-name="ubreve" unicode="&#x16d;" horiz-adv-x="1155" 
d="M61 506v553h267v0v-529v-4q0 -24 6 -54t23 -67t42.5 -66.5t69 -50t98.5 -20.5q60 0 105.5 21t70.5 50t40 67.5t19.5 67t4.5 54.5v2v529h287v-1059h-287v111q-101 -111 -258 -111q-133 -1 -245 65t-177.5 183t-65.5 258zM571 1266q-188 0 -305 96q-67 56 -88 108l150 66
l-2 2q3 -5 8 -13t25 -26.5t45 -32.5t69.5 -25t97.5 -11q129 0 211 61q15 11 27 24t17 20l5 7l146 -78l-5 -9q-6 -9 -13.5 -18t-18 -22t-26 -27.5t-33.5 -27.5q-125 -94 -310 -94z" />
    <glyph glyph-name="Uring" unicode="&#x16e;" horiz-adv-x="1261" 
d="M903 1331h297v-768q0 -128 -52.5 -237t-136.5 -178.5t-184 -108.5t-198 -39q-73 0 -150.5 22t-152.5 69.5t-134 112.5t-95 159.5t-36 203.5v764h297v-764q0 -123 88 -196q41 -36 92.5 -55t90.5 -19q36 0 92 18q59 23 96 58q46 43 64 82q22 45 22 108v768zM348 1722
l150 148l143 -144l141 142l148 -148l-289 -288z" />
    <glyph glyph-name="Uhungarumlaut" unicode="&#x170;" horiz-adv-x="1261" 
d="M903 1331h297v-768q0 -128 -52.5 -237t-136.5 -178.5t-184 -108.5t-198 -39q-73 0 -150.5 22t-152.5 69.5t-134 112.5t-95 159.5t-36 203.5v764h297v-764q0 -123 88 -196q41 -36 92.5 -55t90.5 -19q36 0 92 18q59 23 96 58q46 43 64 82q22 45 22 108v768zM184 1616
l236 235l149 -149l-235 -236zM692 1616l236 235l149 -149l-235 -236z" />
    <glyph glyph-name="uhungarumlaut" unicode="&#x171;" horiz-adv-x="1155" 
d="M61 506v553h267v0v-529v-4q0 -24 6 -54t23 -67t42.5 -66.5t69 -50t98.5 -20.5q60 0 105.5 21t70.5 50t40 67.5t19.5 67t4.5 54.5v2v529h287v-1059h-287v111q-101 -111 -258 -111q-133 -1 -245 65t-177.5 183t-65.5 258zM131 1370l236 236l149 -150l-235 -235zM639 1370
l235 236l150 -150l-236 -235z" />
    <glyph glyph-name="Uogonek" unicode="&#x172;" horiz-adv-x="1263" 
d="M905 1327h297v-768q0 -99 -32 -187.5t-87 -154t-123.5 -113t-146.5 -75.5v-2h-6q-61 -21 -123 -27l68 -147h-146l-71 153q-68 13 -134 42t-128 77t-109 110t-75 146.5t-28 179.5v766h297v-766q0 -120 88 -196q41 -34 92.5 -53t90.5 -19q45 0 92 18q56 21 96 58
q43 37 64 80q24 50 24 110v768z" />
    <glyph glyph-name="uogonek" unicode="&#x173;" horiz-adv-x="1155" 
d="M1094 293v-287v-6h-140l78 -168h-145l-80 168v111q-99 -109 -258 -109q-133 -1 -245 65t-177.5 183t-65.5 258v551h267v0v-529v-4q0 -24 6 -54t23 -67t42.5 -66.5t69 -50t98.5 -20.5q60 0 105.5 21t70.5 50.5t40 68.5t19.5 67.5t4.5 54.5v0v529h287v-766z" />
    <glyph glyph-name="Wcircumflex" unicode="&#x174;" horiz-adv-x="2019" 
d="M1860 1331h368l-717 -1331v0v0l-231 430l-231 -430v0v0l-717 1331h368l349 -665l51 98l-305 567h368l348 -665zM1300 1653l-149 -148l-143 144l-142 -142l-147 148l289 289z" />
    <glyph glyph-name="wcircumflex" unicode="&#x175;" horiz-adv-x="1540" 
d="M1235 1069h295l-574 -1069v0l-2 2l-184 344l-186 -346v0v2l-574 1067h295l279 -534l41 79l-244 455h295l280 -534z" />
    <glyph glyph-name="Ycircumflex" unicode="&#x176;" horiz-adv-x="1513" 
d="M1452 1331l-537 -643v-688h-319v688l-535 643h420l277 -334l274 334h420zM1047 1655l-150 -148l-143 144l-142 -142l-147 148l289 289z" />
    <glyph glyph-name="ycircumflex" unicode="&#x177;" horiz-adv-x="1116" 
d="M1055 1057l-416 -1104q-67 -164 -215 -259.5t-322 -92.5v286q62 -3 127 27q92 42 136 129l57 158l-361 856h316l190 -461l170 461h318zM848 1577l-150 -147l-143 143l-141 -141l-148 147l289 289z" />
    <glyph glyph-name="Ydieresis" unicode="&#x178;" horiz-adv-x="1513" 
d="M1452 1331l-537 -643v-688h-319v688l-535 643h420l277 -334l274 334h420zM391 1858h287v-287h-287v287zM836 1858h286v-287h-286v287z" />
    <glyph glyph-name="Zacute" unicode="&#x179;" horiz-adv-x="1247" 
d="M455 1581l235 236l150 -150l-236 -235zM1186 1343v-286l-729 -770h729v-289l-1125 2v285v2l730 770h-730v286h1125z" />
    <glyph glyph-name="zacute" unicode="&#x17a;" horiz-adv-x="1013" 
d="M352 1341l236 236l149 -150l-235 -235zM467 287h485v-287h-891v287v0v0l482 481h-482v287h887v-287z" />
    <glyph glyph-name="Zdotaccent" unicode="&#x17b;" horiz-adv-x="1247" 
d="M782 1716v-286h-286v286h286zM1186 1343v-286l-729 -770h729v-289l-1125 2v285v2l730 770h-730v286h1125z" />
    <glyph glyph-name="zdotaccent" unicode="&#x17c;" horiz-adv-x="1013" 
d="M340 1341l235 236l150 -150l-236 -235zM467 287h485v-287h-891v287v0v0l482 481h-482v287h887v-287z" />
    <glyph glyph-name="Zcaron" unicode="&#x17d;" horiz-adv-x="1247" 
d="M1186 1343v-286l-729 -770h729v-289l-1125 2v285v2l730 770h-730v286h1125zM319 1720l150 148l143 -144l142 142l147 -148l-289 -288z" />
    <glyph glyph-name="zcaron" unicode="&#x17e;" horiz-adv-x="1013" 
d="M467 287h485v-287h-891v287v0v0l482 481h-482v287h887v-287zM178 1407l150 147l143 -143l141 141l148 -147l-289 -289z" />
    <glyph glyph-name="longs" unicode="&#x17f;" horiz-adv-x="804" 
d="M645 1143q-46 0 -79.5 -34t-33.5 -81v-113h211v-286h-211v-131v-498h-286v498v133h-185v284h185v228q0 119 83 201.5t203 82.5h211v-284h-98z" />
    <glyph glyph-name="florin" unicode="&#x192;" horiz-adv-x="804" 
d="M645 1143q-46 0 -79.5 -34t-33.5 -81v-113h211v-286h-211v-131v-498h-286v498v133h-185v284h185v228q0 119 83 201.5t203 82.5h211v-284h-98z" />
    <glyph glyph-name="uni0218" unicode="&#x218;" horiz-adv-x="1179" 
d="M414 -391v287h286v-287l-79 -174h-146l80 174h-141zM584 -2q-137 0 -238 39q-84 34 -168 108q-23 21 -42 44.5t-32 45.5t-23.5 46t-17 44.5t-11.5 42.5t-6.5 39t-2.5 34t-1 27t0.5 19.5t0.5 10.5l281 -4v2q-1 -76 32 -125q62 -92 228 -92q266 0 266 124q0 60 -72.5 99
t-202.5 53q-155 18 -270 66q-106 44 -170 114q-92 103 -92 238q0 153 92 258q144 162 455 162q328 0 475 -222q31 -49 49.5 -110.5t21.5 -91.5t3 -51h-281v-3q2 62 -31 105q-66 92 -237 92q-47 0 -90.5 -6.5t-81.5 -20t-61 -38t-23 -56.5q0 -127 272 -157q308 -35 443 -191
q90 -107 90 -240q0 -151 -88 -249q-67 -76 -183 -117q-113 -39 -284 -39z" />
    <glyph glyph-name="uni0219" unicode="&#x219;" horiz-adv-x="940" 
d="M332 -391v287h286v-287l-79 -174h-146l80 174h-141zM467 0q-107 0 -186 33q-64 23 -131 84q-116 110 -107 274v2v21l229 -4h19v-17q2 -51 22 -84q36 -59 154 -59q98 0 141 22q37 18 37 50q0 75 -188 96q-125 12 -205 49q-82 35 -135 90q-74 83 -74 193q0 122 74 204
q112 127 354 127q260 0 371 -174q57 -88 57 -200v-19h-248v17v2q0 39 -18 65q-46 62 -162 62q-70 0 -121 -18.5t-51 -53.5q0 -37 41 -60q44 -26 145 -38q234 -24 342 -150q72 -84 72 -192q0 -119 -70 -199q-52 -61 -143 -92q-95 -31 -219 -31z" />
    <glyph glyph-name="uni021A" unicode="&#x21a;" horiz-adv-x="1116" 
d="M434 -391v287h287v-287l-80 -174h-145l79 174h-141zM1073 1012h-346v-1012h-319v1012h-347v319h1012v-319z" />
    <glyph glyph-name="uni021B" unicode="&#x21b;" horiz-adv-x="882" 
d="M299 -391v287h287v-287l-80 -174h-146l80 174h-141zM821 1055v-287h-235v-768h-287v768h-238v287h238v368h287v-368h235z" />
    <glyph glyph-name="circumflex" unicode="&#x2c6;" horiz-adv-x="1073" 
d="M827 1577l-149 -147l-143 143l-142 -141l-147 147l289 289z" />
    <glyph glyph-name="caron" unicode="&#x2c7;" horiz-adv-x="1073" 
d="M246 1622l149 147l144 -143l141 141l147 -147l-288 -289z" />
    <glyph glyph-name="breve" unicode="&#x2d8;" horiz-adv-x="839" 
d="M414 1266q-188 0 -305 96q-27 22 -48 47.5t-29.5 39t-11.5 21.5l150 66l-2 2q2 -5 8 -13t25.5 -26t45 -32.5t70 -25.5t97.5 -11q129 0 211 61q15 11 27 24t17 20l5 7l145 -78l-5 -9q-6 -9 -13.5 -18t-18 -22t-26 -27.5t-33.5 -27.5q-125 -94 -309 -94z" />
    <glyph glyph-name="dotaccent" unicode="&#x2d9;" 
d="M348 1376v-286h-287v286h287z" />
    <glyph glyph-name="ogonek" unicode="&#x2db;" horiz-adv-x="1705" 
 />
    <glyph glyph-name="tilde" unicode="&#x2dc;" horiz-adv-x="872" 
d="M811 1436l-242 -115l-258 92l-192 -92l-58 119l244 114l256 -92l195 92z" />
    <glyph glyph-name="hungarumlaut" unicode="&#x2dd;" horiz-adv-x="1015" 
d="M61 1370l236 236l149 -150l-235 -235zM569 1370l236 236l149 -150l-235 -235z" />
    <glyph glyph-name="dieresistonos" unicode="&#x385;" horiz-adv-x="976" 
d="M123 1612h287v-287h-287v287zM567 1612h287v-287h-287v287z" />
    <glyph glyph-name="uni0401" unicode="&#x401;" horiz-adv-x="1021" 
d="M139 1430v286h287v-286h-287zM584 1430v286h286v-286h-286zM350 522v-235h611v-287h-930v1331h930v-287h-611v-235h518v-287h-518z" />
    <glyph glyph-name="uni0402" unicode="&#x402;" horiz-adv-x="1124" 
d="M723 766q158 0 269.5 -111.5t111.5 -269.5t-111.5 -270.5t-269.5 -112.5h-148h-286v1137h-269v293h820v-293h-265v-373h148zM723 268q47 0 81 35t34 82q0 49 -33 82q-39 33 -82 33h-148v-232h148z" />
    <glyph glyph-name="uni0403" unicode="&#x403;" horiz-adv-x="886" 
d="M350 1044v-1044h-319v1331h825v-287h-506zM305 1587l236 236l149 -150l-235 -235z" />
    <glyph glyph-name="uni0404" unicode="&#x404;" horiz-adv-x="1220" 
d="M717 0q-186 0 -344 92t-250 250t-92 344t92 344t250 250t344 92q251 0 442 -164l-203 -204q-107 81 -239 81q-164 0 -283 -116q-62 -62 -94 -150h369v-268h-367q27 -80 92 -148q119 -116 283 -116q129 0 239 80l203 -203q-191 -164 -442 -164z" />
    <glyph glyph-name="uni0405" unicode="&#x405;" horiz-adv-x="1220" 
d="M604 -2q-136 0 -237 39q-84 34 -168 108q-23 21 -42 44.5t-32 45.5t-24 46t-17.5 44.5t-11 43t-6.5 39t-3 33.5t-1 27v20l1 10l281 -4v2q0 -76 33 -125q62 -92 227 -92q266 0 266 124q0 60 -72 99t-202 53q-155 18 -270 66q-106 44 -170 114q-93 104 -93 238
q0 152 93 258q144 162 454 162q328 0 475 -222q31 -49 49.5 -110.5t21.5 -91.5t3 -51h-280v-3q2 62 -31 105q-66 92 -238 92q-47 0 -90.5 -6.5t-81.5 -20t-61 -38t-23 -56.5q0 -127 273 -157q307 -35 442 -191q90 -107 90 -240q0 -151 -88 -249q-67 -76 -182 -117
q-113 -39 -285 -39z" />
    <glyph glyph-name="uni0406" unicode="&#x406;" horiz-adv-x="401" 
d="M41 1331h319v-1331h-319v1331z" />
    <glyph glyph-name="uni0407" unicode="&#x407;" horiz-adv-x="772" 
d="M20 1430v286h287v-286h-287zM465 1430v286h287v-286h-287zM231 1331h320v-1331h-320v1331z" />
    <glyph glyph-name="uni0408" unicode="&#x408;" horiz-adv-x="567" 
d="M207 0v1331h319v-1331q0 -99 -12 -170.5t-43.5 -134t-85.5 -100t-139.5 -59t-204.5 -21.5v319q75 0 120.5 41.5t45.5 124.5z" />
    <glyph glyph-name="uni0409" unicode="&#x409;" horiz-adv-x="1906" 
d="M1350 1053q144 0 265 -71t190.5 -193t68.5 -265q0 -144 -71 -265t-192.5 -190.5t-264.5 -68.5q-80 0 -143 19.5t-122 72.5v-92h-319v723l-281 -723h-450v281h219l409 1050h422v-391q128 116 269 113zM1530 342q78 78 78 182q0 109 -76 185q-77 77 -182 77
q-110 0 -185 -75q-78 -75 -78 -183t76 -184q78 -78 183 -78q108 0 184 76z" />
    <glyph glyph-name="uni040A" unicode="&#x40a;" horiz-adv-x="1548" 
d="M1145 764q158 0 270.5 -111.5t112.5 -269.5t-112.5 -270.5t-270.5 -112.5h-158h-37h-235v465h-408v-465h-287v1063h287v-311h408v311h286v-299h144zM1098 270q49 0 82.5 34.5t33.5 82.5q0 53 -34 82q-33 33 -82 33h-144v-232h144z" />
    <glyph glyph-name="uni040C" unicode="&#x40c;" horiz-adv-x="1435" 
d="M483 1581l236 236l149 -150l-235 -235zM963 0l-467 496l-146 -148v-348h-319v1331h319v-530l531 530h452l-610 -608l692 -723h-452z" />
    <glyph glyph-name="uni040E" unicode="&#x40e;" horiz-adv-x="1431" 
d="M1411 1331l-537 -643v-688h-319v688l-535 643h420l277 -334l274 334h420zM725 1511q-186 0 -305 97q-67 56 -88 108l149 66l-2 2q3 -5 8.5 -13t25 -26.5t45 -32.5t70 -25.5t97.5 -11.5q128 0 211 62q15 11 27 24t17 20l5 7l145 -78l-6 -9q-5 -9 -12.5 -18t-18 -22
t-26 -27.5t-33.5 -27.5q-126 -95 -309 -95z" />
    <glyph glyph-name="uni040F" unicode="&#x40f;" horiz-adv-x="1263" 
d="M905 1307h297v-770q0 -200 -119 -341.5t-292 -195.5v-184h-320v184q-79 24 -150 69.5t-130.5 111.5t-94.5 159.5t-35 200.5v766h297v-766q0 -124 91 -197q6 -6 22 -18v174h320v-174q6 4 15.5 11.5t10.5 8.5q44 38 64 82q24 49 24 109v770z" />
    <glyph glyph-name="uni0410" unicode="&#x410;" horiz-adv-x="1554" 
d="M1124 0l-96 186h-502l-96 -186h-369l717 1331v0v0l715 -1331h-369zM655 436h244l-121 234z" />
    <glyph glyph-name="uni0411" unicode="&#x411;" horiz-adv-x="1198" 
d="M612 1053q143 0 264 -71t191 -193t70 -265q-1 -144 -72.5 -265t-193.5 -190.5t-265 -68.5q-154 0 -284 84v-84h-287l-4 1430l714 -3v-227h-426v-233q136 89 293 86zM791 342q77 74 77 182q0 110 -75 185q-74 77 -183 77t-184 -75q-78 -78 -78 -183q0 -108 76 -184
q78 -78 182 -78q109 0 185 76z" />
    <glyph glyph-name="uni0412" unicode="&#x412;" horiz-adv-x="1198" 
d="M973 745q7 -3 18 -9.5t39 -35t50 -65t39.5 -104t17.5 -148.5q0 -72 -21 -132t-55 -98.5t-74.5 -68t-81.5 -45t-75 -25t-55 -12.5l-21 -2h-723v1331h616q6 0 17 -0.5t44 -5.5t64.5 -14t72 -28.5t73.5 -46t62.5 -69.5t45.5 -96q15 -52 15.5 -105t-10.5 -91t-23.5 -68.5
t-23.5 -46.5zM350 1083v-297h285q62 0 105.5 43.5t43.5 104.5q0 63 -43.5 106t-105.5 43h-285zM887 393q0 62 -43.5 106t-104.5 44h-389v-297h389q62 0 105 43t43 104z" />
    <glyph glyph-name="uni0413" unicode="&#x413;" horiz-adv-x="886" 
d="M350 1044v-1044h-319v1331h825v-287h-506z" />
    <glyph glyph-name="uni0414" unicode="&#x414;" horiz-adv-x="1296" 
d="M1051 625h194v-625h-287v338h-620v-338h-287v625h207v706h793v-706zM545 625h219v419h-219v-419z" />
    <glyph glyph-name="uni0415" unicode="&#x415;" horiz-adv-x="1021" 
d="M350 522v-235h611v-287h-930v1331h930v-287h-611v-235h518v-287h-518z" />
    <glyph glyph-name="uni0416" unicode="&#x416;" horiz-adv-x="1413" 
d="M1372 1198l-440 -440l440 -441l-225 -225l-332 330v-422h-246v395l-303 -303l-225 225l438 441l-438 440l225 225l303 -303v396h246v-422l330 329z" />
    <glyph glyph-name="uni0417" unicode="&#x417;" horiz-adv-x="970" 
d="M813 715q36 -48 61 -105q35 -84 35 -172q0 -89 -35 -170q-37 -84 -94 -139q-55 -57 -139 -94q-81 -35 -170 -35q-88 0 -172 35q-82 37 -139 94q-57 55 -94 139q-35 81 -35 170h286q0 -63 45.5 -107t108.5 -44t107.5 44t44.5 107q0 40 -19 72l-133 225l133 183
q19 32 19 71q0 63 -44.5 107.5t-107.5 44.5t-108.5 -44.5t-45.5 -107.5h-286q0 89 35 170q36 83 94 141q69 65 139 93q75 34 172 34q98 0 170 -34q74 -28 139 -93q58 -58 94 -141q35 -81 35 -170t-35 -170q-24 -58 -61 -104z" />
    <glyph glyph-name="uni0418" unicode="&#x418;" horiz-adv-x="1120" 
d="M1079 0h-319v602l-719 -602v1331h319v-612l719 612v-1331z" />
    <glyph glyph-name="uni0419" unicode="&#x419;" horiz-adv-x="1120" 
d="M285 1671h647v-246h-647v246zM1079 0h-319v602l-719 -602v1331h319v-612l719 612v-1331z" />
    <glyph glyph-name="uni041A" unicode="&#x41a;" horiz-adv-x="1445" 
d="M963 0l-467 496l-146 -148v-348h-319v1331h319v-530l531 530h452l-610 -608l692 -723h-452z" />
    <glyph glyph-name="uni041B" unicode="&#x41b;" horiz-adv-x="1142" 
d="M659 1331h422v-1331h-319v723l-281 -723h-450v281h219z" />
    <glyph glyph-name="uni041C" unicode="&#x41c;" horiz-adv-x="1540" 
d="M768 874l711 457v-1331h-320v745l-395 -251l-383 249v-743h-320v1331z" />
    <glyph glyph-name="uni041D" unicode="&#x41d;" horiz-adv-x="1163" 
d="M782 1331h320v-1331h-320v522h-401v-522h-320v1331h320v-522h401v522z" />
    <glyph glyph-name="uni041E" unicode="&#x41e;" horiz-adv-x="1413" 
d="M707 1325q186 0 344 -92t250 -250t92 -344t-92 -344t-250 -250t-344 -92t-344.5 92t-250.5 250t-92 344t92 344t250.5 250t344.5 92zM989 356q117 117 117 283t-117 283q-116 116 -282 116q-167 0 -283 -116q-117 -117 -117 -283t117 -283q119 -116 283 -116
q163 0 282 116z" />
    <glyph glyph-name="uni041F" unicode="&#x41f;" horiz-adv-x="1153" 
d="M61 1331h1031v-1331h-287v1044h-457v-1044h-287v1331z" />
    <glyph glyph-name="uni0420" unicode="&#x420;" horiz-adv-x="1196" 
d="M700 1331q95 0 175 -27.5t134.5 -73t93 -105t56 -122.5t17.5 -126q0 -59 -15.5 -119.5t-52.5 -121t-90.5 -107.5t-137 -76t-184.5 -29h-315v-424h-320v424v907v0h320h319zM850 764q39 47 39 113q0 65 -43 114q-47 53 -146 53h-319v-333h315q64 0 107 18q27 15 47 35z" />
    <glyph glyph-name="uni0421" unicode="&#x421;" horiz-adv-x="1179" 
d="M944 373l205 -205q-196 -162 -444 -162q-139 0 -265.5 54.5t-218.5 146t-146.5 218t-54.5 265.5q0 140 54.5 267t146.5 218.5t218.5 146t265.5 54.5q249 0 444 -164l-205 -202q-107 80 -239 80q-164 0 -281 -117t-117 -283q0 -163 117 -280t281 -117q132 0 239 80z" />
    <glyph glyph-name="uni0422" unicode="&#x422;" horiz-adv-x="1073" 
d="M1042 1012h-346v-1012h-319v1012h-346v319h1011v-319z" />
    <glyph glyph-name="uni0423" unicode="&#x423;" horiz-adv-x="1431" 
d="M1411 1331l-537 -643v-688h-319v688l-535 643h420l277 -334l274 334h420z" />
    <glyph glyph-name="uni0424" unicode="&#x424;" horiz-adv-x="1179" 
d="M1116 668q1 -180 -106.5 -322t-276.5 -188v-158h-287v158q-167 46 -275.5 186t-109.5 318q0 181 108 322t277 187v160h287v-160q167 -46 275 -185.5t108 -317.5zM408 479q19 -19 38 -30v434q-17 -13 -40 -35q-76 -76 -76 -184q0 -107 78 -185zM774 481q76 76 76 185
q0 106 -78 184q-18 18 -39 33v-434q21 12 41 32z" />
    <glyph glyph-name="uni0425" unicode="&#x425;" horiz-adv-x="1456" 
d="M1395 1110l-441 -440l441 -441l-228 -225l-440 440l-440 -440l-226 225l441 441l-441 440l228 225l438 -438l440 438z" />
    <glyph glyph-name="uni0426" unicode="&#x426;" horiz-adv-x="1263" 
d="M905 1307h297v-770q0 -200 -119 -341.5t-292 -195.5v-184h-320v184q-79 24 -150 69.5t-130.5 111.5t-94.5 159.5t-35 200.5v766h297v-766q0 -124 91 -197q6 -6 22 -18v174h320v-174q6 4 15.5 11.5t10.5 8.5q44 38 64 82q24 49 24 109v770z" />
    <glyph glyph-name="uni0427" unicode="&#x427;" horiz-adv-x="991" 
d="M659 1331h271v-1331h-271v532h-102v0q-143 0 -264 70.5t-191.5 191.5t-70.5 263v274h268v-270q0 -108 76 -184q78 -78 182 -78v0h102v532z" />
    <glyph glyph-name="uni0428" unicode="&#x428;" horiz-adv-x="1542" 
d="M1481 0l-709 457l-711 -457v1331h320v-745l242 155v590h319v-600l219 -143v743h320v-1331z" />
    <glyph glyph-name="uni0429" unicode="&#x429;" horiz-adv-x="1705" 
d="M1479 379l196 -129l-196 -250l-707 457l-711 -457v1331h320v-745l242 155v590h319v-600l217 -143v743h320v-952z" />
    <glyph glyph-name="uni042A" unicode="&#x42a;" horiz-adv-x="1452" 
d="M895 1053q143 0 264 -71t191 -193t69 -265q-1 -144 -72 -265t-193 -190.5t-265 -68.5q-155 0 -285 84v-84h-287l-2 1200h-284v230h571v-463q136 89 293 86zM1075 342q76 76 76 182q3 108 -74 185t-184 77q-109 0 -184 -75q-76 -76 -76 -183q-3 -107 74 -184
q78 -78 184 -78q108 0 184 76z" />
    <glyph glyph-name="uni042B" unicode="&#x42b;" horiz-adv-x="1542" 
d="M1198 1421h283v-1421h-283v1421zM641 1053q143 0 264 -71t191 -193t69 -265q-1 -144 -72 -265t-193 -190.5t-265 -68.5q-155 0 -285 84v-84h-287l-2 1430h287v-463q136 89 293 86zM821 342q75 75 78 182q0 109 -76 185q-77 77 -184 77q-109 0 -184 -75q-76 -76 -76 -183
q-3 -104 74 -184q78 -78 184 -78q108 0 184 76z" />
    <glyph glyph-name="uni042C" unicode="&#x42c;" horiz-adv-x="1198" 
d="M641 1053q143 0 264 -71t191 -193t69 -265q-1 -144 -72 -265t-193 -190.5t-265 -68.5q-155 0 -285 84v-84h-287l-2 1430h287v-463q136 89 293 86zM821 342q75 75 78 182q0 109 -76 185q-77 77 -184 77q-109 0 -184 -75q-76 -76 -76 -183q-3 -104 74 -184q78 -78 184 -78
q108 0 184 76z" />
    <glyph glyph-name="uni042D" unicode="&#x42d;" horiz-adv-x="1189" 
d="M475 1370q139 0 265.5 -54.5t218 -146t146 -218t54.5 -265.5q0 -186 -91.5 -344t-249.5 -250t-343 -92q-249 0 -444 164l205 203q107 -80 239 -80q168 0 281 116q67 67 94 150h-369v266h369q-32 89 -94 148q-113 116 -281 116q-138 0 -239 -79l-205 204q196 162 444 162z
" />
    <glyph glyph-name="uni042E" unicode="&#x42e;" horiz-adv-x="1867" 
d="M1151 1352q186 0 344 -92t250 -250t92 -344t-92 -344t-250 -250t-344 -92q-249 0 -438.5 157t-235.5 395h-96v-532h-320v1331h320v-532h96q48 239 237 396t437 157zM1434 383q116 119 116 283q0 163 -116 282q-120 117 -283 117t-283 -117q-116 -116 -116 -282
q0 -167 116 -283q117 -117 283 -117t283 117z" />
    <glyph glyph-name="uni042F" unicode="&#x42f;" horiz-adv-x="1204" 
d="M322 453q-76 27 -134 75.5t-91 107t-49.5 119t-16.5 119.5q0 63 17.5 126t55 123t91.5 106t134 74t175 28h319h320v-1331h-320v424h-151l-279 -424h-358zM823 711v333h-319q-97 0 -144 -53q-43 -48 -43 -117q0 -63 39 -110q17 -23 47 -35q41 -18 105 -18h315z" />
    <glyph glyph-name="uni0430" unicode="&#x430;" horiz-adv-x="1187" 
d="M840 1059h286v-1059h-286v119q-45 -58 -117 -86.5t-150 -28.5q-218 -1 -373 152.5t-157 371.5q-1 218 152.5 373.5t371.5 157.5q79 0 153.5 -30t119.5 -87v117zM754 348q75 75 75 184q0 111 -77 185q-77 77 -183 74q-108 0 -184 -76t-76 -185q0 -106 78 -184
q76 -76 184 -76q111 3 183 78z" />
    <glyph glyph-name="uni0431" unicode="&#x431;" horiz-adv-x="1187" 
d="M600 1055q218 -2 371.5 -157.5t152.5 -373.5q-1 -143 -72 -263.5t-193 -190.5t-265 -70q-130 1 -242.5 61t-185.5 163t-90 229q-16 71 -13 182q1 40 7 86t20.5 113.5t46.5 142.5t78 141q93 138 244 217q166 88 389 88v-225q-273 0 -418 -170q80 27 170 27zM780 342
q76 76 76 184q3 108 -74 185q-74 74 -184 77q-109 0 -184 -75q-76 -76 -76 -185q-3 -104 74 -184q76 -76 184 -76q107 0 184 74z" />
    <glyph glyph-name="uni0432" unicode="&#x432;" horiz-adv-x="1208" 
d="M643 1055q143 -1 263.5 -72.5t190 -193.5t68.5 -265q0 -143 -71 -264t-192.5 -191t-264.5 -69q-152 0 -285 86v-86h-286l-5 1430h287l2 -461q131 86 293 86zM821 342q78 78 78 184q0 109 -76 185q-72 75 -182 75q-108 3 -184 -73q-78 -78 -78 -185q0 -108 76 -184
t182 -76q107 -3 184 74z" />
    <glyph glyph-name="uni0433" unicode="&#x433;" horiz-adv-x="768" 
d="M725 1055v-287h-377v-768h-287v1055h287h377z" />
    <glyph glyph-name="uni0434" unicode="&#x434;" horiz-adv-x="1159" 
d="M928 485h170v-485h-250v236h-539v-236h-248v485h179v578h688v-578zM489 485h191v328h-191v-328z" />
    <glyph glyph-name="uni0435" unicode="&#x435;" horiz-adv-x="1120" 
d="M1087 530q0 -3 0.5 -27.5t0.5 -45.5t-1 -27l-770 2q10 -29 22.5 -47t37.5 -43q79 -76 184 -76q109 3 184 78q1 1 4.5 4t4.5 4l266 -84q-89 -137 -191.5 -202t-265.5 -66q-218 -1 -373 152.5t-157 371.5q-1 218 152.5 373.5t371.5 157.5q218 1 373 -153t157 -372zM559 786
q-109 0 -184 -75q-41 -44 -56 -86h482q-15 42 -58 88q-76 73 -184 73z" />
    <glyph glyph-name="uni0436" unicode="&#x436;" horiz-adv-x="1277" 
d="M1247 1012l-401 -404l401 -401l-205 -207l-303 303v-387h-223v363l-278 -279l-207 207l403 401l-403 404l209 205l276 -277v360h223v-385l301 302z" />
    <glyph glyph-name="uni0437" unicode="&#x437;" horiz-adv-x="745" 
d="M641 532q28 -32 47 -75q27 -69 27 -127q0 -61 -27 -127q-24 -59 -70 -105q-45 -45 -104 -69q-66 -27 -127 -27q-58 0 -127 27q-61 25 -102 69q-46 46 -70 105q-27 58 -27 127h213q0 -47 33.5 -81t79.5 -34q47 0 81 34t34 81q0 23 -15 53l-100 166l100 135q15 30 15 53
q0 47 -34 80t-81 33q-46 0 -79.5 -33t-33.5 -80h-213q0 69 27 127q24 59 70 105t102 69q64 25 127 25q66 0 127 -25q54 -22 104 -69q46 -46 70 -105q27 -66 27 -127q0 -58 -27 -127q-19 -43 -47 -78z" />
    <glyph glyph-name="uni0438" unicode="&#x438;" horiz-adv-x="948" 
d="M315 1055v-477l572 477v-1055h-254v483l-572 -483v1055h254z" />
    <glyph glyph-name="uni0439" unicode="&#x439;" horiz-adv-x="948" 
d="M315 1055v-477l572 477v-1055h-254v483l-572 -483v1055h254zM473 1266q-188 0 -305 96q-67 56 -88 108l149 66l-2 2q2 -5 8 -13t25.5 -26t45 -32.5t70 -25.5t97.5 -11q129 0 211 61q15 11 27 24t17 20l5 7l146 -78l-6 -9q-6 -9 -13 -18t-18 -22t-26.5 -27.5t-33.5 -27.5
q-125 -94 -309 -94z" />
    <glyph glyph-name="uni043A" unicode="&#x43a;" horiz-adv-x="1200" 
d="M788 0l-342 410l-98 -97v-313h-287v1423h287v-704l336 336l406 -2l-443 -441l522 -612h-381z" />
    <glyph glyph-name="uni043B" unicode="&#x43b;" horiz-adv-x="907" 
d="M528 1075h338v-1075h-256v584l-227 -584h-363v227h177z" />
    <glyph glyph-name="uni043C" unicode="&#x43c;" horiz-adv-x="1861" 
d="M1331 1057q134 1 246.5 -65t178 -183t65.5 -258v-551h-267v0v526v6q-1 24 -7 53.5t-23 67t-42 67.5t-69.5 50.5t-99.5 20.5q-59 0 -104.5 -21t-70 -51t-39.5 -69t-19.5 -67.5t-4.5 -54.5v-2v-526h-2h-266v0v526v6q0 23 -6 53t-23 67.5t-42.5 67.5t-69.5 50.5t-99 20.5
q-60 0 -105.5 -21t-70 -51t-40 -69t-19.5 -67.5t-4 -54.5v-2v-526h-287v1059h287v-111q101 109 258 109q112 1 210 -46t165 -132l86 79q122 99 284 99z" />
    <glyph glyph-name="uni043D" unicode="&#x43d;" horiz-adv-x="1103" 
d="M756 1063h286v-1063h-286v387h-408v-387h-287v1063h287v-389h408v389z" />
    <glyph glyph-name="uni043E" unicode="&#x43e;" horiz-adv-x="1138" 
d="M567 1055q143 1 265 -69t193 -191.5t71 -264.5q1 -218 -152 -373t-371 -157q-144 -1 -266 69t-193 191t-71 264q-1 143 68.5 265t190.5 193.5t265 72.5zM754 344q75 75 75 184q0 108 -77 185q-76 73 -185 73q-107 0 -182 -75q-76 -79 -76 -185t78 -184q76 -76 184 -76
q111 3 183 78z" />
    <glyph glyph-name="uni043F" unicode="&#x43f;" horiz-adv-x="1024" 
d="M61 1055h902v-1055h-287v768h-328v-768h-287v1055z" />
    <glyph glyph-name="uni0440" unicode="&#x440;" horiz-adv-x="1173" 
d="M610 1055q218 1 373.5 -153t157.5 -372q1 -218 -153 -373t-372 -157q-177 0 -268 113v-506h-287v1446h287v-111q40 52 113 81.5t149 31.5zM799 344q76 76 73 184q0 110 -75 185q-76 73 -185 73t-184 -75q-76 -79 -76 -185q3 -109 78 -184q76 -76 184 -76q110 3 185 78z
" />
    <glyph glyph-name="uni0441" unicode="&#x441;" horiz-adv-x="937" 
d="M715 317l190 -190q-149 -127 -348 -127q-218 2 -371.5 157t-152.5 373q2 218 157 372t373 153q197 -3 344 -131l-190 -189q-70 51 -156 51q-108 0 -184 -73q-76 -76 -76 -185q-3 -107 74 -184q75 -75 184 -78q86 0 156 51z" />
    <glyph glyph-name="uni0442" unicode="&#x442;" horiz-adv-x="880" 
d="M850 774h-264v-774h-287v774h-268v287h819v-287z" />
    <glyph glyph-name="uni0443" unicode="&#x443;" horiz-adv-x="1116" 
d="M1055 1104l-416 -1104q-67 -164 -215 -259.5t-322 -92.5v286q62 -3 127 27q92 42 136 129l57 158l-361 850h316l190 -455l170 461h318z" />
    <glyph glyph-name="uni0444" unicode="&#x444;" horiz-adv-x="1163" 
d="M1133 532q0 -188 -113 -335t-289 -197v-166h-299v166q-174 48 -286.5 193.5t-112.5 332.5q-1 187 111.5 335t287.5 196v166h299v-164q174 -50 287.5 -196t114.5 -331zM391 336q22 -22 41 -33v453q-29 -21 -43 -37q-81 -81 -78 -193q0 -110 80 -190zM774 338q81 81 78 192
q0 111 -80 191q-20 20 -41 35v-453q28 17 43 35z" />
    <glyph glyph-name="uni0445" unicode="&#x445;" horiz-adv-x="1185" 
d="M1124 203l-202 -203l-330 328l-328 -328l-203 203l328 327l-328 330l203 203l328 -330l330 330l202 -203l-329 -330z" />
    <glyph glyph-name="uni0446" unicode="&#x446;" horiz-adv-x="1161" 
d="M41 1057h266v0v-529v-4q0 -24 6 -54t23.5 -67t43 -66.5t70 -50t99.5 -20.5q59 0 104.5 21t69.5 50.5t39.5 68.5t19.5 67.5t4 54.5v0v529h287v-795h68v-325h-103h-252v172q-99 -109 -256 -109q-134 -1 -246.5 65t-177.5 182.5t-65 256.5v553z" />
    <glyph glyph-name="uni0447" unicode="&#x447;" horiz-adv-x="1093" 
d="M745 1055h287v-1055h-287v141q-100 -53 -219 -53q-132 0 -243.5 65.5t-176.5 177.5t-65 244v480h264v-480h2q0 -91 64 -155q63 -66 155 -66q93 0 156 66q53 50 63 131v504z" />
    <glyph glyph-name="uni0448" unicode="&#x448;" horiz-adv-x="1247" 
d="M1186 0l-561 362l-564 -362v1059h254v-594l191 123v471h254v-479l174 -113v592h252v-1059z" />
    <glyph glyph-name="uni0449" unicode="&#x449;" horiz-adv-x="1431" 
d="M1210 305l160 -104l-160 -201l-571 369l-578 -369v1077h261v-604l194 125v479h258v-487l178 -115v602h258v-772z" />
    <glyph glyph-name="uni044A" unicode="&#x44a;" horiz-adv-x="1060" 
d="M657 764q158 0 270.5 -111.5t112.5 -269.5t-112.5 -270.5t-270.5 -112.5h-163h-189h-98v829h-187v226h187h287v-226v-65h163zM657 266q49 0 83 34.5t34 82.5q0 47 -35 82q-33 33 -82 33h-163v-232h163z" />
    <glyph glyph-name="uni044B" unicode="&#x44b;" horiz-adv-x="1267" 
d="M874 383q0 -159 -111 -271t-269 -112h-166h-189h-98v1055h287v-291h166q158 0 269 -111.5t111 -269.5zM494 266q47 0 80.5 34.5t33.5 82.5q0 52 -35 82q-33 33 -79 33h-166v-232h166zM940 0v1055h287v-1055h-287z" />
    <glyph glyph-name="uni044C" unicode="&#x44c;" horiz-adv-x="894" 
d="M874 383q0 -159 -111 -271t-269 -112h-166h-189h-98v1055h287v-291h166q158 0 269 -111.5t111 -269.5zM494 266q47 0 80.5 34.5t33.5 82.5q0 52 -35 82q-33 33 -79 33h-166v-232h166z" />
    <glyph glyph-name="uni044D" unicode="&#x44d;" horiz-adv-x="968" 
d="M385 1128q153 0 282.5 -75.5t205 -205t75.5 -282.5t-75.5 -283t-205 -206t-282.5 -76q-207 0 -365 135l168 168q86 -67 197 -67q135 0 231 96q55 58 78 123h-303v219l303 2q-24 67 -78 121q-96 96 -231 96q-105 0 -197 -66l-168 166q157 135 365 135z" />
    <glyph glyph-name="uni044E" unicode="&#x44e;" horiz-adv-x="1513" 
d="M928 1075q149 0 275 -73t199 -198.5t73 -273.5q0 -111 -43 -211.5t-116.5 -173.5t-174.5 -116t-213 -43q-197 0 -347.5 124.5t-187.5 313.5h-76v-424h-256v1059h256v-422h76q37 189 187.5 313.5t347.5 124.5zM1153 305q94 97 94 225q0 129 -94 226q-92 92 -225 92
q-131 0 -223 -92q-95 -98 -95 -226q0 -127 95 -225q92 -92 223 -92q133 0 225 92z" />
    <glyph glyph-name="uni044F" unicode="&#x44f;" horiz-adv-x="989" 
d="M272 362q-79 27 -133.5 85.5t-76 122t-21.5 128.5q0 64 23 126.5t67.5 116t119.5 87t169 33.5h254h254v-1061h-254v338h-121l-223 -338h-285zM674 567v264h-254q-80 0 -117 -40q-33 -38 -33 -93q0 -51 31 -90q18 -18 37 -26q34 -15 84 -15h252z" />
    <glyph glyph-name="uni0451" unicode="&#x451;" horiz-adv-x="1120" 
d="M211 1182v286h287v-286h-287zM655 1182v286h287v-286h-287zM1087 530q0 -3 0.5 -27.5t0.5 -45.5t-1 -27l-770 2q10 -29 22.5 -47t37.5 -43q79 -76 184 -76q109 3 184 78q1 1 4.5 4t4.5 4l266 -84q-89 -137 -191.5 -202t-265.5 -66q-218 -1 -373 152.5t-157 371.5
q-1 218 152.5 373.5t371.5 157.5q218 1 373 -153t157 -372zM559 786q-109 0 -184 -75q-41 -44 -56 -86h482q-15 42 -58 88q-76 73 -184 73z" />
    <glyph glyph-name="uni0453" unicode="&#x453;" horiz-adv-x="724" 
d="M705 1055v-287h-377v-768h-287v1055h287h377zM152 1341l235 236l150 -150l-236 -235z" />
    <glyph glyph-name="uni0454" unicode="&#x454;" horiz-adv-x="968" 
d="M584 0q-153 0 -283 76t-205.5 206t-75.5 283t75.5 282.5t205.5 205t283 75.5q206 0 364 -135l-168 -168q-90 68 -196 68q-136 0 -232 -96q-52 -49 -78 -123h304v-219h-304q25 -70 78 -123q96 -96 232 -96q106 0 196 65l168 -166q-158 -135 -364 -135z" />
    <glyph glyph-name="uni0455" unicode="&#x455;" horiz-adv-x="980" 
d="M487 0q-107 0 -186 33q-64 23 -131 84q-116 110 -107 274v2v21l230 -4h18v-17q3 -51 23 -84q36 -59 153 -59q99 0 142 22q37 18 37 50q0 74 -189 96q-125 12 -205 49q-82 35 -135 90q-74 83 -74 193q0 122 74 204q112 127 355 127q259 0 370 -174q58 -90 58 -200v-19
h-248v17v2q0 38 -19 65q-46 62 -161 62q-71 0 -122 -18.5t-51 -53.5q0 -37 41 -60q44 -26 146 -38q234 -24 342 -150q72 -84 72 -192q0 -119 -70 -199q-52 -61 -143 -92q-95 -31 -220 -31z" />
    <glyph glyph-name="uni0456" unicode="&#x456;" horiz-adv-x="368" 
d="M326 1427v-284h-285v284h285zM328 1053v-1053h-287v1053h287z" />
    <glyph glyph-name="uni0457" unicode="&#x457;" horiz-adv-x="813" 
d="M557 1055v-1055h-287v1055h287zM41 1182v286h287v-286h-287zM485 1182v286h287v-286h-287z" />
    <glyph glyph-name="uni0458" unicode="&#x458;" horiz-adv-x="538" 
d="M477 1427v-284h-287v284h287zM477 0q0 -170 -119.5 -290t-289.5 -120h-7v287h7q47 0 88 35q34 40 34 88v0v1053h287v-1053z" />
    <glyph glyph-name="uni0459" unicode="&#x459;" horiz-adv-x="1427" 
d="M1026 764q158 0 269.5 -111.5t111.5 -269.5t-111.5 -270.5t-269.5 -112.5h-158h-258v584l-227 -584h-363v227h177l331 848h340v-311h158zM1026 266q47 0 81 35t34 82q0 49 -33 82q-38 33 -82 33h-158v-232h158z" />
    <glyph glyph-name="uni045A" unicode="&#x45a;" horiz-adv-x="1568" 
d="M1165 764q158 0 270.5 -111.5t112.5 -269.5t-112.5 -270.5t-270.5 -112.5h-157h-37h-236v465h-407v-465h-287v1063h287v-311h407v311h287v-299h143zM1118 270q49 0 83 34.5t34 82.5q0 52 -35 82q-33 33 -82 33h-143v-232h143z" />
    <glyph glyph-name="uni045B" unicode="&#x45b;" horiz-adv-x="1282" 
d="M711 1051q122 0 223 -41t167 -112t102.5 -166.5t37.5 -205.5q0 -16 -2 -24v-502h-266v66v454v6q0 107 -76 183q-78 75 -184 75q-108 0 -185 -77q-75 -75 -75 -185v-2v-520h-287v1118h-146v154h146v59h287v-59h174v-154h-174v-196q61 73 122 101t136 28z" />
    <glyph glyph-name="uni045C" unicode="&#x45c;" horiz-adv-x="1200" 
d="M494 1341l235 236l150 -150l-236 -235zM788 0l-342 410l-98 -97v-313h-287v1423h287v-704l336 336l406 -2l-443 -441l522 -612h-381z" />
    <glyph glyph-name="uni045E" unicode="&#x45e;" horiz-adv-x="1236" 
d="M1055 1104l-416 -1104q-67 -164 -215 -259.5t-322 -92.5v286q62 -3 127 27q92 42 136 129l57 158l-361 850h316l190 -455l170 461h318zM590 1260q-188 0 -305 96q-67 56 -88 108l149 66l-2 2q3 -5 8.5 -13t25 -26.5t45 -32.5t70 -25.5t97.5 -11.5q128 0 211 62
q15 11 27 24t17 20l5 7l145 -78l-5 -9q-6 -9 -13.5 -18t-18 -22t-26 -27.5t-33.5 -27.5q-125 -94 -309 -94z" />
    <glyph glyph-name="uni045F" unicode="&#x45f;" horiz-adv-x="1005" 
d="M723 1057h242v-623q0 -109 -48.5 -201.5t-121.5 -149.5t-162 -85v-150h-260v150q-64 20 -121.5 56.5t-105.5 90t-76.5 129t-28.5 162.5v621h240v-621q0 -99 73 -160q3 -2 9.5 -7t9.5 -7v141h260v-141q11 11 20 17q34 30 52 67q18 41 18 88v623z" />
    <glyph glyph-name="uni0490" unicode="&#x490;" horiz-adv-x="917" 
d="M600 1458h287v-127v-266v-21h-506v-1044h-320v1331h539v127z" />
    <glyph glyph-name="uni0491" unicode="&#x491;" horiz-adv-x="1705" 
 />
    <glyph glyph-name="Wgrave" unicode="&#x1e80;" horiz-adv-x="2019" 
d="M1860 1331h368l-717 -1331v0v0l-231 430l-231 -430v0v0l-717 1331h368l349 -665l51 98l-305 567h368l348 -665zM1313 1677l-152 -149l-248 246l152 149z" />
    <glyph glyph-name="wgrave" unicode="&#x1e81;" horiz-adv-x="1540" 
d="M1235 1069h295l-574 -1069v0l-2 2l-184 344l-186 -346v0v2l-574 1067h295l279 -534l41 79l-244 455h295l280 -534zM971 1432l-152 -150l-248 246l152 149z" />
    <glyph glyph-name="Wacute" unicode="&#x1e82;" horiz-adv-x="2019" 
d="M1860 1331h368l-717 -1331v0v0l-231 430l-231 -430v0v0l-717 1331h368l349 -665l51 98l-305 567h368l348 -665zM817 1587l236 236l149 -150l-235 -235z" />
    <glyph glyph-name="wacute" unicode="&#x1e83;" horiz-adv-x="1540" 
d="M1235 1069h295l-574 -1069v0l-2 2l-184 344l-186 -346v0v2l-574 1067h295l279 -534l41 79l-244 455h295l280 -534zM578 1341l235 236l150 -150l-236 -235z" />
    <glyph glyph-name="Wdieresis" unicode="&#x1e84;" horiz-adv-x="2019" 
d="M1860 1331h368l-717 -1331v0v0l-231 430l-231 -430v0v0l-717 1331h368l349 -665l51 98l-305 567h368l348 -665zM643 1858h287v-287h-287v287zM1087 1858h287v-287h-287v287z" />
    <glyph glyph-name="wdieresis" unicode="&#x1e85;" horiz-adv-x="1540" 
d="M1235 1069h295l-574 -1069v0l-2 2l-184 344l-186 -346v0v2l-574 1067h295l279 -534l41 79l-244 455h295l280 -534zM403 1612h287v-287h-287v287zM848 1612h287v-287h-287v287z" />
    <glyph glyph-name="endash" unicode="&#x2013;" horiz-adv-x="825" 
d="M61 328v286h703v-286h-703z" />
    <glyph glyph-name="emdash" unicode="&#x2014;" horiz-adv-x="1275" 
d="M61 430v184h1153v-184h-1153z" />
    <glyph glyph-name="quoteleft" unicode="&#x2018;" 
d="M348 1085v-286h-287v286l78 175h148l-80 -175h141z" />
    <glyph glyph-name="quoteright" unicode="&#x2019;" 
d="M61 1085v287h287v-287l-80 -174h-145l78 174h-140z" />
    <glyph glyph-name="quotesinglbase" unicode="&#x201a;" 
d="M61 287h287v-287l-80 -174h-145l78 174h-140v287z" />
    <glyph glyph-name="quotedblleft" unicode="&#x201c;" horiz-adv-x="794" 
d="M733 1085v-286h-287v286l80 175h146l-78 -175h139zM350 764h-287l-2 319l80 174h146l-78 -174h139z" />
    <glyph glyph-name="quotedblright" unicode="&#x201d;" horiz-adv-x="794" 
d="M61 1083v287h287v-287l-78 -174h-147l80 174h-142zM446 1372h287v-287l-78 -174h-147l80 174h-142v287z" />
    <glyph glyph-name="quotedblbase" unicode="&#x201e;" horiz-adv-x="794" 
d="M61 -2v287h287v-287l-80 -174h-145l78 174h-140zM446 287h287v-287l-80 -174h-145l78 174h-140v287z" />
    <glyph glyph-name="guilsinglleft" unicode="&#x2039;" horiz-adv-x="903" 
d="M653 0l-592 592l590 596l191 -189l-406 -405l406 -406z" />
    <glyph glyph-name="guilsinglright" unicode="&#x203a;" horiz-adv-x="903" 
d="M250 0l-189 188l404 406l-404 405l189 189l592 -592z" />
    <glyph glyph-name="lira" unicode="&#x20a4;" horiz-adv-x="1005" 
d="M524 287h420v-287h-868h-15v268q103 0 177 74q65 65 77 147v103h-254v246h254v43q-5 110 35 213.5t121 183.5q142 139 336 152v-269q-87 -13 -148 -74q-74 -74 -77 -176v-73h211v-246h-211v-103q-9 -109 -58 -202z" />
    <glyph glyph-name="Euro" unicode="&#x20ac;" horiz-adv-x="1404" 
d="M899 287q133 0 240 80l204 -203q-195 -164 -444 -164q-215 0 -389.5 123t-249.5 319h-199v211h154v33v14h-154v213h193q70 202 246.5 329.5t398.5 127.5q251 0 444 -162l-204 -204q-101 79 -240 79q-165 0 -281 -116q-22 -22 -47 -54l381 -2v-211h-450v-14q0 -23 2 -33
h448v-211h-368q12 -18 34 -39q119 -116 281 -116z" />
    <glyph glyph-name="trademark" unicode="&#x2122;" horiz-adv-x="1267" 
d="M516 1085h-162v-473h-149v473h-164v150h475v-150zM895 1020l332 215v-623h-150v349l-184 -119l-180 116v-346h-150v623z" />
    <glyph glyph-name="Racute.alt" horiz-adv-x="1234" 
 />
    <glyph glyph-name="b.001" horiz-adv-x="1236" 
d="M690 1055q218 -2 371.5 -157.5t152.5 -373.5q-2 -218 -157 -371.5t-373 -152.5q-187 0 -334 121v-121h-287l-2 1430h287v-500q147 125 342 125zM870 342q75 75 78 184q0 106 -76 185q-75 75 -184 75q-108 0 -184 -73q-76 -76 -76 -185q-3 -107 74 -184q75 -75 184 -78
q108 0 184 76z" />
    </font>
</defs>
</svg>
