<svg width="1728" height="255" viewBox="0 0 1728 255" fill="none" xmlns="http://www.w3.org/2000/svg">
<mask id="path-1-outside-1_209_189" maskUnits="userSpaceOnUse" x="-6" y="0" width="1738" height="255" fill="black">
<rect fill="white" x="-6" width="1738" height="255"/>
<path d="M90.7788 9.91521H136.248L226.867 245.085H180.277L161.865 196.644H65.8027L46.5902 245.085H0L90.7788 9.91521ZM113.834 72.2647L82.4534 152.999H145.054L113.834 72.2647Z"/>
<path d="M243.838 9.91521H289.948L349.186 176.98L409.225 9.91521H455.335L370.48 245.085H327.252L243.838 9.91521Z"/>
<path d="M602.631 4C635.932 4 664.537 16.0436 688.446 40.1307C712.462 64.2179 724.47 93.5808 724.47 128.219C724.47 162.538 712.622 191.581 688.927 215.349C665.338 239.116 636.679 251 602.951 251C567.621 251 538.269 238.797 514.894 214.39C491.519 189.983 479.831 160.993 479.831 127.42C479.831 104.932 485.275 84.255 496.162 65.3903C507.049 46.5256 521.992 31.6043 540.991 20.6265C560.096 9.54218 580.643 4 602.631 4ZM602.15 47.8045C580.376 47.8045 562.071 55.3717 547.235 70.5061C532.398 85.6406 524.98 104.878 524.98 128.219C524.98 154.225 534.32 174.795 552.998 189.929C567.515 201.76 584.165 207.675 602.951 207.675C624.191 207.675 642.283 200.001 657.226 184.654C672.169 169.306 679.641 150.388 679.641 127.9C679.641 105.518 672.116 86.5998 657.066 71.1456C642.016 55.5849 623.711 47.8045 602.15 47.8045Z"/>
<path d="M983.197 51.3217L951.817 81.2175C930.47 58.729 906.454 47.4848 879.77 47.4848C857.249 47.4848 838.25 55.1586 822.773 70.5061C807.403 85.8537 799.718 104.772 799.718 127.26C799.718 142.928 803.134 156.836 809.965 168.986C816.796 181.137 826.456 190.676 838.944 197.603C851.432 204.531 865.307 207.995 880.571 207.995C893.593 207.995 905.494 205.597 916.274 200.801C927.054 195.898 938.902 187.052 951.817 174.262L982.237 205.917C964.839 222.863 948.401 234.64 932.925 241.248C917.448 247.749 899.783 251 879.93 251C843.32 251 813.327 239.436 789.952 216.308C766.684 193.074 755.049 163.338 755.049 127.1C755.049 103.653 760.333 82.8162 770.9 64.5909C781.573 46.3657 796.783 31.7109 816.529 20.6265C836.382 9.54218 857.729 4 880.571 4C899.997 4 918.675 8.10334 936.607 16.31C954.645 24.5167 970.175 36.1873 983.197 51.3217Z"/>
<path d="M1094.31 9.91521H1139.78L1230.4 245.085H1183.81L1165.4 196.644H1069.33L1050.12 245.085H1003.53L1094.31 9.91521ZM1117.36 72.2647L1085.98 152.999H1148.58L1117.36 72.2647Z"/>
<path d="M1265.46 9.91521H1318.61C1352.88 9.91521 1378.33 14.1784 1394.98 22.7049C1411.64 31.1247 1425.35 44.8736 1436.13 63.9515C1446.91 83.0293 1452.3 105.305 1452.3 130.777C1452.3 148.896 1449.26 165.576 1443.18 180.817C1437.2 195.951 1428.87 208.528 1418.2 218.546C1407.63 228.565 1396.16 235.493 1383.78 239.329C1371.4 243.166 1349.94 245.085 1319.42 245.085H1265.46V9.91521ZM1310.13 53.0803V201.28H1330.94C1351.44 201.28 1366.27 198.936 1375.45 194.246C1384.74 189.556 1392.32 181.669 1398.19 170.585C1404.06 159.501 1406.99 145.858 1406.99 129.658C1406.99 104.718 1400 85.3741 1386.02 71.6252C1373.42 59.2619 1353.2 53.0803 1325.34 53.0803H1310.13Z"/>
<path d="M1606.16 4C1639.46 4 1668.07 16.0436 1691.98 40.1307C1715.99 64.2179 1728 93.5808 1728 128.219C1728 162.538 1716.15 191.581 1692.46 215.349C1668.87 239.116 1640.21 251 1606.48 251C1571.15 251 1541.8 238.797 1518.42 214.39C1495.05 189.983 1483.36 160.993 1483.36 127.42C1483.36 104.932 1488.8 84.255 1499.69 65.3903C1510.58 46.5256 1525.52 31.6043 1544.52 20.6265C1563.63 9.54218 1584.17 4 1606.16 4ZM1605.68 47.8045C1583.91 47.8045 1565.6 55.3717 1550.77 70.5061C1535.93 85.6406 1528.51 104.878 1528.51 128.219C1528.51 154.225 1537.85 174.795 1556.53 189.929C1571.04 201.76 1587.7 207.675 1606.48 207.675C1627.72 207.675 1645.81 200.001 1660.76 184.654C1675.7 169.306 1683.17 150.388 1683.17 127.9C1683.17 105.518 1675.65 86.5998 1660.6 71.1456C1645.55 55.5849 1627.24 47.8045 1605.68 47.8045Z"/>
</mask>
<path d="M90.7788 9.91521H136.248L226.867 245.085H180.277L161.865 196.644H65.8027L46.5902 245.085H0L90.7788 9.91521ZM113.834 72.2647L82.4534 152.999H145.054L113.834 72.2647Z" stroke="white" stroke-opacity="0.24" stroke-width="8" mask="url(#path-1-outside-1_209_189)"/>
<path d="M243.838 9.91521H289.948L349.186 176.98L409.225 9.91521H455.335L370.48 245.085H327.252L243.838 9.91521Z" stroke="white" stroke-opacity="0.24" stroke-width="8" mask="url(#path-1-outside-1_209_189)"/>
<path d="M602.631 4C635.932 4 664.537 16.0436 688.446 40.1307C712.462 64.2179 724.47 93.5808 724.47 128.219C724.47 162.538 712.622 191.581 688.927 215.349C665.338 239.116 636.679 251 602.951 251C567.621 251 538.269 238.797 514.894 214.39C491.519 189.983 479.831 160.993 479.831 127.42C479.831 104.932 485.275 84.255 496.162 65.3903C507.049 46.5256 521.992 31.6043 540.991 20.6265C560.096 9.54218 580.643 4 602.631 4ZM602.15 47.8045C580.376 47.8045 562.071 55.3717 547.235 70.5061C532.398 85.6406 524.98 104.878 524.98 128.219C524.98 154.225 534.32 174.795 552.998 189.929C567.515 201.76 584.165 207.675 602.951 207.675C624.191 207.675 642.283 200.001 657.226 184.654C672.169 169.306 679.641 150.388 679.641 127.9C679.641 105.518 672.116 86.5998 657.066 71.1456C642.016 55.5849 623.711 47.8045 602.15 47.8045Z" stroke="white" stroke-opacity="0.24" stroke-width="8" mask="url(#path-1-outside-1_209_189)"/>
<path d="M983.197 51.3217L951.817 81.2175C930.47 58.729 906.454 47.4848 879.77 47.4848C857.249 47.4848 838.25 55.1586 822.773 70.5061C807.403 85.8537 799.718 104.772 799.718 127.26C799.718 142.928 803.134 156.836 809.965 168.986C816.796 181.137 826.456 190.676 838.944 197.603C851.432 204.531 865.307 207.995 880.571 207.995C893.593 207.995 905.494 205.597 916.274 200.801C927.054 195.898 938.902 187.052 951.817 174.262L982.237 205.917C964.839 222.863 948.401 234.64 932.925 241.248C917.448 247.749 899.783 251 879.93 251C843.32 251 813.327 239.436 789.952 216.308C766.684 193.074 755.049 163.338 755.049 127.1C755.049 103.653 760.333 82.8162 770.9 64.5909C781.573 46.3657 796.783 31.7109 816.529 20.6265C836.382 9.54218 857.729 4 880.571 4C899.997 4 918.675 8.10334 936.607 16.31C954.645 24.5167 970.175 36.1873 983.197 51.3217Z" stroke="white" stroke-opacity="0.24" stroke-width="8" mask="url(#path-1-outside-1_209_189)"/>
<path d="M1094.31 9.91521H1139.78L1230.4 245.085H1183.81L1165.4 196.644H1069.33L1050.12 245.085H1003.53L1094.31 9.91521ZM1117.36 72.2647L1085.98 152.999H1148.58L1117.36 72.2647Z" stroke="white" stroke-opacity="0.24" stroke-width="8" mask="url(#path-1-outside-1_209_189)"/>
<path d="M1265.46 9.91521H1318.61C1352.88 9.91521 1378.33 14.1784 1394.98 22.7049C1411.64 31.1247 1425.35 44.8736 1436.13 63.9515C1446.91 83.0293 1452.3 105.305 1452.3 130.777C1452.3 148.896 1449.26 165.576 1443.18 180.817C1437.2 195.951 1428.87 208.528 1418.2 218.546C1407.63 228.565 1396.16 235.493 1383.78 239.329C1371.4 243.166 1349.94 245.085 1319.42 245.085H1265.46V9.91521ZM1310.13 53.0803V201.28H1330.94C1351.44 201.28 1366.27 198.936 1375.45 194.246C1384.74 189.556 1392.32 181.669 1398.19 170.585C1404.06 159.501 1406.99 145.858 1406.99 129.658C1406.99 104.718 1400 85.3741 1386.02 71.6252C1373.42 59.2619 1353.2 53.0803 1325.34 53.0803H1310.13Z" stroke="white" stroke-opacity="0.24" stroke-width="8" mask="url(#path-1-outside-1_209_189)"/>
<path d="M1606.16 4C1639.46 4 1668.07 16.0436 1691.98 40.1307C1715.99 64.2179 1728 93.5808 1728 128.219C1728 162.538 1716.15 191.581 1692.46 215.349C1668.87 239.116 1640.21 251 1606.48 251C1571.15 251 1541.8 238.797 1518.42 214.39C1495.05 189.983 1483.36 160.993 1483.36 127.42C1483.36 104.932 1488.8 84.255 1499.69 65.3903C1510.58 46.5256 1525.52 31.6043 1544.52 20.6265C1563.63 9.54218 1584.17 4 1606.16 4ZM1605.68 47.8045C1583.91 47.8045 1565.6 55.3717 1550.77 70.5061C1535.93 85.6406 1528.51 104.878 1528.51 128.219C1528.51 154.225 1537.85 174.795 1556.53 189.929C1571.04 201.76 1587.7 207.675 1606.48 207.675C1627.72 207.675 1645.81 200.001 1660.76 184.654C1675.7 169.306 1683.17 150.388 1683.17 127.9C1683.17 105.518 1675.65 86.5998 1660.6 71.1456C1645.55 55.5849 1627.24 47.8045 1605.68 47.8045Z" stroke="white" stroke-opacity="0.24" stroke-width="8" mask="url(#path-1-outside-1_209_189)"/>
</svg>
