<svg width="46" height="8" viewBox="0 0 46 8" fill="none" xmlns="http://www.w3.org/2000/svg">
<path d="M0.804199 0.535645H2.07861C2.59131 0.535645 2.98535 0.597168 3.26074 0.720215C3.53613 0.840332 3.75293 1.02637 3.91113 1.27832C4.07227 1.53027 4.15283 1.81006 4.15283 2.11768C4.15283 2.40479 4.08252 2.66699 3.94189 2.9043C3.80127 3.13867 3.59473 3.3291 3.32227 3.47559C3.65918 3.58984 3.91846 3.72461 4.1001 3.87988C4.28174 4.03223 4.42236 4.21826 4.52197 4.43799C4.62451 4.65479 4.67578 4.89062 4.67578 5.14551C4.67578 5.66406 4.48535 6.10352 4.10449 6.46387C3.72656 6.82129 3.21826 7 2.57959 7H0.804199V0.535645ZM1.43701 1.16846V3.23828H1.80615C2.25439 3.23828 2.58398 3.19727 2.79492 3.11523C3.00586 3.03027 3.17285 2.89844 3.2959 2.71973C3.41895 2.53809 3.48047 2.3374 3.48047 2.11768C3.48047 1.82178 3.37646 1.59033 3.16846 1.42334C2.96338 1.25342 2.63525 1.16846 2.18408 1.16846H1.43701ZM1.43701 3.88867V6.36719H2.23682C2.7085 6.36719 3.0542 6.32178 3.27393 6.23096C3.49365 6.13721 3.66943 5.99219 3.80127 5.7959C3.93604 5.59961 4.00342 5.38721 4.00342 5.15869C4.00342 4.87158 3.90967 4.62109 3.72217 4.40723C3.53467 4.19336 3.27686 4.04688 2.94873 3.96777C2.729 3.91504 2.34668 3.88867 1.80176 3.88867H1.43701ZM9.3723 0.535645H10.0183V7H9.3723V0.535645ZM14.3457 5.7959L14.895 5.46631C15.2817 6.17822 15.7285 6.53418 16.2353 6.53418C16.4521 6.53418 16.6557 6.48438 16.8462 6.38477C17.0366 6.28223 17.1816 6.146 17.2812 5.97607C17.3808 5.80615 17.4306 5.62598 17.4306 5.43555C17.4306 5.21875 17.3574 5.00635 17.2109 4.79834C17.0088 4.51123 16.6396 4.16553 16.1035 3.76123C15.5644 3.354 15.229 3.05957 15.0971 2.87793C14.8686 2.57324 14.7544 2.24365 14.7544 1.88916C14.7544 1.60791 14.8218 1.35156 14.9565 1.12012C15.0913 0.888672 15.2803 0.707031 15.5234 0.575195C15.7695 0.44043 16.0361 0.373047 16.3232 0.373047C16.6279 0.373047 16.9121 0.449219 17.1758 0.601562C17.4424 0.750977 17.7236 1.02783 18.0195 1.43213L17.4922 1.83203C17.249 1.50977 17.041 1.29736 16.8681 1.19482C16.6982 1.09229 16.5122 1.04102 16.31 1.04102C16.0493 1.04102 15.8354 1.12012 15.6684 1.27832C15.5044 1.43652 15.4223 1.63135 15.4223 1.86279C15.4223 2.00342 15.4516 2.13965 15.5102 2.27148C15.5688 2.40332 15.6758 2.54688 15.831 2.70215C15.916 2.78418 16.1943 2.99951 16.666 3.34814C17.2256 3.76123 17.6094 4.12891 17.8174 4.45117C18.0254 4.77344 18.1294 5.09717 18.1294 5.42236C18.1294 5.89111 17.9507 6.29834 17.5932 6.64404C17.2388 6.98975 16.8066 7.1626 16.2969 7.1626C15.9043 7.1626 15.5483 7.05859 15.229 6.85059C14.9096 6.63965 14.6152 6.28809 14.3457 5.7959ZM22.3645 1.16406V0.535645H25.9109V1.16406H24.4695V7H23.8103V1.16406H22.3645ZM30.3833 0.535645H31.6709C32.3886 0.535645 32.875 0.564941 33.1298 0.623535C33.5136 0.711426 33.8256 0.900391 34.0659 1.19043C34.3061 1.47754 34.4262 1.83203 34.4262 2.25391C34.4262 2.60547 34.3427 2.91455 34.1757 3.18115C34.0117 3.44775 33.7758 3.6499 33.4682 3.7876C33.1606 3.92236 32.7358 3.99121 32.1938 3.99414L34.5185 7H33.7187L31.3984 3.99414H31.0293V7H30.3833V0.535645ZM31.0293 1.16846V3.36572L32.1411 3.37451C32.5717 3.37451 32.8896 3.3335 33.0947 3.25146C33.3027 3.16943 33.4638 3.03906 33.5781 2.86035C33.6953 2.67871 33.7539 2.47656 33.7539 2.25391C33.7539 2.03711 33.6953 1.84082 33.5781 1.66504C33.4609 1.48633 33.3071 1.35889 33.1167 1.28271C32.9262 1.20654 32.6098 1.16846 32.1674 1.16846H31.0293ZM42.4055 0.373047C43.384 0.373047 44.2028 0.699707 44.862 1.35303C45.5212 2.00635 45.8508 2.81055 45.8508 3.76562C45.8508 4.71191 45.5212 5.51465 44.862 6.17383C44.2058 6.83301 43.4045 7.1626 42.4582 7.1626C41.5002 7.1626 40.6916 6.83447 40.0324 6.17822C39.3732 5.52197 39.0437 4.72803 39.0437 3.79639C39.0437 3.17529 39.1931 2.59961 39.4919 2.06934C39.7937 1.53906 40.2038 1.12451 40.7224 0.825684C41.2409 0.523926 41.802 0.373047 42.4055 0.373047ZM42.4362 1.00586C41.9587 1.00586 41.5061 1.13037 41.0783 1.37939C40.6506 1.62842 40.3166 1.96387 40.0764 2.38574C39.8361 2.80762 39.716 3.27783 39.716 3.79639C39.716 4.56396 39.9812 5.21289 40.5114 5.74316C41.0446 6.27051 41.6862 6.53418 42.4362 6.53418C42.9372 6.53418 43.4001 6.4126 43.8249 6.16943C44.2526 5.92627 44.5852 5.59375 44.8225 5.17188C45.0627 4.75 45.1828 4.28125 45.1828 3.76562C45.1828 3.25293 45.0627 2.79004 44.8225 2.37695C44.5852 1.96094 44.2497 1.62842 43.8161 1.37939C43.3825 1.13037 42.9226 1.00586 42.4362 1.00586Z" fill="#84B936"/>
</svg>
