<svg width="100" height="100" viewBox="0 0 100 100" fill="none" xmlns="http://www.w3.org/2000/svg">
<path d="M69.8114 89.6028V93.7047C69.8114 94.9188 68.8279 95.9023 67.6138 95.9023H34.1602C32.9658 95.9023 31.9895 94.9474 31.9627 93.753L31.8733 89.7405C31.8733 89.7405 12.6494 86.8437 9.96366 64.7822C9.87783 64.0723 10.4286 63.4429 11.1438 63.4429H89.9615C90.6463 63.4429 91.1917 64.0186 91.1488 64.7017C90.8734 69.0289 88.5328 83.3623 69.8114 89.6028Z" stroke="#84B936" stroke-width="5" stroke-miterlimit="10"/>
<path d="M84.9031 39.4089C82.2334 37.5511 78.988 36.4621 75.4887 36.4621C66.3712 36.4621 58.9792 43.8541 58.9792 52.9716C58.9792 56.9466 60.3846 60.5943 62.7235 63.4428H21.4309C14.1497 60.5639 9 53.4634 9 45.1594C9 34.3039 17.801 25.5046 28.6548 25.5046C29.6579 25.5046 30.6432 25.5797 31.6052 25.7264C33.6561 18.9405 39.9574 14 47.412 14C54.6109 14 60.7333 18.6079 62.9917 25.0362C63.943 24.8931 64.9175 24.8198 65.9081 24.8198C75.0095 24.8198 82.6679 31.0084 84.9031 39.4089Z" stroke="#84B936" stroke-width="5" stroke-miterlimit="10"/>
<path d="M91.9998 52.9717C91.9998 56.9466 90.5962 60.5944 88.2538 63.4428H62.7233C60.3845 60.5944 58.979 56.9466 58.979 52.9717C58.979 43.8542 66.371 36.4622 75.4885 36.4622C78.9878 36.4622 82.2332 37.5511 84.9029 39.4089C89.1925 42.3897 91.9998 47.3535 91.9998 52.9717Z" stroke="#84B936" stroke-width="5" stroke-miterlimit="10"/>
<path d="M47.8984 63.4428V28.5176" stroke="#84B936" stroke-width="5" stroke-miterlimit="10" stroke-linecap="round"/>
<path d="M46.9524 63.4427L22.6968 38.7205" stroke="#84B936" stroke-width="5" stroke-miterlimit="10" stroke-linecap="round"/>
</svg>
