<svg width="95" height="108" viewBox="0 0 95 108" fill="none" xmlns="http://www.w3.org/2000/svg">
<g clip-path="url(#clip0_1048_291)">
<path d="M28.5675 94.9833C26.9619 94.0657 25.2944 93.2401 23.7596 92.2137C14.743 86.1797 9.21811 78.0076 8.76511 66.8242C8.56916 61.9615 9.86918 57.4082 11.8469 53.0046C14.5148 47.0644 18.4999 42.1466 23.5694 38.1761C30.4726 32.7707 36.4684 26.477 42.1522 19.8352C44.4134 17.1913 46.9152 14.781 49.9079 12.9443C54.9416 9.85591 59.9989 10.1305 65.0921 12.704C69.9988 15.1847 72.42 19.4171 72.9781 24.6996C73.3934 28.6288 73.445 32.6119 73.443 36.5723C73.4412 42.3641 73.8979 48.1076 74.674 53.8358C75.3664 58.9531 75.9603 64.0809 75.5433 69.2699C74.9483 76.6649 72.6815 83.4107 67.5576 88.9412C61.0853 95.9261 52.9182 98.7386 43.6169 98.5406C40.6496 98.4779 37.7335 98.0079 34.8799 97.1801C34.6357 97.1083 34.371 97.1041 34.1136 97.0674C32.2665 96.375 30.4159 95.6788 28.5675 94.9833ZM33.2083 90.7236C37.9027 92.3995 42.602 93.2092 47.4978 92.7557C58.9408 91.6924 67.3071 84.0052 69.4387 72.6252C70.2704 68.1792 70.1919 63.7319 69.6462 59.2895C68.6306 51.0102 67.6294 42.7388 67.8071 34.3566C67.8767 31.0764 67.6517 27.7656 67.258 24.5067C66.3936 17.3731 57.3231 13.9755 51.9971 18.3437C49.8658 20.0931 47.7813 21.963 45.9746 24.0403C40.3353 30.5308 34.4748 36.7625 27.6781 42.07C22.9757 45.7395 19.2391 50.2215 16.7725 55.7658C13.5502 63.0077 13.5083 70.1164 17.1912 77.1064C20.721 83.8154 26.4253 88.0186 33.2083 90.7236Z" fill="#84B936"/>
<path d="M49.1633 48.6533C57.8583 51.9246 62.1775 61.5949 58.8684 70.377C55.5751 79.1173 45.9208 83.4952 37.1986 80.2036C28.5833 76.9523 24.2799 67.2529 27.5741 58.5103C30.8589 49.7994 40.5054 45.396 49.1633 48.6533ZM39.2747 74.9765C44.9802 77.113 51.5107 74.1137 53.67 68.361C55.8277 62.6127 52.8755 56.0482 47.1722 53.9124C41.4711 51.7776 34.9316 54.781 32.7777 60.5258C30.6252 66.2735 33.5766 72.8402 39.2747 74.9765Z" fill="#84B936"/>
</g>
<defs>
<clipPath id="clip0_1048_291">
<rect width="67" height="90" fill="white" transform="translate(31.6919) rotate(20.6178)"/>
</clipPath>
</defs>
</svg>
