<svg width="100" height="100" viewBox="0 0 100 100" fill="none" xmlns="http://www.w3.org/2000/svg">
<path d="M97 50.2322C96.3053 51.8021 95.1084 52.4111 93.3855 52.33C91.3073 52.2331 89.2192 52.2826 87.1371 52.3281C86.752 52.336 86.2776 52.5297 86.0076 52.8006C74.3424 64.3929 62.697 76.0049 51.0477 87.613C49.1898 89.4637 47.8123 89.4617 45.9544 87.611C34.3051 76.0029 22.6597 64.3929 10.9945 52.7986C10.7225 52.5297 10.2481 52.336 9.86307 52.3281C7.5586 52.2846 5.25414 52.3142 2.94967 52.3043C1.20892 52.2964 -0.0137771 51.0963 0.000117214 49.4374C0.0140115 47.8339 1.24068 46.6634 2.93578 46.6496C4.12275 46.6397 5.30971 46.6476 6.60585 46.6476C3.54713 40.1051 3.07274 33.5072 5.43675 26.7887C7.29263 21.5155 10.6292 17.3298 15.2779 14.2355C20.5458 10.7339 26.3714 9.44081 32.6576 10.2178C38.9636 10.9988 44.1482 13.9191 48.4951 18.5695C53.6618 13.0867 59.8884 10.0814 67.437 10.0102C72.9411 9.95685 77.9529 11.4991 82.4031 14.71C87.4388 18.3421 90.7893 23.1605 92.2839 29.2009C93.7646 35.1878 93.0679 40.9612 90.3843 46.6476C91.4621 46.6476 92.4308 46.7128 93.3855 46.6337C95.1084 46.4894 96.3073 47.1478 97 48.7236C97 49.2258 97 49.73 97 50.2322ZM48.2609 52.8698C48.5348 52.421 48.7174 52.1343 48.8861 51.8417C51.7067 46.9402 54.5232 42.0368 57.3457 37.1373C58.7471 34.7034 61.2123 34.652 62.7248 37.0246C64.6184 39.9943 66.512 42.9601 68.3798 45.9457C68.6934 46.4459 69.013 46.6733 69.6442 46.6674C74.0625 46.6337 78.4829 46.6337 82.9013 46.6674C83.5325 46.6713 83.858 46.4479 84.1736 45.9437C86.887 41.6057 87.8675 36.9396 86.9961 31.8839C84.5091 17.4642 67.2623 10.7616 55.6804 19.7637C53.9972 21.0706 52.5344 22.6643 50.9981 24.1511C49.2156 25.8752 47.7766 25.895 46.0358 24.1669C45.0295 23.1684 44.0489 22.1423 43.0108 21.1794C38.1161 16.6417 32.3559 14.8781 25.7661 16.0486C12.0306 18.4904 5.19856 34.393 12.8523 45.9971C13.1957 46.5191 13.5649 46.6674 14.1564 46.6614C17.0603 46.6337 19.9642 46.6199 22.8681 46.6693C23.6164 46.6832 23.9638 46.4578 24.2516 45.7677C26.4369 40.4946 28.662 35.2372 30.8891 29.9818C31.0836 29.5251 31.3079 29.0506 31.6334 28.6848C32.9891 27.1604 35.3551 27.5459 36.3495 29.4678C38.0248 32.7025 39.6544 35.9589 41.3058 39.2054C43.5964 43.7075 45.8889 48.2115 48.2609 52.8698ZM78.2546 52.3083C74.6263 52.3083 71.1309 52.2766 67.6335 52.3241C66.25 52.3419 65.3012 51.7962 64.5926 50.6455C63.2885 48.5318 61.9408 46.4459 60.6049 44.3521C60.4819 44.1603 60.3191 43.9942 60.1405 43.7747C59.9499 44.099 59.805 44.3402 59.6661 44.5854C56.782 49.5976 53.898 54.6078 51.0139 59.6199C50.9206 59.784 50.8333 59.9521 50.74 60.1142C50.1287 61.1799 49.2533 61.8047 47.9751 61.7415C46.7405 61.6802 45.9683 60.9941 45.4284 59.9304C41.7921 52.763 38.1399 45.6017 34.4936 38.4383C34.3468 38.1496 34.184 37.8708 33.9657 37.4714C33.7771 37.8906 33.6441 38.1694 33.525 38.4561C31.8795 42.3591 30.2202 46.2561 28.5965 50.169C27.9812 51.6538 26.9649 52.4111 25.3195 52.3182C24.4382 52.2687 23.5529 52.3103 22.6676 52.3103C21.3933 52.3103 20.119 52.3103 19.0551 52.3103C28.9101 62.127 38.8029 71.9813 48.6519 81.7921C58.4057 72.0743 68.2706 62.2496 78.2546 52.3083Z" fill="#84B936"/>
</svg>
