<svg width="83" height="8" viewBox="0 0 83 8" fill="none" xmlns="http://www.w3.org/2000/svg">
<path d="M0.492188 7L1.41064 0.535645H1.51611L4.14404 5.83984L6.74561 0.535645H6.85107L7.77832 7H7.14111L6.5083 2.37695L4.22314 7H4.06055L1.74463 2.3418L1.11621 7H0.492188ZM12.4748 0.535645H13.1208V7H12.4748V0.535645ZM18.1162 0.535645H18.7666V6.37598H21.2495V7H18.1162V0.535645ZM25.7834 0.535645H26.4426V2.96143L29.0222 0.535645H29.8967L26.7898 3.43604L30.1384 7H29.2815L26.4426 3.98535V7H25.7834V0.535645ZM33.9428 5.7959L34.4921 5.46631C34.8789 6.17822 35.3256 6.53418 35.8325 6.53418C36.0493 6.53418 36.2529 6.48438 36.4433 6.38477C36.6338 6.28223 36.7788 6.146 36.8784 5.97607C36.978 5.80615 37.0278 5.62598 37.0278 5.43555C37.0278 5.21875 36.9546 5.00635 36.8081 4.79834C36.6059 4.51123 36.2368 4.16553 35.7006 3.76123C35.1616 3.354 34.8261 3.05957 34.6943 2.87793C34.4658 2.57324 34.3515 2.24365 34.3515 1.88916C34.3515 1.60791 34.4189 1.35156 34.5537 1.12012C34.6884 0.888672 34.8774 0.707031 35.1206 0.575195C35.3667 0.44043 35.6333 0.373047 35.9204 0.373047C36.2251 0.373047 36.5092 0.449219 36.7729 0.601562C37.0395 0.750977 37.3208 1.02783 37.6167 1.43213L37.0893 1.83203C36.8462 1.50977 36.6381 1.29736 36.4653 1.19482C36.2954 1.09229 36.1093 1.04102 35.9072 1.04102C35.6464 1.04102 35.4326 1.12012 35.2656 1.27832C35.1015 1.43652 35.0195 1.63135 35.0195 1.86279C35.0195 2.00342 35.0488 2.13965 35.1074 2.27148C35.166 2.40332 35.2729 2.54688 35.4282 2.70215C35.5131 2.78418 35.7915 2.99951 36.2631 3.34814C36.8227 3.76123 37.2065 4.12891 37.4145 4.45117C37.6225 4.77344 37.7265 5.09717 37.7265 5.42236C37.7265 5.89111 37.5478 6.29834 37.1904 6.64404C36.8359 6.98975 36.4038 7.1626 35.894 7.1626C35.5014 7.1626 35.1455 7.05859 34.8261 6.85059C34.5068 6.63965 34.2124 6.28809 33.9428 5.7959ZM42.5944 0.535645H43.2448V3.24707H46.5319V0.535645H47.1823V7H46.5319V3.87988H43.2448V7H42.5944V0.535645ZM54.9067 0.535645L57.9213 7H57.227L56.2119 4.87305H53.4257L52.415 7H51.6943L54.7485 0.535645H54.9067ZM54.8276 1.90674L53.7158 4.24902H55.9262L54.8276 1.90674ZM62.4377 0.535645H63.0969V2.96143L65.6764 0.535645H66.551L63.444 3.43604L66.7927 7H65.9357L63.0969 3.98535V7H62.4377V0.535645ZM71.2695 0.535645H74.974V1.17285H71.9155V3.19434H74.9477V3.82715H71.9155V6.36279H74.9477V7H71.2695V0.535645ZM78.9323 5.7959L79.4816 5.46631C79.8683 6.17822 80.3151 6.53418 80.8219 6.53418C81.0387 6.53418 81.2423 6.48438 81.4328 6.38477C81.6232 6.28223 81.7682 6.146 81.8678 5.97607C81.9674 5.80615 82.0172 5.62598 82.0172 5.43555C82.0172 5.21875 81.944 5.00635 81.7975 4.79834C81.5954 4.51123 81.2262 4.16553 80.6901 3.76123C80.151 3.354 79.8156 3.05957 79.6837 2.87793C79.4552 2.57324 79.341 2.24365 79.341 1.88916C79.341 1.60791 79.4084 1.35156 79.5431 1.12012C79.6779 0.888672 79.8669 0.707031 80.11 0.575195C80.3561 0.44043 80.6227 0.373047 80.9098 0.373047C81.2145 0.373047 81.4987 0.449219 81.7624 0.601562C82.029 0.750977 82.3102 1.02783 82.6061 1.43213L82.0788 1.83203C81.8356 1.50977 81.6276 1.29736 81.4547 1.19482C81.2848 1.09229 81.0988 1.04102 80.8966 1.04102C80.6359 1.04102 80.422 1.12012 80.255 1.27832C80.091 1.43652 80.0089 1.63135 80.0089 1.86279C80.0089 2.00342 80.0382 2.13965 80.0968 2.27148C80.1554 2.40332 80.2624 2.54688 80.4176 2.70215C80.5026 2.78418 80.7809 2.99951 81.2526 3.34814C81.8122 3.76123 82.196 4.12891 82.404 4.45117C82.612 4.77344 82.716 5.09717 82.716 5.42236C82.716 5.89111 82.5373 6.29834 82.1798 6.64404C81.8253 6.98975 81.3932 7.1626 80.8835 7.1626C80.4909 7.1626 80.1349 7.05859 79.8156 6.85059C79.4962 6.63965 79.2018 6.28809 78.9323 5.7959Z" fill="#84B936"/>
</svg>
