<svg width="819" height="128" viewBox="0 0 819 128" fill="none" xmlns="http://www.w3.org/2000/svg">
<path d="M35.648 18.432V7.2H0.08V18.432H12.248V54H23.48V18.432H35.648ZM70.9578 27.792C70.9578 27.792 74.7738 22.896 72.8298 16.344C70.1658 7.2 59.5098 7.2 59.5098 7.2H37.8378V54H63.2538C63.2538 54 76.7178 52.92 76.7178 40.536C76.7178 30.384 70.9578 27.792 70.9578 27.792ZM49.0698 15.912H59.0778C61.9578 15.912 64.3338 18.216 64.3338 21.168C64.3338 24.048 61.9578 26.352 59.0778 26.352H49.0698V15.912ZM67.9338 40.176C67.9338 43.056 65.6298 45.36 62.7498 45.36H49.0698V34.92H62.7498C65.6298 34.92 67.9338 37.296 67.9338 40.176ZM103.715 7.416C90.395 7.416 79.595 18.216 79.595 31.536C79.595 44.856 90.395 55.656 103.715 55.656C117.035 55.656 127.835 44.856 127.835 31.536C127.835 18.216 117.035 7.416 103.715 7.416ZM113.651 41.472C110.987 44.064 107.459 45.576 103.715 45.576C99.971 45.576 96.443 44.064 93.779 41.472C91.115 38.808 89.675 35.28 89.675 31.536C89.675 27.792 91.115 24.264 93.779 21.6C96.443 18.936 99.971 17.496 103.715 17.496C107.459 17.496 110.987 18.936 113.651 21.6C116.315 24.264 117.755 27.792 117.755 31.536C117.755 35.28 116.315 38.808 113.651 41.472ZM139.89 38.088L129.81 54H142.41L152.202 39.096C154.146 39.096 155.874 39.096 157.53 39.096V54H168.762V7.2H157.53C156.162 7.2 152.994 7.2 146.298 7.2C134.778 7.2 129.666 16.056 129.666 23.256C129.666 28.512 132.474 35.496 139.89 38.088ZM157.53 29.016H146.442C144.93 29.016 143.706 28.8 142.77 28.368C142.05 28.08 141.546 27.72 141.114 27.144C140.106 25.92 139.746 24.264 139.746 23.256C139.746 22.104 140.106 20.448 141.258 19.152C142.338 17.928 143.994 17.28 146.298 17.28H157.53V29.016ZM201.929 35.64H220.145V25.56H201.929V17.28H223.385V7.2H190.697V54H223.385V43.92H201.929V35.64ZM262.483 32.04V7.2H234.619V32.04H227.347V54H237.427V42.12H259.243V54H269.323V32.04H262.483ZM244.699 32.04V17.28H252.403V32.04H244.699ZM310.637 54H323.597L298.469 7.2L273.269 54H286.229L289.613 47.448H307.253L310.637 54ZM294.149 38.664L298.469 30.456L302.717 38.664H294.149ZM381.381 32.04V7.2H353.517V32.04H346.245V54H356.325V42.12H378.141V54H388.221V32.04H381.381ZM363.597 32.04V17.28H371.301V32.04H363.597ZM414.848 7.416C401.528 7.416 390.728 18.216 390.728 31.536C390.728 44.856 401.528 55.656 414.848 55.656C428.168 55.656 438.968 44.856 438.968 31.536C438.968 18.216 428.168 7.416 414.848 7.416ZM424.784 41.472C422.12 44.064 418.592 45.576 414.848 45.576C411.104 45.576 407.576 44.064 404.912 41.472C402.248 38.808 400.808 35.28 400.808 31.536C400.808 27.792 402.248 24.264 404.912 21.6C407.576 18.936 411.104 17.496 414.848 17.496C418.592 17.496 422.12 18.936 424.784 21.6C427.448 24.264 428.888 27.792 428.888 31.536C428.888 35.28 427.448 38.808 424.784 41.472ZM462.903 7.2L448.503 44.136H440.799V54H456.639L466.503 28.584V54H477.735V7.2H462.903ZM528.107 11.88L520.115 3.96L508.523 15.552V0.719999H499.883V14.616L489.227 3.96L481.307 11.88L496.715 27.36L481.307 42.84L489.227 50.76L499.883 40.104V54H508.523V39.168L520.187 50.76L528.107 42.84L512.627 27.36L528.107 11.88ZM557.082 7.2V25.56H542.97V7.2H531.738V54H542.97V35.64H557.082V54H568.314V7.2H557.082ZM610.028 54H622.988L597.86 7.2L572.66 54H585.62L589.004 47.448H606.644L610.028 54ZM593.54 38.664L597.86 30.456L602.108 38.664H593.54ZM665.364 16.992C661.548 16.92 658.02 18.072 655.068 20.016V11.808H670.044V3.816L644.916 3.744L645.06 54H655.14V51.048C658.02 52.92 661.404 54 665.148 54C675.372 54.072 683.724 45.864 683.796 35.568C683.796 25.344 675.588 16.992 665.364 16.992ZM671.628 41.976C669.9 43.704 667.596 44.64 665.148 44.64C662.772 44.64 660.468 43.632 658.74 41.904C657.012 40.176 656.076 37.872 656.076 35.424C656.076 32.976 657.084 30.744 658.812 29.016C660.54 27.288 662.844 26.352 665.292 26.352C667.74 26.352 670.044 27.36 671.7 29.088C673.428 30.816 674.364 33.12 674.364 35.568C674.364 38.016 673.428 40.248 671.628 41.976ZM728.073 4.032V54H738.009V4.032H728.073ZM708.489 16.992C704.673 16.92 701.145 18.072 698.193 20.016V3.744H688.113L688.185 54H698.265V51.048C701.145 52.92 704.601 54 708.273 54C718.497 54.072 726.849 45.864 726.921 35.568C726.993 25.344 718.713 16.992 708.489 16.992ZM714.825 41.976C713.097 43.704 710.793 44.64 708.345 44.64C705.897 44.64 703.593 43.632 701.865 41.904C700.209 40.176 699.201 37.872 699.273 35.424C699.273 32.976 700.209 30.744 701.937 29.016C703.665 27.288 705.969 26.352 708.417 26.352C710.865 26.352 713.169 27.36 714.897 29.088C716.625 30.816 717.561 33.12 717.561 35.568C717.489 38.016 716.553 40.248 714.825 41.976ZM776.812 18.432V7.2H741.244V18.432H753.412V54H764.644V18.432H776.812ZM800.458 16.992C796.642 16.92 793.114 18.072 790.162 20.016V3.744H780.082L780.154 54H790.234V51.048C793.114 52.92 796.57 54 800.242 54C810.466 54.072 818.818 45.864 818.89 35.568C818.962 25.344 810.682 16.992 800.458 16.992ZM806.794 41.976C805.066 43.704 802.762 44.64 800.314 44.64C797.866 44.64 795.562 43.632 793.834 41.904C792.178 40.176 791.17 37.872 791.242 35.424C791.242 32.976 792.178 30.744 793.906 29.016C795.634 27.288 797.938 26.352 800.386 26.352C802.834 26.352 805.138 27.36 806.866 29.088C808.594 30.816 809.53 33.12 809.53 35.568C809.458 38.016 808.522 40.248 806.794 41.976ZM35.648 90.432V79.2H0.08V90.432H12.248V126H23.48V90.432H35.648ZM70.9578 99.792C70.9578 99.792 74.7738 94.896 72.8298 88.344C70.1658 79.2 59.5098 79.2 59.5098 79.2H37.8378V126H63.2538C63.2538 126 76.7178 124.92 76.7178 112.536C76.7178 102.384 70.9578 99.792 70.9578 99.792ZM49.0698 87.912H59.0778C61.9578 87.912 64.3338 90.216 64.3338 93.168C64.3338 96.048 61.9578 98.352 59.0778 98.352H49.0698V87.912ZM67.9338 112.176C67.9338 115.056 65.6298 117.36 62.7498 117.36H49.0698V106.92H62.7498C65.6298 106.92 67.9338 109.296 67.9338 112.176ZM103.715 79.416C90.395 79.416 79.595 90.216 79.595 103.536C79.595 116.856 90.395 127.656 103.715 127.656C117.035 127.656 127.835 116.856 127.835 103.536C127.835 90.216 117.035 79.416 103.715 79.416ZM113.651 113.472C110.987 116.064 107.459 117.576 103.715 117.576C99.971 117.576 96.443 116.064 93.779 113.472C91.115 110.808 89.675 107.28 89.675 103.536C89.675 99.792 91.115 96.264 93.779 93.6C96.443 90.936 99.971 89.496 103.715 89.496C107.459 89.496 110.987 90.936 113.651 93.6C116.315 96.264 117.755 99.792 117.755 103.536C117.755 107.28 116.315 110.808 113.651 113.472ZM166.53 126V79.2L141.258 100.728V79.2H130.026V126L155.298 104.832V126H166.53ZM194.961 95.256L170.121 79.2V126H181.353V99.864L194.817 108.648L208.713 99.792V126H219.945V79.2L194.961 95.256ZM263.989 79.2L249.589 116.136H241.885V126H257.725L267.589 100.584V126H278.821V79.2H263.989ZM293.265 107.64H311.481V97.56H293.265V89.28H314.721V79.2H282.033V126H314.721V115.92H293.265V107.64ZM350.723 126H366.635L342.299 100.584L363.755 79.2H347.843L329.195 97.848V79.2H317.963V126H329.195V113.76L334.307 108.576L350.723 126ZM407.247 126H420.207L395.079 79.2L369.879 126H382.839L386.223 119.448H403.863L407.247 126ZM390.759 110.664L395.079 102.456L399.327 110.664H390.759ZM446.976 79.2C440.28 79.2 437.184 79.2 435.744 79.2H424.512V111.096V126H435.744V111.096C438.912 111.096 442.656 111.096 446.832 111.096C459.216 111.096 463.68 101.808 463.68 95.184C463.68 87.984 458.496 79.2 446.976 79.2ZM452.232 99.144C451.728 99.648 451.224 100.008 450.576 100.368C449.568 100.8 448.344 101.016 446.832 101.016H435.744V89.28H446.976C449.28 89.28 450.936 89.856 452.088 91.152C453.168 92.376 453.6 94.032 453.6 95.184C453.6 96.264 453.24 97.92 452.232 99.144ZM497.59 112.896C495.214 114.696 492.262 115.704 489.166 115.704C485.422 115.704 481.966 114.264 479.302 111.6C476.638 108.936 475.198 105.48 475.198 101.736C475.198 97.992 476.638 94.464 479.302 91.8C481.966 89.136 485.422 87.696 489.166 87.696C492.262 87.696 495.214 88.704 497.59 90.504L504.79 83.376C500.542 79.776 495.142 77.616 489.166 77.616C475.918 77.616 465.118 88.416 465.118 101.736C465.118 114.984 475.918 125.784 489.166 125.784C495.142 125.784 500.542 123.624 504.79 120.096L497.59 112.896ZM542.531 90.432V79.2H506.963V90.432H519.131V126H530.363V90.432H542.531ZM577.841 99.792C577.841 99.792 581.657 94.896 579.713 88.344C577.049 79.2 566.393 79.2 566.393 79.2H544.721V126H570.137C570.137 126 583.601 124.92 583.601 112.536C583.601 102.384 577.841 99.792 577.841 99.792ZM555.953 87.912H565.961C568.841 87.912 571.217 90.216 571.217 93.168C571.217 96.048 568.841 98.352 565.961 98.352H555.953V87.912ZM574.817 112.176C574.817 115.056 572.513 117.36 569.633 117.36H555.953V106.92H569.633C572.513 106.92 574.817 109.296 574.817 112.176ZM610.598 79.416C597.278 79.416 586.478 90.216 586.478 103.536C586.478 116.856 597.278 127.656 610.598 127.656C623.918 127.656 634.718 116.856 634.718 103.536C634.718 90.216 623.918 79.416 610.598 79.416ZM620.534 113.472C617.87 116.064 614.342 117.576 610.598 117.576C606.854 117.576 603.326 116.064 600.662 113.472C597.998 110.808 596.558 107.28 596.558 103.536C596.558 99.792 597.998 96.264 600.662 93.6C603.326 90.936 606.854 89.496 610.598 89.496C614.342 89.496 617.87 90.936 620.534 93.6C623.198 96.264 624.638 99.792 624.638 103.536C624.638 107.28 623.198 110.808 620.534 113.472ZM662.469 95.256L637.629 79.2V126H648.861V99.864L662.325 108.648L676.221 99.792V126H687.453V79.2L662.469 95.256Z" fill="white"/>
</svg>
